Merriweather-DisplayBold.ufo
<glyph name="exclam" format="2">
  <advance width="461.7458563535912"/>
  <unicode hex="0021"/>
  <outline>
    <contour>
      <point x="388.2099447513812" y="1784.9723756906078" type="line"/>
      <point x="73.53591160220996" y="1784.9723756906078" type="line"/>
      <point x="205.80662983425418" y="429.2044198895028" type="line"/>
      <point x="258.87292817679554" y="429.2044198895028" type="line"/>
    </contour>
    <contour>
      <point x="83.48618784530387" y="117.49171270718232" type="curve" smooth="yes"/>
      <point x="83.48618784530387" y="37.88397790055249"/>
      <point x="145.92265193370167" y="-17.65745856353591"/>
      <point x="217.3591160220994" y="-17.65745856353591" type="curve" smooth="yes"/>
      <point x="311.61325966850825" y="-17.65745856353591"/>
      <point x="378.98342541436466" y="37.92265193370166"/>
      <point x="378.98342541436466" y="131.32044198895028" type="curve" smooth="yes"/>
      <point x="378.98342541436466" y="200.75690607734808"/>
      <point x="331.9944751381215" y="266.4696132596685"/>
      <point x="242.0441988950276" y="266.4696132596685" type="curve" smooth="yes"/>
      <point x="154.75138121546962" y="266.4696132596685"/>
      <point x="83.48618784530387" y="205.2707182320442"/>
    </contour>
  </outline>
</glyph>
<glyph name="quotedbl" format="2">
  <advance width="1117.3073758922449"/>
  <unicode hex="0022"/>
  <outline>
    <contour>
      <point x="449.7482356736702" y="1671.5027624309391" type="line"/>
      <point x="210.51473968625234" y="1671.5027624309391" type="line"/>
      <point x="289.7219421704238" y="946.9006331411058" type="line"/>
      <point x="368.5410331894987" y="946.9006331411058" type="line"/>
    </contour>
    <contour>
      <point x="909.5970077025446" y="1671.5027624309391" type="line"/>
      <point x="670.5671653829093" y="1671.5027624309391" type="line"/>
      <point x="749.5707141992983" y="946.9006331411058" type="line"/>
      <point x="828.5934588861555" y="946.9006331411058" type="line"/>
    </contour>
  </outline>
</glyph>
<glyph name="numbersign" format="2">
  <advance width="1348.4104528773642"/>
  <unicode hex="0023"/>
  <outline>
    <contour>
      <point x="357.6853248376819" y="413.61096100334714" type="line"/>
      <point x="293.6853248376819" y="0.6109610033471791" type="line"/>
      <point x="374.82401096906875" y="0.6109610033471791" type="line"/>
      <point x="439.82401096906875" y="413.61096100334714" type="line"/>
      <point x="787.5864419082953" y="413.61096100334714" type="line"/>
      <point x="724.5864419082953" y="0.6109610033471791" type="line"/>
      <point x="805.7251280396822" y="0.6109610033471791" type="line"/>
      <point x="868.7251280396822" y="413.61096100334714" type="line"/>
      <point x="1131.2002661612291" y="413.61096100334714" type="line"/>
      <point x="1156.4378352220026" y="597.2739444287616" type="line"/>
      <point x="897.9626971004557" y="597.2739444287616" type="line"/>
      <point x="953.7638020728314" y="926.9479775779329" type="line"/>
      <point x="1201.9626971004557" y="926.9479775779329" type="line"/>
      <point x="1227.2002661612291" y="1108.6109610033473" type="line"/>
      <point x="979.7251280396822" y="1108.6109610033473" type="line"/>
      <point x="1049.7251280396822" y="1539.6109610033473" type="line"/>
      <point x="967.5864419082953" y="1539.6109610033473" type="line"/>
      <point x="897.5864419082953" y="1108.6109610033473" type="line"/>
      <point x="550.8240109690688" y="1108.6109610033473" type="line"/>
      <point x="618.8240109690688" y="1539.6109610033473" type="line"/>
      <point x="537.685324837682" y="1539.6109610033473" type="line"/>
      <point x="469.6853248376819" y="1108.6109610033473" type="line"/>
      <point x="216.21018671613504" y="1108.6109610033473" type="line"/>
      <point x="190.97261765536157" y="926.9479775779329" type="line"/>
      <point x="441.4477557769084" y="926.9479775779329" type="line"/>
      <point x="388.09416461668746" y="597.2739444287616" type="line"/>
      <point x="146.4477557769085" y="597.2739444287616" type="line"/>
      <point x="121.21018671613501" y="413.61096100334714" type="line"/>
    </contour>
    <contour>
      <point x="816.8240109690688" y="597.2739444287616" type="line"/>
      <point x="468.2328507480743" y="597.2739444287616" type="line"/>
      <point x="523.5864419082953" y="926.9479775779329" type="line"/>
      <point x="871.6251159414445" y="926.9479775779329" type="line"/>
    </contour>
  </outline>
</glyph>
<glyph name="dollar" format="2">
  <advance width="1314.1415897084325"/>
  <unicode hex="0024"/>
  <outline>
    <contour>
      <point x="164.83046336250356" y="65.82872928176795" type="line"/>
      <point x="224.4952615235714" y="53.315965641004965"/>
      <point x="391.2830987619469" y="-13.335726095898696"/>
      <point x="603.1887325079647" y="-23.201435657539218" type="curve"/>
      <point x="602.2558777271445" y="-256.26858087671894" type="line"/>
      <point x="715.885792636206" y="-256.26858087671894" type="line"/>
      <point x="716.8186474170261" y="-20.306408033229825" type="line"/>
      <point x="1005.7335564786064" y="11.920070976327782"/>
      <point x="1171.5059079727384" y="178.67028269548737"/>
      <point x="1171.5059079727384" y="406.0819453966206" type="curve" smooth="yes"/>
      <point x="1171.5059079727384" y="647.0524256966569"/>
      <point x="980.4476347945316" y="752.4111787716256"/>
      <point x="786.9870952131307" y="859.0754123482678" type="curve" smooth="yes"/>
      <point x="603.3145945074002" y="959.3580271807074"/>
      <point x="471.5302254304956" y="1043.8107029076098"/>
      <point x="471.5302254304956" y="1199.3505262733395" type="curve" smooth="yes"/>
      <point x="471.5302254304956" y="1329.4194862281727"/>
      <point x="550.0256885913618" y="1429.5618018308667"/>
      <point x="691.1529620518611" y="1429.5618018308667" type="curve" smooth="yes"/>
      <point x="759.6268500221801" y="1429.9106343509293"/>
      <point x="829.3774246884705" y="1408.7577932814452"/>
      <point x="877.2220429890713" y="1374.6281001734085" type="curve"/>
      <point x="921.7948945436949" y="1097.4267048433278" type="line"/>
      <point x="1073.8390934387223" y="1097.4267048433278" type="line"/>
      <point x="1090.6223333467756" y="1430.342541436464" type="line"/>
      <point x="1035.286607250877" y="1441.940516998024"/>
      <point x="870.5816832681372" y="1498.7651732064362"/>
      <point x="727.1079566076543" y="1503.0671452191798" type="curve"/>
      <point x="727.1079566076543" y="1729.6043069726177" type="line"/>
      <point x="612.5451869177723" y="1729.6043069726177" type="line"/>
      <point x="612.5451869177723" y="1502.1342904383594" type="line"/>
      <point x="344.63277815864825" y="1475.6080170988425"/>
      <point x="181.07379924990926" y="1329.5572045005442"/>
      <point x="181.07379924990926" y="1108.2928580070165" type="curve" smooth="yes"/>
      <point x="181.07379924990926" y="848.5605113521797"/>
      <point x="383.58132032100656" y="733.0401661491309"/>
      <point x="542.4252530548049" y="647.7999354760657" type="curve" smooth="yes"/>
      <point x="735.8208250998105" y="544.1764326329798"/>
      <point x="869.4630802113159" y="457.72081300157276"/>
      <point x="869.4630802113159" y="303.00245997499695" type="curve" smooth="yes"/>
      <point x="869.4630802113159" y="155.98544178731302"/>
      <point x="780.6293906520949" y="54.49324515062307"/>
      <point x="617.9445497439207" y="54.49324515062307" type="curve" smooth="yes"/>
      <point x="530.2709198693391" y="54.49324515062307"/>
      <point x="447.19441867967896" y="80.89954429971367"/>
      <point x="390.6932693470984" y="125.80816227769488" type="curve"/>
      <point x="341.97435173609705" y="426.70589184175503" type="line"/>
      <point x="186.1338065088519" y="426.70589184175503" type="line"/>
    </contour>
  </outline>
</glyph>
<glyph name="percent" format="2">
  <advance width="2001.3062467233942"/>
  <unicode hex="0025"/>
  <outline>
    <contour>
      <point x="619.9891922409969" y="0.0" type="line"/>
      <point x="736.8479251522363" y="0.0" type="line"/>
      <point x="1376.361979271686" y="1502.0" type="line"/>
      <point x="1259.444771544945" y="1501.7963463322176" type="line"/>
    </contour>
    <contour>
      <point x="463.5028834133162" y="630.6298342541436" type="curve" smooth="yes"/>
      <point x="684.0062910835989" y="630.6298342541436"/>
      <point x="871.6604831229585" y="783.6772190184297"/>
      <point x="871.6604831229585" y="1062.7048433278221" type="curve" smooth="yes"/>
      <point x="871.6604831229585" y="1298.82397064161"/>
      <point x="769.7504940113723" y="1486.9700366979878"/>
      <point x="499.07666249949597" y="1486.9700366979878" type="curve" smooth="yes"/>
      <point x="273.50610961003355" y="1486.9700366979878"/>
      <point x="91.83300399241843" y="1329.7324676372143"/>
      <point x="91.83300399241843" y="1050.704843327822" type="curve" smooth="yes"/>
      <point x="91.83300399241843" y="818.5262330120579"/>
      <point x="223.17703754486428" y="630.6298342541436"/>
    </contour>
    <contour>
      <point x="479.108198572408" y="700.8182441424365" type="curve" smooth="yes"/>
      <point x="369.2385369197886" y="700.8182441424365"/>
      <point x="320.9524135984191" y="838.5433721821189"/>
      <point x="320.9524135984191" y="1062.133443561721" type="curve" smooth="yes"/>
      <point x="320.9524135984191" y="1295.8983748034038"/>
      <point x="373.8288502641449" y="1417.4684034358993"/>
      <point x="487.07666249949597" y="1417.4684034358993" type="curve" smooth="yes"/>
      <point x="595.9524135984191" y="1417.4684034358993"/>
      <point x="643.8038472395856" y="1289.0746864540065"/>
      <point x="643.8038472395856" y="1054.704843327822" type="curve" smooth="yes"/>
      <point x="643.8038472395856" y="821.8357865870872"/>
      <point x="591.4790498850667" y="700.8182441424365"/>
    </contour>
    <contour>
      <point x="1500.5918861152559" y="27.938460297616647" type="curve" smooth="yes"/>
      <point x="1721.483687542848" y="27.938460297616647"/>
      <point x="1909.4732427309755" y="181.17602935839014"/>
      <point x="1909.4732427309755" y="460.20365366778236" type="curve" smooth="yes"/>
      <point x="1909.4732427309755" y="695.9874178328024"/>
      <point x="1807.037706174134" y="884.4688470379482"/>
      <point x="1536.3558494979234" y="884.4688470379482" type="curve" smooth="yes"/>
      <point x="1310.595112311973" y="884.4688470379482"/>
      <point x="1128.9220066943583" y="727.2312779771747"/>
      <point x="1128.9220066943583" y="448.2036536677824" type="curve" smooth="yes"/>
      <point x="1128.9220066943583" y="221.55095374440455"/>
      <point x="1260.311045691011" y="27.938460297616647"/>
    </contour>
    <contour>
      <point x="1515.8618381255797" y="98.50723877888456" type="curve" smooth="yes"/>
      <point x="1406.3275396217284" y="98.50723877888456"/>
      <point x="1357.706053151591" y="236.0421825220793"/>
      <point x="1357.706053151591" y="459.9676170504497" type="curve" smooth="yes"/>
      <point x="1357.706053151591" y="693.397185143364"/>
      <point x="1410.772674113804" y="814.9672137758599"/>
      <point x="1524.3558494979231" y="814.9672137758599" type="curve" smooth="yes"/>
      <point x="1632.8512320038715" y="814.9672137758599"/>
      <point x="1680.8928499415251" y="686.2381336451989"/>
      <point x="1680.8928499415251" y="452.2036536677824" type="curve" smooth="yes"/>
      <point x="1681.0830342380127" y="219.7149655200226"/>
      <point x="1628.2326894382386" y="98.50723877888456"/>
    </contour>
  </outline>
</glyph>
<glyph name="ampersand" format="2">
  <advance width="1510.894180747671"/>
  <unicode hex="0026"/>
  <outline>
    <contour>
      <point x="1484.155704319071" y="814.8814775980966" type="line"/>
      <point x="1051.367060531516" y="814.8814775980966" type="line"/>
      <point x="1051.367060531516" y="743.6630237528733" type="line"/>
      <point x="1186.606323345566" y="711.251401379199" type="line"/>
      <point x="1190.4648546195106" y="586.2875347824333"/>
      <point x="1174.6408436504416" y="422.7487196031778"/>
      <point x="1090.3991208613945" y="330.1835302657579" type="curve"/>
      <point x="984.7827559785457" y="436.23785135298624"/>
      <point x="863.1509860063717" y="585.4352139371699"/>
      <point x="714.2003064886882" y="789.0018550631125" type="curve"/>
      <point x="916.058111868371" y="891.4296084203735"/>
      <point x="1063.0075815622856" y="1004.4361011412673"/>
      <point x="1063.0075815622856" y="1207.7474694519499" type="curve" smooth="yes"/>
      <point x="1063.0075815622856" y="1375.3361293704884"/>
      <point x="931.6840343589951" y="1504.7237569060774"/>
      <point x="680.3192321651811" y="1504.7237569060774" type="curve" smooth="yes"/>
      <point x="385.3169335000202" y="1504.7237569060774"/>
      <point x="227.96394725168366" y="1337.4015001814735"/>
      <point x="227.96394725168366" y="1139.673186272533" type="curve" smooth="yes"/>
      <point x="227.96394725168366" y="992.0018147356535"/>
      <point x="308.90039117635195" y="862.0545630519821"/>
      <point x="419.8229221276767" y="714.6615316368916" type="curve"/>
      <point x="211.92983022139774" y="648.0288341331612"/>
      <point x="75.1912731378796" y="519.5535750292374"/>
      <point x="75.1912731378796" y="347.7603742388192" type="curve" smooth="yes"/>
      <point x="75.1912731378796" y="129.9208775255071"/>
      <point x="253.3030608541356" y="-20.34254143646409"/>
      <point x="579.8865588579264" y="-20.34254143646409" type="curve" smooth="yes"/>
      <point x="734.4224301326772" y="-20.34254143646409"/>
      <point x="860.0929144654596" y="23.935516393112074"/>
      <point x="944.4219058757109" y="99.05835383312495" type="curve"/>
      <point x="1035.0297213372585" y="23.007500907367827"/>
      <point x="1153.5086099124892" y="-13.841351776424569"/>
      <point x="1261.7038351413473" y="-13.841351776424569" type="curve" smooth="yes"/>
      <point x="1326.9693511311852" y="-13.841351776424569"/>
      <point x="1425.4176311650604" y="-0.7266201556639915"/>
      <point x="1445.1375972899948" y="15.408839779005525" type="curve"/>
      <point x="1445.1375972899948" y="76.44440859781425" type="line"/>
      <point x="1356.791345727306" y="86.88813162882607"/>
      <point x="1209.7959430576282" y="215.17796507642052"/>
      <point x="1144.7814251723998" y="283.0642819695931" type="curve"/>
      <point x="1252.8125982981812" y="359.9997580352462"/>
      <point x="1354.2575714804211" y="538.4024277130297"/>
      <point x="1354.8238496592328" y="711.251401379199" type="curve"/>
      <point x="1484.155704319071" y="743.6630237528733" type="line"/>
    </contour>
    <contour>
      <point x="502.6827035528491" y="1206.894180747671" type="curve" smooth="yes"/>
      <point x="502.6827035528491" y="1352.940476670565"/>
      <point x="558.9629793926684" y="1437.508932532161"/>
      <point x="668.9297898939388" y="1437.508932532161" type="curve" smooth="yes"/>
      <point x="783.106988748639" y="1437.508932532161"/>
      <point x="827.2852361172722" y="1326.3115296205185"/>
      <point x="827.2852361172722" y="1204.7775134088802" type="curve" smooth="yes"/>
      <point x="827.2852361172722" y="1050.4578779691092"/>
      <point x="786.0969068838974" y="928.617211759487"/>
      <point x="672.5817639230553" y="837.6031374763077" type="curve"/>
      <point x="583.6950840827519" y="950.5137314997781"/>
      <point x="502.6827035528491" y="1079.3991611888537"/>
    </contour>
    <contour>
      <point x="674.6839940315359" y="91.83356857684399" type="curve" smooth="yes"/>
      <point x="468.1446949227729" y="93.46279791910312"/>
      <point x="344.6793160462959" y="223.67588821228375"/>
      <point x="344.6793160462959" y="400.30890833568577" type="curve" smooth="yes"/>
      <point x="344.6793160462959" y="511.0462555954349"/>
      <point x="389.06367705770856" y="606.2147840464572"/>
      <point x="459.5028027583983" y="659.7790458523209" type="curve"/>
      <point x="604.2340202443845" y="462.4709843932734"/>
      <point x="756.8196556035005" y="273.27523490744846"/>
      <point x="890.7197644876396" y="146.3598822438198" type="curve"/>
      <point x="835.5378876476993" y="109.53917812638626"/>
      <point x="750.6347945315965" y="91.0189539057144"/>
    </contour>
  </outline>
</glyph>
<glyph name="quotesingle" format="2">
  <advance width="651.8426019276525"/>
  <unicode hex="0027"/>
  <outline>
    <contour>
      <point x="445.53804895753524" y="1671.5027624309391" type="line"/>
      <point x="206.30455297011736" y="1671.5027624309391" type="line"/>
      <point x="285.51175545428885" y="946.9006331411058" type="line"/>
      <point x="364.3308464733637" y="946.9006331411058" type="line"/>
    </contour>
  </outline>
</glyph>
<glyph name="parenleft" format="2">
  <advance width="845.2817276283422"/>
  <unicode hex="0028"/>
  <outline>
    <contour>
      <point x="101.83239908053392" y="668.0" type="curve" smooth="yes"/>
      <point x="101.83239908053392" y="-30.54401742146228"/>
      <point x="557.2305924103722" y="-320.8933338710328"/>
      <point x="663.2092591845789" y="-377.02762430939225" type="curve"/>
      <point x="720.1006170101222" y="-333.50409323708516" type="line"/>
      <point x="600.0891236843166" y="-243.98991813525834"/>
      <point x="356.6209622131709" y="84.05230471427994"/>
      <point x="371.5349034157358" y="697.4861878453039" type="curve"/>
      <point x="384.23974674355765" y="1259.0139936282615"/>
      <point x="611.3851675605921" y="1547.0498850667418"/>
      <point x="719.3381860708957" y="1622.3927894503365" type="curve"/>
      <point x="665.3435496229382" y="1665.0276243093922" type="line"/>
      <point x="543.3648828487318" y="1595.9758035246198"/>
      <point x="101.83239908053392" y="1266.9639069242246"/>
    </contour>
  </outline>
</glyph>
<glyph name="parenright" format="2">
  <advance width="845.2817276283422"/>
  <unicode hex="0029"/>
  <outline>
    <contour>
      <point x="743.4493285478081" y="620.5255474452555" type="curve" smooth="yes"/>
      <point x="743.4493285478081" y="1319.0695648667177"/>
      <point x="288.05113521796994" y="1609.418881316288"/>
      <point x="182.07246844376334" y="1665.5531717546476" type="curve"/>
      <point x="125.18111061821992" y="1622.0296406823404" type="line"/>
      <point x="245.19260394402548" y="1532.5154655805138"/>
      <point x="488.6607654151712" y="1204.4732427309755"/>
      <point x="473.93700850909386" y="591.0393595999516" type="curve"/>
      <point x="461.2321651812719" y="29.511553816993995"/>
      <point x="233.89656006775016" y="-258.52433762148644"/>
      <point x="125.94354155744645" y="-333.86724200508127" type="curve"/>
      <point x="179.93817800540387" y="-376.50207686413677" type="line"/>
      <point x="301.91684477961047" y="-307.4502560793644"/>
      <point x="743.4493285478081" y="21.561640521030768"/>
    </contour>
  </outline>
</glyph>
<glyph name="asterisk" format="2">
  <advance width="1022.6389079324113"/>
  <unicode hex="002A"/>
  <outline>
    <contour>
      <point x="258.47848530064124" y="1170.9712061942978" type="line"/>
      <point x="85.4619510424648" y="1089.3325805540992" type="line"/>
      <point x="176.59067629148686" y="933.4162600314554" type="line"/>
      <point x="332.7580755736581" y="1047.5290962616446" type="line"/>
      <point x="487.3326612090172" y="1196.56244707021" type="line"/>
      <point x="442.39859660442795" y="987.4538048957535" type="line"/>
      <point x="426.26059603984345" y="795.1822397870709" type="line"/>
      <point x="608.3963785941847" y="795.3274186393515" type="line"/>
      <point x="587.035165544219" y="989.2581763923056" type="line"/>
      <point x="534.4588055006653" y="1195.9918941807477" type="line"/>
      <point x="695.3094325926522" y="1052.3286687905795" type="line"/>
      <point x="850.2094608218737" y="942.2743073758922" type="line"/>
      <point x="942.0989232568456" y="1100.002459974997" type="line"/>
      <point x="765.6664112594266" y="1178.1772391821592" type="line"/>
      <point x="558.0403677864257" y="1236.9817316610881" type="line"/>
      <point x="764.3956123724645" y="1302.223494777594" type="line"/>
      <point x="936.696414888898" y="1383.9071258619995" type="line"/>
      <point x="845.522684195669" y="1539.4880832358754" type="line"/>
      <point x="688.449368875267" y="1425.5654313021737" type="line"/>
      <point x="534.255151832883" y="1277.247812235351" type="line"/>
      <point x="579.5245795862404" y="1485.7859015203453" type="line"/>
      <point x="596.1881275960801" y="1677.3867403314916" type="line"/>
      <point x="413.52679759648345" y="1677.3867403314916" type="line"/>
      <point x="434.7428317941687" y="1482.8854296890752" type="line"/>
      <point x="487.2741863935153" y="1276.1517119006332" type="line"/>
      <point x="327.5646650804533" y="1420.1953058837762" type="line"/>
      <point x="170.80779933056417" y="1530.439851594951" type="line"/>
      <point x="80.5399846755656" y="1374.3333467758196" type="line"/>
      <point x="257.2076864136791" y="1295.678025567609" type="line"/>
      <point x="463.6926241077549" y="1236.4481590514981" type="line"/>
    </contour>
  </outline>
</glyph>
<glyph name="plus" format="2">
  <advance width="1240.7043190708553"/>
  <unicode hex="002B"/>
  <outline>
    <contour>
      <point x="341.59051498165104" y="640.5769649554381" type="line"/>
      <point x="160.83211678832117" y="640.5769649554381" type="line"/>
      <point x="160.83211678832117" y="527.4198088478446" type="line"/>
      <point x="341.59051498165104" y="527.4198088478446" type="line"/>
      <point x="565.0767028269549" y="529.3768197765859" type="line"/>
      <point x="563.5000604911885" y="339.8009436625398" type="line"/>
      <point x="563.5000604911885" y="112.56893979110376" type="line"/>
      <point x="676.2768480058071" y="112.56893979110376" type="line"/>
      <point x="676.2768480058071" y="339.8009436625398" type="line"/>
      <point x="673.9844739282978" y="529.3768197765859" type="line"/>
      <point x="869.4041617937654" y="527.4198088478446" type="line"/>
      <point x="1079.872202282534" y="527.4198088478446" type="line"/>
      <point x="1079.872202282534" y="640.5769649554381" type="line"/>
      <point x="869.4041617937654" y="640.5769649554381" type="line"/>
      <point x="673.9844739282978" y="637.5688591361859" type="line"/>
      <point x="676.2768480058071" y="833.7132717667461" type="line"/>
      <point x="676.2768480058071" y="1055.5689397911037" type="line"/>
      <point x="563.5000604911885" y="1055.5689397911037" type="line"/>
      <point x="563.5000604911885" y="833.7132717667461" type="line"/>
      <point x="565.0767028269549" y="637.5688591361859" type="line"/>
    </contour>
  </outline>
</glyph>
<glyph name="comma" format="2">
  <advance width="555.7393233052386"/>
  <unicode hex="002C"/>
  <outline>
    <contour>
      <point x="272.4238819212001" y="303.2793079808041" type="curve"/>
      <point x="262.46973424204543" y="303.2793079808041" type="line" smooth="yes"/>
      <point x="182.94846150744047" y="303.2793079808041"/>
      <point x="129.41476791547367" y="254.18732104690082"/>
      <point x="129.41476791547367" y="175.18703875468807" type="curve" smooth="yes"/>
      <point x="129.41476791547367" y="41.912287776747185"/>
      <point x="271.70375448642983" y="43.38645803927895"/>
      <point x="271.70375448642983" y="-64.08416340686372" type="curve" smooth="yes"/>
      <point x="271.70375448642983" y="-181.46687099245875"/>
      <point x="210.98963584304553" y="-305.9907650118966"/>
      <point x="134.97039964511836" y="-378.8201798604669" type="curve"/>
      <point x="134.97039964511836" y="-392.3006815340565" type="line"/>
      <point x="180.40508932532163" y="-422.64068234060574" type="line"/>
      <point x="182.20143565753924" y="-422.10710973101584" type="line"/>
      <point x="309.7189176110014" y="-352.34701778440933"/>
      <point x="441.5863209259184" y="-156.14392870105254"/>
      <point x="441.5863209259184" y="62.490220591200554" type="curve" smooth="yes"/>
      <point x="441.5863209259184" y="203.45678912771706"/>
      <point x="366.47711416703635" y="303.2793079808041"/>
    </contour>
  </outline>
</glyph>
<glyph name="period" format="2">
  <advance width="488.219905633746"/>
  <unicode hex="002E"/>
  <outline>
    <contour>
      <point x="229.99399120861398" y="-17.65745856353591" type="curve" smooth="yes"/>
      <point x="327.09364035972095" y="-17.65745856353591"/>
      <point x="397.61709077711015" y="39.78965197402912"/>
      <point x="397.61709077711015" y="136.17812638625642" type="curve" smooth="yes"/>
      <point x="397.61709077711015" y="207.93454853409688"/>
      <point x="348.2907609791507" y="275.89462434971966"/>
      <point x="255.34980037907812" y="275.89462434971966" type="curve" smooth="yes"/>
      <point x="165.28406662096222" y="275.89462434971966"/>
      <point x="90.79299915312338" y="212.63854498528048"/>
      <point x="90.79299915312338" y="121.86885510343993" type="curve" smooth="yes"/>
      <point x="90.79299915312338" y="39.60579908859943"/>
      <point x="156.2375690607735" y="-17.65745856353591"/>
    </contour>
  </outline>
</glyph>
<glyph name="slash" format="2">
  <advance width="709.8896237448077"/>
  <unicode hex="002F"/>
  <outline>
    <contour>
      <point x="662.052143404444" y="1562.0" type="line"/>
      <point x="540.7392023228616" y="1562.0" type="line"/>
      <point x="47.837480340363754" y="-354.0" type="line"/>
      <point x="170.59793523410087" y="-354.0" type="line"/>
    </contour>
  </outline>
</glyph>
<glyph name="zero" format="2">
  <advance width="1296.6920191958704"/>
  <unicode hex="0030"/>
  <outline>
    <contour>
      <point x="624.5409525345807" y="-20.171270718232044" type="curve" smooth="yes"/>
      <point x="1000.4411824010969" y="-20.171270718232044"/>
      <point x="1222.6825825704723" y="261.3684316651208"/>
      <point x="1223.2350687583173" y="772.8454651772391" type="curve" smooth="yes"/>
      <point x="1223.7875549461626" y="1246.2277291607857"/>
      <point x="1034.3246763721418" y="1504.7237569060774"/>
      <point x="674.5511957091584" y="1504.7237569060774" type="curve" smooth="yes"/>
      <point x="316.5437754567085" y="1504.7237569060774"/>
      <point x="74.73319353147559" y="1232.7467435576884"/>
      <point x="73.45695043755292" y="717.440980763802" type="curve" smooth="yes"/>
      <point x="72.18070734363029" y="254.00366979876594"/>
      <point x="259.5912408759124" y="-20.171270718232044"/>
    </contour>
    <contour>
      <point x="649.6885510343993" y="52.20760575876113" type="curve" smooth="yes"/>
      <point x="489.70165745856355" y="52.20760575876113"/>
      <point x="407.98076380207283" y="250.04988506674192"/>
      <point x="407.98076380207283" y="739.2716054361415" type="curve" smooth="yes"/>
      <point x="407.98076380207283" y="1255.744969149494"/>
      <point x="493.05819252328916" y="1430.0573859741096"/>
      <point x="649.1936524579587" y="1430.0573859741096" type="curve" smooth="yes"/>
      <point x="807.2003064886882" y="1430.0573859741096"/>
      <point x="888.4934871153769" y="1268.9388635722062"/>
      <point x="888.4934871153769" y="737.643827882405" type="curve" smooth="yes"/>
      <point x="888.4934871153769" y="250.95818042505144"/>
      <point x="822.4523531072307" y="52.20760575876113"/>
    </contour>
  </outline>
</glyph>
<glyph name="one" format="2">
  <advance width="887.5329273702464"/>
  <unicode hex="0031"/>
  <outline>
    <contour>
      <point x="318.3689155946284" y="88.37415816429407" type="line"/>
      <point x="90.49409202726136" y="58.57394039601565" type="line"/>
      <point x="90.49409202726136" y="0.0" type="line"/>
      <point x="852.4080735572853" y="0.0" type="line"/>
      <point x="852.4080735572853" y="58.57394039601565" type="line"/>
      <point x="631.9601967979997" y="88.75452675726902" type="line"/>
      <point x="631.9601967979997" y="1485.4475138121547" type="line"/>
      <point x="471.88788966407236" y="1505.4475138121547" type="line"/>
      <point x="462.41787312981415" y="1505.4475138121547" type="line"/>
      <point x="380.5230471427995" y="1413.700770254466"/>
      <point x="222.3042706779046" y="1304.864056135823"/>
      <point x="41.69653587127475" y="1269.5283300399242" type="curve"/>
      <point x="56.55603500423439" y="1194.9883050368994" type="line"/>
      <point x="141.95313949268058" y="1201.22833407267"/>
      <point x="268.88002580957374" y="1229.2009517280314"/>
      <point x="317.8842198653063" y="1248.0487962253499" type="curve"/>
    </contour>
  </outline>
</glyph>
<glyph name="two" format="2">
  <advance width="1148.7940476670567"/>
  <unicode hex="0032"/>
  <outline>
    <contour>
      <point x="8.782191394120256" y="118.17385167560592" type="curve"/>
      <point x="59.44711053756504" y="0.0" type="line"/>
      <point x="1020.4912691051336" y="0.0" type="line"/>
      <point x="1096.6979473323388" y="392.2698713554059" type="line"/>
      <point x="1016.4748558293343" y="413.9475743033432" type="line"/>
      <point x="930.5195789813283" y="258.2319635439771" type="line"/>
      <point x="223.240553292737" y="176.11654635641412" type="line"/>
      <point x="628.8939791103761" y="396.550469814897"/>
      <point x="1005.6792757188372" y="740.3428640561358"/>
      <point x="1005.6792757188372" y="1091.4910271403799" type="curve" smooth="yes"/>
      <point x="1005.6792757188372" y="1354.3869419687867"/>
      <point x="796.5593015284106" y="1503.4475138121547"/>
      <point x="547.7718272371658" y="1503.4475138121547" type="curve" smooth="yes"/>
      <point x="290.57458563535914" y="1503.4475138121547"/>
      <point x="129.31846594346092" y="1357.1367504133564"/>
      <point x="42.58059442674517" y="1234.8513933137071" type="curve"/>
      <point x="94.94854216235836" y="1173.4823164092431" type="line"/>
      <point x="182.22756785094975" y="1269.647699318466"/>
      <point x="305.47481550187524" y="1339.8302617252086"/>
      <point x="435.17683590756945" y="1339.8302617252086" type="curve" smooth="yes"/>
      <point x="586.5626487075049" y="1339.8302617252086"/>
      <point x="677.5418800661371" y="1232.8359478969232"/>
      <point x="677.5418800661371" y="1030.469129330161" type="curve" smooth="yes"/>
      <point x="677.5418800661371" y="692.116627011332"/>
      <point x="364.46227366213657" y="320.63015687381534"/>
    </contour>
  </outline>
</glyph>
<glyph name="three" format="2">
  <advance width="1080.441263056015"/>
  <unicode hex="0033"/>
  <outline>
    <contour>
      <point x="326.9405976529419" y="-30.03613340323426" type="curve" smooth="yes"/>
      <point x="691.9812880590396" y="-31.25805540992862"/>
      <point x="1010.9387425898295" y="153.28644594104128"/>
      <point x="1010.4582005887809" y="452.5676493124169" type="curve" smooth="yes"/>
      <point x="1010.1228374400129" y="691.8354639674154"/>
      <point x="785.4355768843005" y="827.4438440133887"/>
      <point x="467.12170827116194" y="765.8453038674032" type="curve"/>
      <point x="709.7755776908498" y="830.1514296084202"/>
      <point x="931.2795499455578" y="973.7758196556036"/>
      <point x="931.2795499455578" y="1199.448199378957" type="curve" smooth="yes"/>
      <point x="931.2795499455578" y="1407.657458563536"/>
      <point x="736.8974472718475" y="1503.2573295156672"/>
      <point x="517.3177400491995" y="1503.2573295156672" type="curve" smooth="yes"/>
      <point x="312.8788966407227" y="1503.2573295156672"/>
      <point x="138.6046295922894" y="1413.3598015889017"/>
      <point x="34.390773077388396" y="1311.4569504375527" type="curve"/>
      <point x="82.44860265354681" y="1242.3646005565188" type="line"/>
      <point x="161.44017421462271" y="1302.1782473686333"/>
      <point x="257.74283179416864" y="1356.9358390127836"/>
      <point x="391.5262733395168" y="1357.3431463483485" type="curve" smooth="yes"/>
      <point x="503.5744646529822" y="1357.9541073516957"/>
      <point x="606.4809049481792" y="1300.0956567326693"/>
      <point x="606.3357260958986" y="1149.490906158003" type="curve" smooth="yes"/>
      <point x="606.1905472436182" y="1006.7646489494697"/>
      <point x="510.7856998830504" y="888.0952937855386"/>
      <point x="367.5814816308424" y="827.134935677703" type="curve" smooth="yes"/>
      <point x="325.06654030729527" y="808.6363269750374"/>
      <point x="267.1682864862685" y="788.547888857523"/>
      <point x="220.91632052264387" y="777.9234584828811" type="curve"/>
      <point x="239.3829898778078" y="690.4742912449086" type="line"/>
      <point x="270.274589668105" y="698.7309755212324"/>
      <point x="340.59168447796105" y="720.6443924668307"/>
      <point x="376.05182078477236" y="730.1773198370771" type="curve"/>
      <point x="573.4922772916078" y="736.5251038432067"/>
      <point x="670.6223333467758" y="612.7906198330444"/>
      <point x="670.8259870145581" y="442.8674436423761" type="curve" smooth="yes"/>
      <point x="671.2332943501228" y="231.57825543412514"/>
      <point x="525.1022704359398" y="71.85252248255837"/>
      <point x="264.9225712787837" y="72.87079082147034" type="curve" smooth="yes"/>
      <point x="191.10896479412833" y="73.07444448925273"/>
      <point x="117.89349518086864" y="82.18272371657862"/>
      <point x="49.472678146549995" y="107.87704157761019" type="curve"/>
      <point x="42.00266161229182" y="20.777231116667334" type="line"/>
      <point x="98.04524740896079" y="-5.171190063314111"/>
      <point x="219.37948138887765" y="-29.832479735451876"/>
    </contour>
  </outline>
</glyph>
<glyph name="four" format="2">
  <advance width="1227.659313626648"/>
  <unicode hex="0034"/>
  <outline>
    <contour>
      <point x="701.717949751986" y="0.0" type="line"/>
      <point x="989.9758035246199" y="0.0" type="line"/>
      <point x="989.9758035246199" y="299.19373311287654" type="line"/>
      <point x="1189.7872323264912" y="299.19373311287654" type="line"/>
      <point x="1189.5835786587088" y="463.2774529176917" type="line"/>
      <point x="989.2385772472476" y="450.80078235270395" type="line"/>
      <point x="989.44223091503" y="860.3658910352059" type="line"/>
      <point x="721.296366495947" y="835.4861878453039" type="line"/>
      <point x="702.9618098963587" y="424.1869177723112" type="line"/>
      <point x="235.42166391095702" y="383.05153849255953" type="line"/>
      <point x="366.8482074444489" y="565.6710085897488" type="line"/>
      <point x="852.6736298745816" y="1369.986490301246" type="line"/>
      <point x="617.6372545065935" y="1496.8563535911603" type="line"/>
      <point x="526.6696777836029" y="1496.8563535911603" type="line"/>
      <point x="402.2422470460136" y="1193.3386700004035"/>
      <point x="206.28313908940598" y="749.636649594709"/>
      <point x="35.734645319998386" y="428.87938057023024" type="curve"/>
      <point x="100.27043593983144" y="299.19373311287654" type="line"/>
      <point x="701.717949751986" y="299.19373311287654" type="line"/>
    </contour>
  </outline>
</glyph>
<glyph name="five" format="2">
  <advance width="1090.624309392265"/>
  <unicode hex="0035"/>
  <outline>
    <contour>
      <point x="68.11602209944752" y="63.19889502762431" type="curve"/>
      <point x="69.39226519337015" y="1.4751381215469621" type="line"/>
      <point x="140.44751381215468" y="-26.171270718232044"/>
      <point x="268.61325966850825" y="-33.96132596685083"/>
      <point x="336.56353591160223" y="-31.790055248618785" type="curve" smooth="yes"/>
      <point x="720.4751381215469" y="-22.38121546961326"/>
      <point x="1023.0994475138123" y="215.75690607734805"/>
      <point x="1023.0994475138123" y="547.3425414364641" type="curve" smooth="yes"/>
      <point x="1023.0994475138123" y="795.0441988950276"/>
      <point x="871.6353591160222" y="933.6187845303867"/>
      <point x="611.4143646408841" y="933.6187845303867" type="curve" smooth="yes"/>
      <point x="439.1878453038674" y="933.6187845303867"/>
      <point x="247.06629834254147" y="849.0773480662983"/>
      <point x="143.51381215469613" y="738.9447513812155" type="curve"/>
      <point x="284.27624309392263" y="1235.0939226519338" type="line"/>
      <point x="942.2154696132596" y="1235.0939226519338" type="line"/>
      <point x="982.7955801104972" y="1522.6187845303868" type="line"/>
      <point x="898.9668508287293" y="1522.6187845303868" type="line"/>
      <point x="873.1767955801106" y="1485.7237569060774" type="line"/>
      <point x="171.86740331491714" y="1485.7237569060774" type="line"/>
      <point x="73.35359116022101" y="739.4972375690608" type="line"/>
      <point x="140.5524861878453" y="697.2596685082873" type="line"/>
      <point x="228.0" y="751.2209944751381"/>
      <point x="329.6574585635359" y="773.9281767955802"/>
      <point x="439.60220994475134" y="773.9281767955802" type="curve" smooth="yes"/>
      <point x="615.3093922651934" y="773.9281767955802"/>
      <point x="702.0055248618784" y="637.243093922652"/>
      <point x="702.0055248618784" y="476.81215469613255" type="curve" smooth="yes"/>
      <point x="702.0055248618784" y="214.00000000000003"/>
      <point x="516.9999999999999" y="55.92265193370166"/>
      <point x="270.0331491712707" y="49.408839779005525" type="curve" smooth="yes"/>
      <point x="190.95027624309392" y="46.51381215469613"/>
      <point x="119.38121546961327" y="52.408839779005525"/>
    </contour>
  </outline>
</glyph>
<glyph name="six" format="2">
  <advance width="1242.7706174133968"/>
  <unicode hex="0036"/>
  <outline>
    <contour>
      <point x="623.3904101302577" y="-32.32362785820865" type="curve" smooth="yes"/>
      <point x="946.7959833850869" y="-32.52728152599104"/>
      <point x="1175.1331209420493" y="176.4226720974311"/>
      <point x="1175.1331209420493" y="507.4759849981853" type="curve" smooth="yes"/>
      <point x="1175.1331209420493" y="801.9662862443038"/>
      <point x="995.6235431705448" y="954.7388797031899"/>
      <point x="764.3069322901964" y="954.7388797031899" type="curve" smooth="yes"/>
      <point x="627.0764205347419" y="954.7388797031899"/>
      <point x="498.7300883171352" y="893.5519619308787"/>
      <point x="419.98987780779936" y="776.2659192644272" type="curve"/>
      <point x="465.61539702383357" y="1064.0433923458481"/>
      <point x="611.8978102189782" y="1366.1111021494535"/>
      <point x="968.2131306206395" y="1462.6083397185141" type="curve"/>
      <point x="932.3376214864701" y="1533.144291648183" type="line"/>
      <point x="453.454409807638" y="1488.2721700205668"/>
      <point x="79.08186474170263" y="1077.7866677420657"/>
      <point x="79.08186474170263" y="595.478686937936" type="curve" smooth="yes"/>
      <point x="79.08186474170263" y="245.30378674839704"/>
      <point x="266.9777392426503" y="-32.11997419042626"/>
    </contour>
    <contour>
      <point x="639.572367625116" y="817.6697181110619" type="curve" smooth="yes"/>
      <point x="790.8272774932452" y="817.4660644432795"/>
      <point x="851.0543614146873" y="647.1998628866394"/>
      <point x="851.0543614146873" y="430.2009517280316" type="curve" smooth="yes"/>
      <point x="851.0543614146873" y="217.93152397467438"/>
      <point x="788.2822518853087" y="43.540750897285974"/>
      <point x="629.5211114247692" y="43.540750897285974" type="curve" smooth="yes"/>
      <point x="469.4571117473888" y="43.540750897285974"/>
      <point x="404.8010243174577" y="238.7056095495423"/>
      <point x="404.8010243174577" y="526.6573375811591" type="curve" smooth="yes"/>
      <point x="404.8010243174577" y="602.7017381134814"/>
      <point x="408.04488446183007" y="662.0532322458362"/>
      <point x="411.49239827398475" y="699.0241158204622" type="curve"/>
      <point x="450.9152316812518" y="749.6385853127395"/>
      <point x="533.4098479654798" y="817.8733717788442"/>
    </contour>
  </outline>
</glyph>
<glyph name="seven" format="2">
  <advance width="1121.3735129249505"/>
  <unicode hex="0037"/>
  <outline>
    <contour>
      <point x="622.4111787716256" y="-0.5524861878453038" type="line"/>
      <point x="1096.7819091019073" y="1432.1790942452715" type="line"/>
      <point x="1049.833528249385" y="1486.0" type="line"/>
      <point x="107.03322982618865" y="1486.0" type="line"/>
      <point x="49.96418921643748" y="1036.828446989555" type="line"/>
      <point x="141.96120498447394" y="1018.1284429568093" type="line"/>
      <point x="229.7196435052627" y="1247.366939549139" type="line"/>
      <point x="932.1381215469613" y="1251.6869782634997" type="line"/>
      <point x="737.0402064765898" y="865.586966165262"/>
      <point x="526.6762914868734" y="451.2305924103722"/>
      <point x="273.4078315925314" y="0.0" type="curve"/>
    </contour>
  </outline>
</glyph>
<glyph name="eight" format="2">
  <advance width="1242.8159454772754"/>
  <unicode hex="0038"/>
  <outline>
    <contour>
      <point x="72.14860668629271" y="355.3372988667984" type="curve" smooth="yes"/>
      <point x="72.14860668629271" y="98.55075210710974"/>
      <point x="322.03847239585434" y="-20.895027624309392"/>
      <point x="611.0890430293987" y="-20.895027624309392" type="curve" smooth="yes"/>
      <point x="924.7407750937613" y="-20.895027624309392"/>
      <point x="1170.6673387909827" y="138.1235633342743"/>
      <point x="1170.6673387909827" y="408.2374884058555" type="curve" smooth="yes"/>
      <point x="1170.6673387909827" y="621.9047465419202"/>
      <point x="1012.850707746905" y="724.7782796306005"/>
      <point x="798.0100012098237" y="834.6461668750253" type="curve"/>
      <point x="990.8515142960844" y="904.1481630842441"/>
      <point x="1103.2497882808407" y="1025.1678832116788"/>
      <point x="1103.2497882808407" y="1180.8555873694397" type="curve" smooth="yes"/>
      <point x="1103.2497882808407" y="1385.9132959632211"/>
      <point x="914.9601161430819" y="1505.4475138121547"/>
      <point x="644.6572165987823" y="1505.4475138121547" type="curve" smooth="yes"/>
      <point x="377.2647900955761" y="1505.4475138121547"/>
      <point x="137.3935959995161" y="1369.5843448804292"/>
      <point x="137.3935959995161" y="1110.0367786425777" type="curve" smooth="yes"/>
      <point x="137.3935959995161" y="947.3560511352179"/>
      <point x="245.21095293785535" y="804.2839859660442"/>
      <point x="406.843206839537" y="710.2504335201838" type="curve"/>
      <point x="199.10440779126503" y="652.5550268177602"/>
      <point x="72.14860668629271" y="514.9324111787718"/>
    </contour>
    <contour>
      <point x="403.8230027825947" y="1208.1036415695446" type="curve" smooth="yes"/>
      <point x="403.8230027825947" y="1352.431060208896"/>
      <point x="507.9883453643585" y="1434.149534217849"/>
      <point x="639.9545509537444" y="1434.149534217849" type="curve" smooth="yes"/>
      <point x="798.2157519054724" y="1434.149534217849"/>
      <point x="872.9678186877446" y="1315.4969149493888"/>
      <point x="872.9678186877446" y="1160.216114852603" type="curve" smooth="yes"/>
      <point x="872.9678186877446" y="1040.7153687946122"/>
      <point x="822.5761987337178" y="926.6933500020162"/>
      <point x="732.3630681130783" y="868.7124248901076" type="curve"/>
      <point x="552.2841876033391" y="962.0137113360488"/>
      <point x="403.8230027825947" y="1038.7240391982903"/>
    </contour>
    <contour>
      <point x="878.1159414445297" y="291.6873815380893" type="curve" smooth="yes"/>
      <point x="878.1159414445297" y="142.09432592652337"/>
      <point x="760.0326652417632" y="52.84465862805983"/>
      <point x="620.7623906117676" y="52.84465862805983" type="curve" smooth="yes"/>
      <point x="434.33149171270725" y="52.84465862805983"/>
      <point x="321.85574867927573" y="199.60321813122556"/>
      <point x="321.85574867927573" y="390.4480380691213" type="curve" smooth="yes"/>
      <point x="321.85574867927573" y="523.2021212243418"/>
      <point x="377.65201435657536" y="620.9247086341089"/>
      <point x="472.1561882485785" y="674.0498850667418" type="curve"/>
      <point x="689.6293099971771" y="568.4047667056498"/>
      <point x="878.1159414445297" y="483.7505343388313"/>
    </contour>
  </outline>
</glyph>
<glyph name="nine" format="2">
  <advance width="1250.9558011049724"/>
  <unicode hex="0039"/>
  <outline>
    <contour>
      <point x="623.9116022099447" y="1505.4475138121547" type="curve" smooth="yes"/>
      <point x="315.16022099447514" y="1504.7237569060774"/>
      <point x="66.11602209944752" y="1317.817679558011"/>
      <point x="66.11602209944752" y="969.5138121546961" type="curve" smooth="yes"/>
      <point x="66.11602209944752" y="653.8397790055249"/>
      <point x="280.353591160221" y="499.27624309392263"/>
      <point x="489.94475138121544" y="499.27624309392263" type="curve" smooth="yes"/>
      <point x="626.9060773480662" y="499.27624309392263"/>
      <point x="765.7348066298343" y="559.4475138121547"/>
      <point x="830.1657458563535" y="704.1436464088399" type="curve"/>
      <point x="794.8508287292817" y="420.5690607734807"/>
      <point x="655.5524861878451" y="109.14364640883977"/>
      <point x="289.4861878453039" y="6.1325966850828735" type="curve"/>
      <point x="315.9337016574585" y="-49.657458563535904" type="line"/>
      <point x="815.2154696132598" y="-7.215469613259671"/>
      <point x="1177.7348066298346" y="402.4972375690607"/>
      <point x="1177.7348066298346" y="866.8011049723757" type="curve" smooth="yes"/>
      <point x="1177.7348066298346" y="1226.2430939226517"/>
      <point x="988.939226519337" y="1506.171270718232"/>
    </contour>
    <contour>
      <point x="604.7679558011049" y="634.3093922651933" type="curve" smooth="yes"/>
      <point x="449.12707182320446" y="634.5856353591159"/>
      <point x="400.89502762430936" y="833.7292817679559"/>
      <point x="400.89502762430936" y="1039.6629834254143" type="curve" smooth="yes"/>
      <point x="400.89502762430936" y="1261.0165745856355"/>
      <point x="464.5359116022099" y="1447.4198895027623"/>
      <point x="617.7016574585635" y="1446.6961325966852" type="curve" smooth="yes"/>
      <point x="776.6906077348067" y="1445.9723756906078"/>
      <point x="838.6132596685084" y="1238.5414364640883"/>
      <point x="838.6132596685081" y="947.8839779005524" type="curve" smooth="yes"/>
      <point x="838.6132596685081" y="853.0662983425414"/>
      <point x="835.4419889502763" y="794.1602209944751"/>
      <point x="831.2707182320443" y="757.3425414364641" type="curve"/>
      <point x="775.9558011049724" y="685.4364640883979"/>
      <point x="687.1436464088398" y="634.0331491712707"/>
    </contour>
  </outline>
</glyph>
<glyph name="colon" format="2">
  <advance width="581.4963100375046"/>
  <unicode hex="003A"/>
  <outline>
    <contour>
      <point x="276.17522280921077" y="745.5025204661855" type="curve" smooth="yes"/>
      <point x="373.4650562568052" y="745.5025204661855"/>
      <point x="443.79832237770694" y="802.9496310037505"/>
      <point x="443.79832237770694" y="899.3381054159778" type="curve" smooth="yes"/>
      <point x="443.79832237770694" y="971.0945275638181"/>
      <point x="394.662176876235" y="1039.054603379441"/>
      <point x="301.531031979675" y="1039.054603379441" type="curve" smooth="yes"/>
      <point x="211.465298221559" y="1039.054603379441"/>
      <point x="136.9742307537202" y="975.7985240150018"/>
      <point x="136.9742307537202" y="884.8386498366738" type="curve" smooth="yes"/>
      <point x="136.9742307537202" y="802.7657781183208"/>
      <point x="202.41880066137034" y="745.5025204661855"/>
    </contour>
    <contour>
      <point x="276.70879541880066" y="-17.65745856353591" type="curve" smooth="yes"/>
      <point x="373.9986288663951" y="-17.65745856353591"/>
      <point x="444.33189498729683" y="39.78965197402912"/>
      <point x="444.33189498729683" y="136.17812638625642" type="curve" smooth="yes"/>
      <point x="444.33189498729683" y="207.93454853409688"/>
      <point x="395.1957494858249" y="275.89462434971966"/>
      <point x="302.06460458926483" y="275.89462434971966" type="curve" smooth="yes"/>
      <point x="211.9988708311489" y="275.89462434971966"/>
      <point x="137.50780336331007" y="212.63854498528048"/>
      <point x="137.50780336331007" y="121.86885510343993" type="curve" smooth="yes"/>
      <point x="137.50780336331007" y="39.60579908859943"/>
      <point x="202.9523732709602" y="-17.65745856353591"/>
    </contour>
  </outline>
</glyph>
<glyph name="semicolon" format="2">
  <advance width="547.4953421784893"/>
  <unicode hex="003B"/>
  <outline>
    <contour>
      <point x="269.22986651611086" y="745.5025204661855" type="curve" smooth="yes"/>
      <point x="366.3295156672178" y="745.5025204661855"/>
      <point x="436.85296608460703" y="802.9496310037505"/>
      <point x="436.85296608460703" y="899.3381054159778" type="curve" smooth="yes"/>
      <point x="436.85296608460703" y="971.0945275638181"/>
      <point x="387.7168205831351" y="1039.054603379441"/>
      <point x="294.585675686575" y="1039.054603379441" type="curve" smooth="yes"/>
      <point x="204.5199419284591" y="1039.054603379441"/>
      <point x="130.02887446062024" y="975.7985240150018"/>
      <point x="130.02887446062024" y="884.8386498366738" type="curve" smooth="yes"/>
      <point x="130.02887446062024" y="802.7657781183208"/>
      <point x="195.47344436827038" y="745.5025204661855"/>
    </contour>
    <contour>
      <point x="282.0281888938178" y="303.2793079808041" type="curve"/>
      <point x="272.0740412146631" y="303.2793079808041" type="line" smooth="yes"/>
      <point x="192.55276848005812" y="303.2793079808041"/>
      <point x="139.01907488809132" y="254.18732104690082"/>
      <point x="139.01907488809132" y="175.18703875468807" type="curve" smooth="yes"/>
      <point x="139.01907488809132" y="41.912287776747185"/>
      <point x="281.3080614590475" y="43.38645803927895"/>
      <point x="281.3080614590475" y="-64.08416340686372" type="curve" smooth="yes"/>
      <point x="281.3080614590475" y="-181.46687099245875"/>
      <point x="220.59394281566318" y="-305.9907650118966"/>
      <point x="144.574706617736" y="-378.8201798604669" type="curve"/>
      <point x="144.574706617736" y="-392.3006815340565" type="line"/>
      <point x="190.0093962979393" y="-422.64068234060574" type="line"/>
      <point x="191.8057426301569" y="-422.10710973101584" type="line"/>
      <point x="319.32322458361904" y="-352.34701778440933"/>
      <point x="451.1906278985361" y="-156.14392870105254"/>
      <point x="451.1906278985361" y="62.490220591200554" type="curve" smooth="yes"/>
      <point x="451.1906278985361" y="203.45678912771706"/>
      <point x="376.081421139654" y="303.2793079808041"/>
    </contour>
  </outline>
</glyph>
<glyph name="less" format="2">
  <advance width="1323.2554744525548"/>
  <unicode hex="003C"/>
  <outline>
    <contour>
      <point x="1102.6277372262773" y="1067.029197080292" type="line"/>
      <point x="156.62773722627736" y="603.7043593983143" type="line"/>
      <point x="156.62773722627736" y="520.0839617695689" type="line"/>
      <point x="1102.6277372262773" y="60.97080291970803" type="line"/>
      <point x="1102.6277372262773" y="184.30882768076782" type="line"/>
      <point x="303.33096745574056" y="562.5255474452554" type="line"/>
      <point x="1102.6277372262773" y="944.1696979473322" type="line"/>
    </contour>
  </outline>
</glyph>
<glyph name="equal" format="2">
  <advance width="1200.2038956325362"/>
  <unicode hex="003D"/>
  <outline>
    <contour>
      <point x="1039.3717788442152" y="897.5515989837481" type="line"/>
      <point x="160.83211678832117" y="897.5515989837481" type="line"/>
      <point x="160.83211678832117" y="787.8998669193854" type="line"/>
      <point x="1039.3717788442152" y="787.8998669193854" type="line"/>
    </contour>
    <contour>
      <point x="1039.3717788442152" y="377.5345404686051" type="line"/>
      <point x="160.83211678832117" y="377.5345404686051" type="line"/>
      <point x="160.83211678832117" y="267.8828084042424" type="line"/>
      <point x="1039.3717788442152" y="267.8828084042424" type="line"/>
    </contour>
  </outline>
</glyph>
<glyph name="greater" format="2">
  <advance width="1323.2554744525548"/>
  <unicode hex="003E"/>
  <outline>
    <contour>
      <point x="1166.6277372262773" y="529.3321369520506" type="line"/>
      <point x="1166.6277372262773" y="612.9525345807959" type="line"/>
      <point x="220.62773722627736" y="1076.2773722627737" type="line"/>
      <point x="220.62773722627736" y="953.417873129814" type="line"/>
      <point x="1019.924506996814" y="571.7737226277372" type="line"/>
      <point x="220.62773722627736" y="193.55700286324958" type="line"/>
      <point x="220.62773722627736" y="70.21897810218978" type="line"/>
    </contour>
  </outline>
</glyph>
<glyph name="question" format="2">
  <advance width="901.56010807759"/>
  <unicode hex="003F"/>
  <outline>
    <contour>
      <point x="316.22353510505303" y="449.859015203452" type="curve"/>
      <point x="409.81062225269187" y="449.859015203452" type="line"/>
      <point x="395.14747751744164" y="540.4803000362947"/>
      <point x="385.8606283018107" y="639.3451223938379"/>
      <point x="385.8606283018107" y="719.5559140218575" type="curve" smooth="yes"/>
      <point x="385.4802597088357" y="749.4424325523248"/>
      <point x="390.92692664435214" y="780.9653183852885"/>
      <point x="400.81429205145787" y="800.8165503891599" type="curve"/>
      <point x="468.79582207525095" y="922.3528249385007"/>
      <point x="860.9778602250271" y="1000.165140944469"/>
      <point x="860.977860225027" y="1328.9658426422552" type="curve" smooth="yes"/>
      <point x="860.9778602250271" y="1585.4976811711094"/>
      <point x="686.5555914021858" y="1784.8534903415734"/>
      <point x="316.9651570754527" y="1784.8534903415734" type="curve" smooth="yes"/>
      <point x="188.99120861394522" y="1784.8534903415734"/>
      <point x="82.72678146549987" y="1754.9299915312338"/>
      <point x="37.69544702988265" y="1728.7587208130014" type="curve"/>
      <point x="63.93926684679599" y="1627.6616526192684" type="line"/>
      <point x="100.40174214622735" y="1645.1280800096786"/>
      <point x="169.75549461628424" y="1658.6117272250676"/>
      <point x="236.23724644110177" y="1658.6117272250676" type="curve" smooth="yes"/>
      <point x="468.03020526676613" y="1658.6117272250676"/>
      <point x="592.8592168407469" y="1496.4261402589025"/>
      <point x="592.8592168407469" y="1291.2068798644998" type="curve" smooth="yes"/>
      <point x="592.8592168407469" y="1141.8874057345647"/>
      <point x="538.2692261160624" y="1039.0640400048394"/>
      <point x="461.8804290841634" y="994.3467758196554" type="curve" smooth="yes"/>
      <point x="297.01580836391497" y="899.593055611566"/>
      <point x="229.30564181150942" y="849.6430616606848"/>
      <point x="229.83921442109929" y="757.2798322377707" type="curve"/>
      <point x="232.61886518530468" y="665.1867564624753"/>
      <point x="283.8894624349719" y="522.394926805662"/>
    </contour>
    <contour>
      <point x="344.72537000443594" y="-17.65745856353591" type="curve" smooth="yes"/>
      <point x="442.3055611565916" y="-17.65745856353591"/>
      <point x="512.9741904262612" y="39.45428882526112"/>
      <point x="512.9741904262612" y="135.8427632374884" type="curve" smooth="yes"/>
      <point x="512.9741904262612" y="207.4090010888414"/>
      <point x="463.5026817760213" y="275.0337137556963"/>
      <point x="370.08117917490017" y="275.0337137556963" type="curve" smooth="yes"/>
      <point x="280.16062426906484" y="275.0337137556963"/>
      <point x="205.56938339315238" y="211.9678186877445"/>
      <point x="205.56938339315238" y="121.34330765818446" type="curve" smooth="yes"/>
      <point x="205.56938339315238" y="39.080251643343956"/>
      <point x="271.30431100536356" y="-17.65745856353591"/>
    </contour>
  </outline>
</glyph>
<glyph name="at" format="2">
  <advance width="2099.046941162237"/>
  <unicode hex="0040"/>
  <outline>
    <contour>
      <point x="143.46630640803323" y="344.7883211678832" type="curve" smooth="yes"/>
      <point x="143.46630640803323" y="-189.36427793684723"/>
      <point x="472.4666693551639" y="-515.9226519337017"/>
      <point x="918.2912045811993" y="-515.9226519337017" type="curve" smooth="yes"/>
      <point x="1107.8331653022544" y="-515.9226519337017"/>
      <point x="1298.4219462031697" y="-458.8492156309231"/>
      <point x="1402.8330039924185" y="-368.8563535911602" type="curve"/>
      <point x="1378.5520829132556" y="-311.2115981771988" type="line"/>
      <point x="1273.3767391216682" y="-383.0228253417752"/>
      <point x="1114.995967254103" y="-423.4925999112796"/>
      <point x="972.8109448723637" y="-423.4925999112796" type="curve" smooth="yes"/>
      <point x="590.037504536839" y="-423.4925999112796"/>
      <point x="299.4213009638263" y="-117.3214098479655"/>
      <point x="299.4213009638263" y="384.1047304109368" type="curve" smooth="yes"/>
      <point x="299.4213009638263" y="966.5561156591525"/>
      <point x="666.369359196677" y="1425.2368028390529"/>
      <point x="1168.6224140016939" y="1425.2368028390529" type="curve" smooth="yes"/>
      <point x="1520.9116425374038" y="1425.2368028390529"/>
      <point x="1846.928620397629" y="1206.7491632052263"/>
      <point x="1846.928620397629" y="735.2958422389806" type="curve" smooth="yes"/>
      <point x="1846.928620397629" y="351.76549582610795"/>
      <point x="1621.4745332096625" y="119.87317014154938"/>
      <point x="1482.6407629955238" y="119.87317014154938" type="curve" smooth="yes"/>
      <point x="1440.4855829334192" y="119.87317014154938"/>
      <point x="1419.8071137637617" y="163.95644634431585"/>
      <point x="1425.0777513408877" y="291.2620478283663" type="curve" smooth="yes"/>
      <point x="1431.2408355849498" y="510.50248013872647"/>
      <point x="1492.1013429043837" y="818.7633584707827"/>
      <point x="1527.0220187925959" y="951.1669153526636" type="curve"/>
      <point x="1412.0187522684196" y="990.4011775618018"/>
      <point x="1389.3362100254064" y="998.6860507319433"/>
      <point x="1364.9609630197203" y="1001.6350364963503" type="curve" smooth="yes"/>
      <point x="1340.7038351413476" y="1004.0128241319514"/>
      <point x="1323.5589789087387" y="993.902891478808"/>
      <point x="1309.2049844739286" y="954.575916441505" type="curve"/>
      <point x="1241.7504536839133" y="987.5550671452193"/>
      <point x="1165.9604387627537" y="1004.4294471105376"/>
      <point x="1098.1855869661654" y="1004.4294471105376" type="curve" smooth="yes"/>
      <point x="781.3778279630599" y="1004.4294471105376"/>
      <point x="572.1815138928096" y="677.2726539500746"/>
      <point x="572.1815138928096" y="364.86909706819364" type="curve" smooth="yes"/>
      <point x="572.1815138928096" y="123.0429084163407"/>
      <point x="703.5192563616567" y="-17.259507198451427"/>
      <point x="850.1243698834536" y="-17.259507198451427" type="curve" smooth="yes"/>
      <point x="1020.9162398677261" y="-17.259507198451427"/>
      <point x="1145.1756260838006" y="178.72670081058192"/>
      <point x="1226.3869419687867" y="435.1843368149373" type="curve"/>
      <point x="1204.0161713110456" y="293.5687381538089"/>
      <point x="1193.4076299552364" y="197.13223373795216"/>
      <point x="1196.2765657135942" y="146.0136306811308" type="curve" smooth="yes"/>
      <point x="1202.1455014719522" y="38.08670403677865"/>
      <point x="1273.1932088559101" y="-6.862765657135945"/>
      <point x="1358.5485744243254" y="-6.862765657135945" type="curve" smooth="yes"/>
      <point x="1600.5788200185507" y="-6.862765657135945"/>
      <point x="1977.5964431181194" y="281.8849457595677"/>
      <point x="1977.5964431181194" y="795.3569786667741" type="curve" smooth="yes"/>
      <point x="1977.5964431181194" y="1242.853893616163"/>
      <point x="1691.445779731419" y="1530.50429487438"/>
      <point x="1246.360930757753" y="1530.50429487438" type="curve" smooth="yes"/>
      <point x="658.3247166996008" y="1530.50429487438"/>
      <point x="143.46630640803323" y="1040.274629995564"/>
    </contour>
    <contour>
      <point x="824.9377344033553" y="443.16913336290673" type="curve" smooth="yes"/>
      <point x="824.9377344033553" y="705.9664878815986"/>
      <point x="936.055974513046" y="922.3857724724766"/>
      <point x="1086.1010606121706" y="922.3857724724766" type="curve" smooth="yes"/>
      <point x="1140.3836351171512" y="922.3857724724766"/>
      <point x="1220.8989797152883" y="884.4377948945436"/>
      <point x="1266.5392184538455" y="839.1744565874905" type="curve"/>
      <point x="1261.4991732870913" y="778.6367705770859"/>
      <point x="1231.9282574504982" y="657.0688389724564"/>
      <point x="1209.5281284026294" y="582.7211759487035" type="curve" smooth="yes"/>
      <point x="1137.977134330766" y="346.08799451546565"/>
      <point x="1030.6653224180347" y="169.76759285397426"/>
      <point x="942.1869580997701" y="169.76759285397426" type="curve" smooth="yes"/>
      <point x="862.6193894422713" y="169.76759285397426"/>
      <point x="824.9377344033553" y="304.6224946566116"/>
    </contour>
  </outline>
</glyph>
<glyph name="A" format="2">
  <advance width="1294.250151227971"/>
  <unicode hex="0041"/>
  <anchor x="608.0783965802316" y="0.0" name="bottom"/>
  <anchor x="1176.8462313989596" y="20.0" name="ogonek"/>
  <anchor x="648.0162922934226" y="1486.0" name="top"/>
  <outline>
    <contour>
      <point x="46.162439004718316" y="91.033996047909" type="line"/>
      <point x="-91.54647739645925" y="58.954308988990604" type="line"/>
      <point x="-91.1661088034843" y="0.0" type="line"/>
      <point x="331.0373028995443" y="0.0" type="line"/>
      <point x="331.0373028995443" y="58.954308988990604" type="line"/>
      <point x="186.12795902730173" y="88.69145461144493" type="line"/>
      <point x="282.73125781344515" y="430.9697544057749" type="line"/>
      <point x="782.7075855950316" y="430.9697544057749" type="line"/>
      <point x="883.7705770859378" y="89.11682864862685" type="line"/>
      <point x="740.9599951607049" y="58.954308988990604" type="line"/>
      <point x="740.9599951607049" y="0.0" type="line"/>
      <point x="1352.9541880066138" y="0.0" type="line"/>
      <point x="1352.9541880066138" y="58.954308988990604" type="line"/>
      <point x="1235.1048513933138" y="87.51611081985725" type="line"/>
      <point x="784.0583941605839" y="1491.7322659999195" type="line"/>
      <point x="521.7660200830746" y="1491.7322659999195" type="line"/>
    </contour>
    <contour>
      <point x="755.6303181836513" y="515.2070411743355" type="line"/>
      <point x="308.61834092833817" y="515.2070411743355" type="line"/>
      <point x="505.48280033875074" y="1139.1128362301888" type="line"/>
      <point x="542.392547485583" y="1266.307416219704" type="line"/>
      <point x="574.0986409646326" y="1139.738557083518" type="line"/>
    </contour>
  </outline>
</glyph>
<glyph name="B" format="2">
  <advance width="1322.2145420817037"/>
  <unicode hex="0042"/>
  <anchor x="663.7041577610195" y="0.0" name="bottom"/>
  <anchor x="663.7041577610195" y="1486.0" name="top"/>
  <outline>
    <contour>
      <point x="179.07166189458405" y="89.4332782191394" type="line"/>
      <point x="35.251119086986336" y="58.42073637940074" type="line"/>
      <point x="35.251119086986336" y="0.0" type="line"/>
      <point x="333.22377706980683" y="0.0" type="line" smooth="yes"/>
      <point x="465.7805379683026" y="0.0"/>
      <point x="519.880872686212" y="-12.0"/>
      <point x="655.5162318022342" y="-12.0" type="curve" smooth="yes"/>
      <point x="1146.4665080453278" y="-12.0"/>
      <point x="1290.7871113441142" y="195.75045368391335"/>
      <point x="1290.787111344114" y="446.50965842642256" type="curve" smooth="yes"/>
      <point x="1290.787111344114" y="662.6924224704601"/>
      <point x="1119.106827438803" y="790.7697705367584"/>
      <point x="868.7255716417309" y="788.5598257853774" type="curve"/>
      <point x="1056.935516393112" y="817.874742912449"/>
      <point x="1190.3800863007623" y="962.0251643343953"/>
      <point x="1190.3800863007623" y="1160.8428438924063" type="curve" smooth="yes"/>
      <point x="1190.380086300762" y="1360.0720651691738"/>
      <point x="1058.258660321813" y="1500.5524861878453"/>
      <point x="657.8833729886678" y="1500.5524861878453" type="curve" smooth="yes"/>
      <point x="543.6301165463564" y="1500.5524861878453"/>
      <point x="456.8812356333427" y="1486.0"/>
      <point x="332.5386941968786" y="1486.0" type="curve" smooth="yes"/>
      <point x="37.03944025486954" y="1486.0" type="line"/>
      <point x="37.03944025486954" y="1426.5913618582892" type="line"/>
      <point x="179.07166189458405" y="1393.2838649836676" type="line"/>
    </contour>
    <contour>
      <point x="489.12634592894295" y="810.0517804573134" type="curve"/>
      <point x="489.3299995967253" y="1416.1466709682625" type="line"/>
      <point x="518.5375650280274" y="1419.8563132637012"/>
      <point x="580.8488930112512" y="1427.8436907690448"/>
      <point x="629.7882001855064" y="1427.8436907690448" type="curve" smooth="yes"/>
      <point x="811.351211840142" y="1427.8436907690448"/>
      <point x="884.2924547324274" y="1330.9226116062425"/>
      <point x="884.2924547324274" y="1138.987579142638" type="curve" smooth="yes"/>
      <point x="884.2924547324274" y="948.7071823204419"/>
      <point x="818.6941162237367" y="806.6042666451586"/>
      <point x="646.6623785135299" y="806.6042666451586" type="curve" smooth="yes"/>
      <point x="602.2821712303909" y="806.6042666451586"/>
      <point x="531.5225632132918" y="806.0517804573133"/>
    </contour>
    <contour>
      <point x="488.92269226116065" y="83.3782312376497" type="curve"/>
      <point x="489.12634592894295" y="724.2432955599468" type="line"/>
      <point x="531.173730693229" y="726.9994354155745"/>
      <point x="608.2532161148524" y="728.6316893172561"/>
      <point x="667.2506754849376" y="728.6316893172561" type="curve" smooth="yes"/>
      <point x="867.2899544299714" y="728.6316893172561"/>
      <point x="952.4673952494253" y="635.9595918861153"/>
      <point x="952.4673952494253" y="420.98161067871115" type="curve" smooth="yes"/>
      <point x="952.4673952494252" y="208.8684115013913"/>
      <point x="880.111868371174" y="63.740976731056186"/>
      <point x="647.7612614429165" y="63.740976731056186" type="curve" smooth="yes"/>
      <point x="590.8062265596645" y="63.740976731056186"/>
      <point x="524.7475097794087" y="69.53603258458685"/>
    </contour>
  </outline>
</glyph>
<glyph name="C" format="2">
  <advance width="1254.331491712707"/>
  <unicode hex="0043"/>
  <anchor x="701.5303867403314" y="0.0" name="bottom"/>
  <anchor x="723.243093922652" y="1486.0" name="top"/>
  <outline>
    <contour>
      <point x="725.9005524861877" y="-21.447513812154696" type="curve" smooth="yes"/>
      <point x="992.1767955801105" y="-21.447513812154696"/>
      <point x="1045.1767955801106" y="52.89502762430939"/>
      <point x="1149.1767955801106" y="54.0" type="curve"/>
      <point x="1186.5580110497237" y="426.8121546961326" type="line"/>
      <point x="1056.171270718232" y="439.0220994475138" type="line"/>
      <point x="972.4861878453038" y="174.05524861878453" type="line"/>
      <point x="945.0939226519337" y="116.9889502762431"/>
      <point x="867.7127071823204" y="34.066298342541444"/>
      <point x="766.0055248618785" y="34.066298342541444" type="curve" smooth="yes"/>
      <point x="478.3314917127072" y="34.066298342541444"/>
      <point x="388.17679558011054" y="386.55248618784526"/>
      <point x="388.17679558011054" y="754.6850828729282" type="curve" smooth="yes"/>
      <point x="388.17679558011054" y="1226.4917127071822"/>
      <point x="516.1436464088399" y="1447.828729281768"/>
      <point x="759.4751381215469" y="1447.828729281768" type="curve" smooth="yes"/>
      <point x="876.0276243093923" y="1447.828729281768"/>
      <point x="930.9060773480663" y="1390.668508287293"/>
      <point x="948.0883977900553" y="1334.7845303867405" type="curve"/>
      <point x="994.5635359116021" y="1034.1767955801106" type="line"/>
      <point x="1167.0441988950276" y="1034.1767955801106" type="line"/>
      <point x="1210.5469613259668" y="1437.2762430939229" type="line"/>
      <point x="1053.696132596685" y="1437.2762430939224"/>
      <point x="986.646408839779" y="1505.6187845303868"/>
      <point x="738.5138121546962" y="1505.6187845303868" type="curve" smooth="yes"/>
      <point x="315.14364640883974" y="1505.6187845303868"/>
      <point x="30.000000000000007" y="1204.1602209944754"/>
      <point x="30.000000000000007" y="731.5138121546961" type="curve" smooth="yes"/>
      <point x="30.000000000000007" y="295.353591160221"/>
      <point x="250.828729281768" y="-21.447513812154696"/>
    </contour>
  </outline>
</glyph>
<glyph name="D" format="2">
  <advance width="1429.8911965157076"/>
  <unicode hex="0044"/>
  <anchor x="723.2342622091384" y="0.0" name="bottom"/>
  <anchor x="780.123885953946" y="764.0" name="center"/>
  <anchor x="330.0309311610276" y="763.0" name="lstem"/>
  <anchor x="723.2342622091384" y="1486.0" name="top"/>
  <outline>
    <contour>
      <point x="177.048594588055" y="92.10114126708876" type="line"/>
      <point x="35.251119086986336" y="58.420736379400736" type="line"/>
      <point x="35.251119086986336" y="0.0" type="line"/>
      <point x="302.8257450498044" y="0.0" type="line" smooth="yes"/>
      <point x="379.5110698874864" y="0.0"/>
      <point x="539.9545106262854" y="-14.4207767068597"/>
      <point x="642.0976731056177" y="-16.203653667782394" type="curve" smooth="yes"/>
      <point x="1122.629793926685" y="-24.167116989958465"/>
      <point x="1391.8910755333306" y="313.29979432995924"/>
      <point x="1391.8910755333306" y="791.3881921200145" type="curve" smooth="yes"/>
      <point x="1391.8910755333306" y="1205.9041819574945"/>
      <point x="1204.049844739283" y="1498.810460942856"/>
      <point x="672.4019841109812" y="1498.810460942856" type="curve" smooth="yes"/>
      <point x="555.0243981126749" y="1498.810460942856"/>
      <point x="416.3542767270235" y="1486.0"/>
      <point x="297.43412509577774" y="1486.0" type="curve" smooth="yes"/>
      <point x="38.20417792474896" y="1486.0" type="line"/>
      <point x="38.20417792474896" y="1426.7815461547768" type="line"/>
      <point x="177.048594588055" y="1393.4740492801545" type="line"/>
    </contour>
    <contour>
      <point x="487.22954389643905" y="83.05448239706415" type="curve"/>
      <point x="487.2295438964391" y="1408.019679799976" type="line"/>
      <point x="509.2553131427189" y="1410.019679799976"/>
      <point x="569.7376295519621" y="1423.2092188571198"/>
      <point x="631.0092349881033" y="1423.2092188571198" type="curve" smooth="yes"/>
      <point x="933.6969391458645" y="1423.2092188571198"/>
      <point x="1053.1056982699522" y="1159.1053756502804"/>
      <point x="1053.1056982699522" y="752.0319393475016" type="curve" smooth="yes"/>
      <point x="1053.1056982699522" y="297.5406299149091"/>
      <point x="896.8401419526555" y="65.27979191031173"/>
      <point x="636.5014316247933" y="61.21744565874905" type="curve" smooth="yes"/>
      <point x="587.1594547727547" y="60.53869419687867"/>
      <point x="530.912328104206" y="67.2257531152962"/>
    </contour>
  </outline>
</glyph>
<glyph name="E" format="2">
  <advance width="1256.822720490382"/>
  <unicode hex="0045"/>
  <anchor x="644.2559583820622" y="-4.440892098500626e-16" name="bottom"/>
  <anchor x="1059.5483727870308" y="20.0" name="ogonek"/>
  <anchor x="658.5951123119734" y="1486.0" name="top"/>
  <anchor x="35.55526878251402" y="1486.0" name="topleft"/>
  <outline>
    <contour>
      <point x="177.61914747751743" y="91.91095697060128" type="line"/>
      <point x="35.821671976448755" y="58.42073637940074" type="line"/>
      <point x="35.821671976448755" y="0.0" type="line"/>
      <point x="1170.671774811469" y="0.0" type="line"/>
      <point x="1247.4269064806226" y="398.58426422551116" type="line"/>
      <point x="1101.6894382384965" y="424.382788240513" type="line"/>
      <point x="956.2534984070654" y="118.84139210388355" type="line"/>
      <point x="490.388716376981" y="74.90571440093561" type="line"/>
      <point x="490.388716376981" y="726.619792716861" type="line"/>
      <point x="755.4363834334798" y="717.6289067225875" type="line"/>
      <point x="816.8185667621083" y="493.41847804169856" type="line"/>
      <point x="887.1219099084566" y="493.41847804169856" type="line"/>
      <point x="887.1219099084566" y="1020.8059442674518" type="line"/>
      <point x="816.8185667621083" y="1020.8059442674518" type="line"/>
      <point x="755.056014840505" y="809.0534338831309" type="line"/>
      <point x="490.388716376981" y="799.2614025890227" type="line"/>
      <point x="490.388716376981" y="1412.3503246360447" type="line"/>
      <point x="906.6994394483203" y="1384.8974875993065" type="line"/>
      <point x="1015.1837319030531" y="1135.95902730169" type="line"/>
      <point x="1138.9322095414766" y="1135.95902730169" type="line"/>
      <point x="1107.920958180425" y="1486.0" type="line"/>
      <point x="36.278703068919626" y="1486.0" type="line"/>
      <point x="36.278703068919626" y="1426.7815461547766" type="line"/>
      <point x="177.61914747751743" y="1393.4740492801552" type="line"/>
    </contour>
  </outline>
</glyph>
<glyph name="F" format="2">
  <advance width="1166.6958099770131"/>
  <unicode hex="0046"/>
  <anchor x="396.5631729644715" y="0.0" name="bottom"/>
  <anchor x="658.8222365608742" y="1486.0" name="top"/>
  <outline>
    <contour>
      <point x="178.6702423680284" y="88.89970560954953" type="line"/>
      <point x="37.83385086905673" y="58.954308988990604" type="line"/>
      <point x="37.83385086905673" y="0.0" type="line"/>
      <point x="729.6101141267088" y="0.0" type="line"/>
      <point x="729.6101141267088" y="58.954308988990604" type="line"/>
      <point x="490.86925837802954" y="88.89970560954953" type="line"/>
      <point x="490.86925837802954" y="702.9725773279026" type="line"/>
      <point x="763.6576602008306" y="694.4878815985804" type="line"/>
      <point x="825.3376618139291" y="468.56579424930436" type="line"/>
      <point x="895.0602895511553" y="468.56579424930436" type="line"/>
      <point x="895.0602895511553" y="1002.0391579626569" type="line"/>
      <point x="825.6810501270315" y="1002.0391579626569" type="line"/>
      <point x="763.6576602008307" y="787.5340565390975" type="line"/>
      <point x="490.86925837802954" y="778.9639472516836" type="line"/>
      <point x="490.86925837802954" y="1411.4094446908903" type="line"/>
      <point x="883.9172077267411" y="1383.9465661168688" type="line"/>
      <point x="991.7402508367949" y="1118.8256643948864" type="line"/>
      <point x="1122.040448441344" y="1118.8256643948864" type="line"/>
      <point x="1095.6225349840709" y="1486.0" type="line"/>
      <point x="35.988345364358594" y="1486.0" type="line"/>
      <point x="35.988345364358594" y="1426.7815461547768" type="line"/>
      <point x="178.6702423680284" y="1393.4740492801548" type="line"/>
    </contour>
  </outline>
</glyph>
<glyph name="G" format="2">
  <advance width="1405.5110698874864"/>
  <unicode hex="0047"/>
  <anchor x="722.5331693350003" y="0.0" name="bottom"/>
  <anchor x="1178.641924426342" y="346.86570956164053" name="rstem"/>
  <anchor x="782.5331693350001" y="1486.0" name="top"/>
  <outline>
    <contour>
      <point x="715.3936363269752" y="-21.592692664435212" type="curve" smooth="yes"/>
      <point x="1039.211356212445" y="-21.592692664435212"/>
      <point x="1139.0209702786626" y="78.13429043835949"/>
      <point x="1291.4566681453402" y="80.0" type="curve"/>
      <point x="1291.4566681453402" y="619.8490543210871" type="line"/>
      <point x="1388.9968544582005" y="639.4821550994072" type="line"/>
      <point x="1388.9968544582005" y="716.6909706819373" type="line"/>
      <point x="802.9717707787232" y="716.6909706819373" type="line"/>
      <point x="802.9717707787232" y="639.4821550994072" type="line"/>
      <point x="1002.126184619107" y="618.8981328386499" type="line"/>
      <point x="1002.126184619107" y="169.86320925918454" type="line"/>
      <point x="956.8517562608381" y="97.58632092591849"/>
      <point x="856.0310521434045" y="52.92728959148284"/>
      <point x="746.5947896923017" y="52.92728959148284" type="curve" smooth="yes"/>
      <point x="474.696253579062" y="52.92728959148284"/>
      <point x="390.9072871718353" y="390.246602411582"/>
      <point x="391.97443239101506" y="757.4454974392064" type="curve" smooth="yes"/>
      <point x="393.0415776101948" y="1211.152115175223"/>
      <point x="513.4566278178812" y="1430.5880953341127"/>
      <point x="753.2709198693391" y="1430.5880953341127" type="curve" smooth="yes"/>
      <point x="917.0938823244747" y="1430.5880953341127"/>
      <point x="977.3011654635642" y="1378.9511231197323"/>
      <point x="995.7730773883937" y="1332.2061539702383" type="curve"/>
      <point x="1046.3238698229625" y="1043.6860104044845" type="line"/>
      <point x="1238.8274791305403" y="1043.6860104044845" type="line"/>
      <point x="1276.2308747025847" y="1438.5625277251277" type="line"/>
      <point x="1142.1571561075934" y="1442.7669072871718"/>
      <point x="1023.8718796628624" y="1505.238415937412"/>
      <point x="763.6097511795782" y="1505.238415937412" type="curve" smooth="yes"/>
      <point x="313.8576037423881" y="1505.238415937412"/>
      <point x="37.50977940879945" y="1210.6047102472073"/>
      <point x="37.50977940879945" y="730.041295317982" type="curve" smooth="yes"/>
      <point x="37.50977940879945" y="299.47529943138284"/>
      <point x="256.7842077670686" y="-21.592692664435212"/>
    </contour>
  </outline>
</glyph>
<glyph name="H" format="2">
  <advance width="1524.577166592733"/>
  <unicode hex="0048"/>
  <anchor x="774.7774327539622" y="0.0" name="bottom"/>
  <anchor x="1490.4625559543492" y="0.0" name="bottomright"/>
  <anchor x="761.9519296689115" y="754.2050248013873" name="center"/>
  <anchor x="759.3331451385249" y="1486.0" name="top"/>
  <anchor x="9.115699479775778" y="1486.0" name="topleft"/>
  <outline>
    <contour>
      <point x="174.9013993628261" y="88.70952131306206" type="line"/>
      <point x="35.251119086986336" y="58.95430898899061" type="line"/>
      <point x="35.251119086986336" y="0.0" type="line"/>
      <point x="637.9272089365649" y="0.0" type="line"/>
      <point x="637.9272089365649" y="58.95430898899061" type="line"/>
      <point x="487.9773762955196" y="88.70952131306206" type="line"/>
      <point x="487.9773762955196" y="718.9919748356655" type="line"/>
      <point x="1036.7899745937011" y="718.9919748356655" type="line"/>
      <point x="1036.7899745937011" y="88.89970560954953" type="line"/>
      <point x="889.646529822156" y="58.95430898899062" type="line"/>
      <point x="889.646529822156" y="0.0" type="line"/>
      <point x="1489.3260475057468" y="0.0" type="line"/>
      <point x="1489.3260475057468" y="58.95430898899062" type="line"/>
      <point x="1349.6757672299068" y="88.70952131306206" type="line"/>
      <point x="1349.6757672299068" y="1393.6642335766421" type="line"/>
      <point x="1487.3119328951084" y="1426.7815461547766" type="line"/>
      <point x="1487.3119328951084" y="1486.0" type="line"/>
      <point x="889.7917086744366" y="1486.0" type="line"/>
      <point x="889.7917086744366" y="1426.7815461547766" type="line"/>
      <point x="1036.7899745937011" y="1393.4740492801548" type="line"/>
      <point x="1036.7899745937011" y="806.6699197483566" type="line"/>
      <point x="487.9773762955196" y="806.6699197483566" type="line"/>
      <point x="487.9773762955196" y="1393.6642335766421" type="line"/>
      <point x="637.0582731782071" y="1426.7815461547766" type="line"/>
      <point x="637.0582731782071" y="1486.0" type="line"/>
      <point x="36.54147679154739" y="1486.0" type="line"/>
      <point x="36.54147679154739" y="1426.7815461547766" type="line"/>
      <point x="174.9013993628261" y="1393.6642335766421" type="line"/>
    </contour>
  </outline>
</glyph>
<glyph name="I" format="2">
  <advance width="695.134814695326"/>
  <unicode hex="0049"/>
  <anchor x="344.5766826632254" y="0.0" name="bottom"/>
  <anchor x="432.9042626124128" y="20.0" name="ogonek"/>
  <anchor x="344.57668266322537" y="1486.0" name="top"/>
  <anchor x="32.661249344678794" y="1486.0" name="topleft"/>
  <outline>
    <contour>
      <point x="190.46126547566237" y="88.89970560954953" type="line"/>
      <point x="41.024236802839056" y="58.95430898899061" type="line"/>
      <point x="41.024236802839056" y="0.0" type="line"/>
      <point x="654.4909464854619" y="0.0" type="line"/>
      <point x="654.4909464854619" y="58.42876154373513" type="line"/>
      <point x="503.9262814050087" y="88.70952131306206" type="line"/>
      <point x="503.9262814050087" y="1393.4740492801552" type="line"/>
      <point x="653.9573738758721" y="1426.7815461547766" type="line"/>
      <point x="653.9573738758721" y="1486.0" type="line"/>
      <point x="41.17744081945396" y="1486.0" type="line"/>
      <point x="41.17744081945396" y="1426.7815461547766" type="line"/>
      <point x="190.46126547566237" y="1393.4740492801552" type="line"/>
    </contour>
  </outline>
</glyph>
<glyph name="J" format="2">
  <advance width="695.134814695326"/>
  <unicode hex="004A"/>
  <anchor x="334.5529701173529" y="1486.0" name="top"/>
  <outline>
    <contour>
      <point x="-64.17078678872443" y="-308.80816227769486" type="curve"/>
      <point x="-20.297576319716093" y="-375.6740331491713" type="line"/>
      <point x="229.1813929104327" y="-342.2687825140138"/>
      <point x="417.776464894947" y="-187.3085050610961"/>
      <point x="475.35500262128494" y="31.7765455498649" type="curve" smooth="yes"/>
      <point x="501.4086784691697" y="133.34008146146712"/>
      <point x="501.6651611081985" y="307.3055611565916"/>
      <point x="501.6651611081985" y="534.9296285841029" type="curve" smooth="yes"/>
      <point x="501.6651611081985" y="1393.5190547243617" type="line"/>
      <point x="647.9576561680848" y="1426.7815461547768" type="line"/>
      <point x="647.9576561680848" y="1486.0" type="line"/>
      <point x="35.76412469250314" y="1486.0" type="line"/>
      <point x="35.76412469250314" y="1426.7815461547768" type="line"/>
      <point x="188.7793684719926" y="1393.1386861313867" type="line"/>
      <point x="188.7793684719926" y="382.10549663265715" type="line" smooth="yes"/>
      <point x="188.7793684719926" y="147.07234746138647"/>
      <point x="176.81804250514173" y="29.313989595515586"/>
      <point x="148.55377666653223" y="-60.07827559785458" type="curve" smooth="yes"/>
      <point x="103.02584990119772" y="-203.03593176593944"/>
      <point x="38.93672621688108" y="-270.40529096261645"/>
    </contour>
  </outline>
</glyph>
<glyph name="K" format="2">
  <advance width="1417.330281888938"/>
  <unicode hex="004B"/>
  <anchor x="793.8991410251241" y="0.0" name="bottom"/>
  <anchor x="796.4723151994192" y="1483.828729281768" name="top"/>
  <outline>
    <contour>
      <point x="1026.8869621325164" y="0.0" type="curve"/>
      <point x="1422.1959511231196" y="0.5335726095898697" type="line"/>
      <point x="1422.1959511231196" y="59.152518449812476" type="line"/>
      <point x="1348.261160624269" y="85.85691817558578" type="line"/>
      <point x="1238.3008428438925" y="188.7183126991168"/>
      <point x="937.4338428035649" y="872.9774166229787"/>
      <point x="801.3603258458685" y="954.9243456869783" type="curve"/>
      <point x="737.7021413880713" y="829.0052425696656" type="line"/>
      <point x="1193.0110497237567" y="1392.4708230834374" type="line"/>
      <point x="1355.2536193894423" y="1425.3710126224946" type="line"/>
      <point x="1355.2536193894423" y="1486.5335726095898" type="line"/>
      <point x="884.1413880711376" y="1486.0" type="line"/>
      <point x="884.1413880711376" y="1426.247973545187" type="line"/>
      <point x="1056.6143485099003" y="1393.474049280155" type="line"/>
      <point x="421.3796426987135" y="545.7166996007581" type="line"/>
      <point x="490.1245715207485" y="585.7062547888858" type="line"/>
      <point x="490.1245715207485" y="1393.474049280155" type="line"/>
      <point x="637.6061620357301" y="1426.7815461547768" type="line"/>
      <point x="637.6061620357301" y="1486.0" type="line"/>
      <point x="36.4688873654071" y="1486.0" type="line"/>
      <point x="36.4688873654071" y="1426.7815461547768" type="line"/>
      <point x="177.2387788845425" y="1393.474049280155" type="line"/>
      <point x="177.2387788845425" y="88.36613299995966" type="line"/>
      <point x="35.251119086986336" y="59.157962656773" type="line"/>
      <point x="35.251119086986336" y="0.0" type="line"/>
      <point x="643.2091785296608" y="0.0" type="line"/>
      <point x="643.2091785296608" y="58.61894584022261" type="line"/>
      <point x="490.1245715207485" y="88.17594870347219" type="line"/>
      <point x="490.1245715207485" y="572.0566600798484" type="line"/>
      <point x="418.1681655038916" y="422.9896761705045" type="line"/>
      <point x="705.4072670081058" y="788.1292091785297" type="line"/>
      <point x="609.8206637899747" y="720.1584869137397" type="line"/>
      <point x="721.4289228535711" y="614.0982376900432"/>
      <point x="942.236802839053" y="0.0"/>
    </contour>
  </outline>
</glyph>
<glyph name="L" format="2">
  <advance width="1188.7266604831227"/>
  <unicode hex="004C"/>
  <anchor x="659.8845021575191" y="0.0" name="bottom"/>
  <anchor x="637.008226801629" y="744.0" name="center"/>
  <anchor x="393.78723232649116" y="1486.0" name="top"/>
  <anchor x="910.9718514336412" y="1110.913941202565" name="topright"/>
  <outline>
    <contour>
      <point x="176.8584102915675" y="91.91095697060128" type="line"/>
      <point x="35.251119086986336" y="58.420736379400736" type="line"/>
      <point x="35.251119086986336" y="0.0" type="line"/>
      <point x="1107.089728596201" y="0.0" type="line"/>
      <point x="1174.3117715852725" y="451.2422067185546" type="line"/>
      <point x="1026.4217848933336" y="469.2972537000444" type="line"/>
      <point x="884.2477719078921" y="124.74436423760939" type="line"/>
      <point x="489.0574263015688" y="81.52901560672662" type="line"/>
      <point x="489.26107996935116" y="1393.474049280155" type="line"/>
      <point x="658.4037585191757" y="1426.7815461547768" type="line"/>
      <point x="658.4037585191757" y="1486.0" type="line"/>
      <point x="36.659071661894586" y="1486.0" type="line"/>
      <point x="36.659071661894586" y="1426.7815461547768" type="line"/>
      <point x="176.8584102915675" y="1393.474049280155" type="line"/>
    </contour>
  </outline>
</glyph>
<glyph name="M" format="2">
  <advance width="1881.1723998870834"/>
  <unicode hex="004D"/>
  <anchor x="919.8043714965521" y="0.0" name="bottom"/>
  <anchor x="1910.1211033592772" y="0.0" name="bottomright"/>
  <anchor x="939.1740129854419" y="1486.0" name="top"/>
  <outline>
    <contour>
      <point x="129.0586764527967" y="86.75037302899544" type="line"/>
      <point x="-27.179941121909906" y="57.88716376981087" type="line"/>
      <point x="-27.179941121909906" y="0.0" type="line"/>
      <point x="428.7251683671411" y="0.0" type="line"/>
      <point x="428.7251683671411" y="57.88716376981087" type="line"/>
      <point x="251.8914788079203" y="86.94055732548291" type="line"/>
      <point x="348.2716054361415" y="1032.0071782876962" type="line"/>
      <point x="384.60458926483034" y="1377.9824172278904" type="line"/>
      <point x="473.7282735814816" y="1034.3627454934065" type="line"/>
      <point x="723.3837964269871" y="61.14364640883978" type="line"/>
      <point x="988.2664031939347" y="61.14364640883978" type="line"/>
      <point x="1226.3195547848532" y="1051.9818526434651" type="line"/>
      <point x="1300.4080735572852" y="1377.7922329314029" type="line"/>
      <point x="1337.7790458523207" y="1030.9400330685164" type="line"/>
      <point x="1431.3605274831634" y="87.47412993507278" type="line"/>
      <point x="1272.7237972335363" y="58.954308988990604" type="line"/>
      <point x="1272.7237972335363" y="0.0" type="line"/>
      <point x="1908.3523410089927" y="0.0" type="line"/>
      <point x="1908.3523410089927" y="57.88716376981087" type="line"/>
      <point x="1757.7044400532325" y="88.21680041940557" type="line"/>
      <point x="1601.3389926200753" y="1393.193007218615" type="line"/>
      <point x="1774.8404242448682" y="1427.518772432149" type="line"/>
      <point x="1774.8404242448682" y="1486.0" type="line"/>
      <point x="1223.7225067548495" y="1486.0" type="line"/>
      <point x="1008.9516070492398" y="556.1359841916361" type="line"/>
      <point x="955.8224785256282" y="293.12376497156913" type="line"/>
      <point x="900.5561963140703" y="554.0016937532766" type="line"/>
      <point x="679.8364721538898" y="1486.0" type="line"/>
      <point x="121.97588417953784" y="1486.0" type="line"/>
      <point x="121.97588417953784" y="1427.518772432149" type="line"/>
      <point x="296.00483929507595" y="1393.193007218615" type="line"/>
    </contour>
  </outline>
</glyph>
<glyph name="N" format="2">
  <advance width="1350.7734806629833"/>
  <unicode hex="004E"/>
  <anchor x="679.4585635359116" y="0.0" name="bottom"/>
  <anchor x="682.8011049723757" y="1486.0" name="top"/>
  <outline>
    <contour>
      <point x="154.28729281767954" y="87.26519337016575" type="line"/>
      <point x="-9.292817679558013" y="36.0" type="line"/>
      <point x="-9.292817679558013" y="0.0" type="line"/>
      <point x="406.7348066298342" y="0.0" type="line"/>
      <point x="406.7348066298342" y="36.0" type="line"/>
      <point x="235.02209944751382" y="87.26519337016573" type="line"/>
      <point x="230.11602209944755" y="1214.0386740331492" type="line"/>
      <point x="328.5745856353591" y="1043.46408839779" type="line"/>
      <point x="989.9668508287293" y="0.0" type="line"/>
      <point x="1198.7237569060774" y="0.0" type="line"/>
      <point x="1203.9723756906076" y="1399.4585635359115" type="line"/>
      <point x="1366.9613259668506" y="1450.0" type="line"/>
      <point x="1366.9613259668506" y="1486.0" type="line"/>
      <point x="955.0773480662984" y="1486.0" type="line"/>
      <point x="955.0773480662984" y="1450.0" type="line"/>
      <point x="1123.513812154696" y="1399.4585635359115" type="line"/>
      <point x="1129.486187845304" y="327.6906077348066" type="line"/>
      <point x="1011.475138121547" y="544.5801104972376" type="line"/>
      <point x="415.8232044198896" y="1486.0" type="line"/>
      <point x="-1.8729281767955825" y="1486.0" type="line"/>
      <point x="-1.8729281767955825" y="1436.9723756906078" type="line"/>
      <point x="58.19337016574587" y="1434.2099447513813"/>
      <point x="153.70718232044197" y="1331.3480662983425"/>
      <point x="159.87845303867402" y="1279.6740331491712" type="curve"/>
    </contour>
  </outline>
</glyph>
<glyph name="O" format="2">
  <advance width="1411.2796709279348"/>
  <unicode hex="004F"/>
  <anchor x="722.9043432673307" y="0.0" name="bottom"/>
  <anchor x="706.6989555188127" y="741.0" name="center"/>
  <anchor x="806.3079808041294" y="17.963463322176068" name="ogonek"/>
  <anchor x="852.1355901520344" y="0.0" name="qq"/>
  <anchor x="712.8150582731781" y="1486.0" name="top"/>
  <anchor x="34.21926039440255" y="1486.0" name="topleft"/>
  <anchor x="1182.2331330402872" y="1486.0" name="topright"/>
  <outline>
    <contour>
      <point x="694.1914747751744" y="-24.13429043835948" type="curve" smooth="yes"/>
      <point x="1132.8989393878294" y="-23.055611565915232"/>
      <point x="1374.3153607291204" y="304.308626043473"/>
      <point x="1374.3153607291204" y="767.5851111021494" type="curve" smooth="yes"/>
      <point x="1374.3153607291204" y="1206.7100052425697"/>
      <point x="1176.4198895027628" y="1504.324474734847"/>
      <point x="722.517643263298" y="1504.7048433278221" type="curve" smooth="yes"/>
      <point x="280.40831552203895" y="1504.8950276243095"/>
      <point x="36.964310198814374" y="1185.7285155462353"/>
      <point x="36.964310198814374" y="725.1459854014597" type="curve" smooth="yes"/>
      <point x="36.964310198814374" y="283.6896398757915"/>
      <point x="236.37056902044606" y="-25.403153607291205"/>
    </contour>
    <contour>
      <point x="707.9832237770698" y="1432.7143606081381" type="curve" smooth="yes"/>
      <point x="924.7884421502602" y="1432.7143606081381"/>
      <point x="1032.336734282373" y="1177.5743033431463"/>
      <point x="1032.336734282373" y="767.2047425091744" type="curve" smooth="yes"/>
      <point x="1032.336734282373" y="293.67975964834454"/>
      <point x="908.5661975238942" y="48.2365608742993"/>
      <point x="704.6880671048917" y="48.2365608742993" type="curve" smooth="yes"/>
      <point x="485.4051699802395" y="48.2365608742993"/>
      <point x="378.4623946445134" y="307.07843690769045"/>
      <point x="378.4623946445134" y="725.3361696979472" type="curve" smooth="yes"/>
      <point x="378.4623946445134" y="1197.9337419849178"/>
      <point x="500.90365770052824" y="1432.7143606081381"/>
    </contour>
  </outline>
</glyph>
<glyph name="P" format="2">
  <advance width="1270.2470460136303"/>
  <unicode hex="0050"/>
  <anchor x="372.8303827075856" y="0.0" name="bottom"/>
  <anchor x="679.2957615840626" y="1486.0" name="top"/>
  <outline>
    <contour>
      <point x="176.65475662378512" y="89.44674759043431" type="line"/>
      <point x="35.251119086986336" y="58.420736379400736" type="line"/>
      <point x="35.251119086986336" y="0.0" type="line"/>
      <point x="690.1602613219341" y="0.0" type="line"/>
      <point x="690.1602613219341" y="58.954308988990604" type="line"/>
      <point x="487.2530548050167" y="89.05835383312498" type="line"/>
      <point x="487.7866274146065" y="545.9887889664072" type="line"/>
      <point x="509.1359438641771" y="542.8253417752147"/>
      <point x="590.8853087066984" y="537.4771544944953"/>
      <point x="645.5402669677783" y="537.6808081622777" type="curve" smooth="yes"/>
      <point x="1018.9508811549784" y="539.7173448401015"/>
      <point x="1229.7620679920958" y="713.1561479211194"/>
      <point x="1229.7620679920958" y="1044.9984272291006" type="curve" smooth="yes"/>
      <point x="1229.7620679920958" y="1331.0767431544139"/>
      <point x="1081.343993224987" y="1499.6465701496147"/>
      <point x="678.7068597007702" y="1498.2360366173327" type="curve" smooth="yes"/>
      <point x="533.641408234867" y="1498.082832600718"/>
      <point x="438.4853409686656" y="1486.0"/>
      <point x="338.80687179900804" y="1486.0" type="curve" smooth="yes"/>
      <point x="38.00052425696657" y="1486.0" type="line"/>
      <point x="38.00052425696657" y="1426.7815461547768" type="line"/>
      <point x="176.65475662378512" y="1393.474049280155" type="line"/>
    </contour>
    <contour>
      <point x="487.06287050852916" y="628.3837157720692" type="curve"/>
      <point x="487.06287050852916" y="1413.018187683994" type="line"/>
      <point x="521.9141428398597" y="1416.6369722143806"/>
      <point x="568.5355889825381" y="1426.4437633584707"/>
      <point x="630.9044642497076" y="1426.4437633584707" type="curve" smooth="yes"/>
      <point x="834.3930314150904" y="1426.4437633584707"/>
      <point x="900.5184094850183" y="1266.373956526999"/>
      <point x="900.5184094850183" y="1039.932128886559" type="curve" smooth="yes"/>
      <point x="900.5184094850183" y="741.6010404484415"/>
      <point x="789.5854740492802" y="618.2343831915152"/>
      <point x="622.6078154615477" y="616.1978465136913" type="curve" smooth="yes"/>
      <point x="568.1674396096303" y="615.7905391781264"/>
      <point x="516.8540145985403" y="620.7544864298101"/>
    </contour>
  </outline>
</glyph>
<glyph name="R" format="2">
  <advance width="1373.4347300076622"/>
  <unicode hex="0052"/>
  <anchor x="756.5605113521796" y="0.0" name="bottom"/>
  <anchor x="679.1903456063235" y="1486.0" name="top"/>
  <outline>
    <contour>
      <point x="35.251119086986336" y="0.0" type="line"/>
      <point x="651.5490583538333" y="0.0" type="line"/>
      <point x="651.5490583538333" y="58.954308988990604" type="line"/>
      <point x="483.81598580473445" y="88.91317498084445" type="line"/>
      <point x="483.81598580473445" y="644.1567125055451" type="line"/>
      <point x="526.882284147276" y="643.6042263176996"/>
      <point x="615.5966850828728" y="642.7896116465702"/>
      <point x="670.3591160220994" y="642.7896116465702" type="curve"/>
      <point x="824.0792031294108" y="599.0369399524136"/>
      <point x="922.7368633302416" y="0.0"/>
      <point x="1018.347340404081" y="0.0" type="curve" smooth="yes"/>
      <point x="1376.0194781626806" y="0.0" type="line"/>
      <point x="1376.0194781626806" y="58.61894584022261" type="line"/>
      <point x="1315.358269145461" y="82.52074847763842" type="line"/>
      <point x="1235.0601685687782" y="114.05738597410978"/>
      <point x="1141.450740008872" y="623.7140379884665"/>
      <point x="902.2105899907245" y="688.4981651006171" type="curve"/>
      <point x="1101.7792071621568" y="745.8767592853975"/>
      <point x="1203.2977376295523" y="930.9326128160665"/>
      <point x="1203.2977376295523" y="1104.504456184216" type="curve" smooth="yes"/>
      <point x="1203.2977376295523" y="1362.9266040246803"/>
      <point x="1059.2079687058917" y="1499.828729281768"/>
      <point x="642.339234584829" y="1499.828729281768" type="curve" smooth="yes"/>
      <point x="512.7924748961568" y="1499.828729281768"/>
      <point x="436.45215146993587" y="1486.0"/>
      <point x="318.1063031818365" y="1486.0" type="curve" smooth="yes"/>
      <point x="37.42997136750413" y="1486.0" type="line"/>
      <point x="37.42997136750413" y="1427.262088155825" type="line"/>
      <point x="177.3600032261967" y="1393.6192281324354" type="line"/>
      <point x="177.3600032261967" y="89.44674759043431" type="line"/>
      <point x="35.251119086986336" y="58.420736379400736" type="line"/>
    </contour>
    <contour>
      <point x="639.3785538573214" y="717.8915191353792" type="curve" smooth="yes"/>
      <point x="604.9397507763036" y="717.8915191353792"/>
      <point x="523.5175222809211" y="717.7244021454208"/>
      <point x="483.81598580473445" y="725.1175948703471" type="curve"/>
      <point x="483.81598580473445" y="1413.5618018308667" type="line"/>
      <point x="513.1092470863412" y="1417.358148163084"/>
      <point x="537.2133725853936" y="1426.824131951446"/>
      <point x="610.3406460458928" y="1426.824131951446" type="curve" smooth="yes"/>
      <point x="810.5747872726539" y="1426.824131951446"/>
      <point x="882.6878251401379" y="1299.5466387062952"/>
      <point x="882.6878251401379" y="1093.5811993386299" type="curve" smooth="yes"/>
      <point x="882.6878251401379" y="862.4574746945195"/>
      <point x="800.8088478444973" y="717.8915191353792"/>
    </contour>
  </outline>
</glyph>
<glyph name="S" format="2">
  <advance width="1163.4851393313704"/>
  <unicode hex="0053"/>
  <anchor x="562.345364358592" y="0.0" name="bottom"/>
  <anchor x="613.9920958180426" y="1486.0" name="top"/>
  <outline>
    <contour>
      <point x="552.1071500584749" y="-22.0" type="curve" smooth="yes"/>
      <point x="970.1622373674235" y="-22.0"/>
      <point x="1115.2414001693753" y="199.20849296285846"/>
      <point x="1115.774972778965" y="409.770335121184" type="curve" smooth="yes"/>
      <point x="1116.308545388555" y="655.8830906964553"/>
      <point x="883.981812316006" y="779.241722789047"/>
      <point x="708.4976811711094" y="869.1933298382869" type="curve" smooth="yes"/>
      <point x="523.3734725974916" y="964.759285397427"/>
      <point x="356.8218332862847" y="1036.2187764648947"/>
      <point x="356.8218332862847" y="1210.7387183933542" type="curve" smooth="yes"/>
      <point x="356.8218332862847" y="1334.9184578779689"/>
      <point x="436.3560914626769" y="1430.985804734444"/>
      <point x="610.6704440053234" y="1432.0529499536235" type="curve" smooth="yes"/>
      <point x="717.1013429043836" y="1432.5865225632135"/>
      <point x="787.7991289268864" y="1392.7980804129531"/>
      <point x="807.1140460539582" y="1366.1671976448765" type="curve"/>
      <point x="852.6826632253901" y="1093.590595636569" type="line"/>
      <point x="1008.1613098358673" y="1093.590595636569" type="line"/>
      <point x="1037.2356333427429" y="1432.8950276243095" type="line"/>
      <point x="982.5210307698512" y="1437.2397064160987"/>
      <point x="838.1922409968948" y="1507.4500947695287"/>
      <point x="614.0942855990645" y="1506.8391337661815" type="curve" smooth="yes"/>
      <point x="267.6806468524418" y="1506.024519095052"/>
      <point x="87.28051780457314" y="1312.5044158567569"/>
      <point x="87.28051780457314" y="1104.5194579989513" type="curve" smooth="yes"/>
      <point x="87.28051780457314" y="828.0636770577086"/>
      <point x="312.5145380489576" y="717.3700447634794"/>
      <point x="474.514013791991" y="635.6401177561803" type="curve" smooth="yes"/>
      <point x="674.7466225753116" y="534.6032584586846"/>
      <point x="840.4269871355406" y="446.6393112070009"/>
      <point x="840.4269871355406" y="287.21151752228093" type="curve" smooth="yes"/>
      <point x="840.4269871355406" y="160.83239908053392"/>
      <point x="760.6044682824535" y="51.51280396822195"/>
      <point x="544.984231963544" y="52.579949187401695" type="curve" smooth="yes"/>
      <point x="424.7736016453603" y="53.11352179699156"/>
      <point x="347.66048312295845" y="100.77456950437553"/>
      <point x="307.4693712949147" y="144.52889462434973" type="curve"/>
      <point x="259.6449167237972" y="425.6334637254506" type="line"/>
      <point x="98.50163326208815" y="425.6334637254506" type="line"/>
      <point x="66.83784328749445" y="67.1049723756906" type="line"/>
      <point x="132.68379239424127" y="61.828729281767956"/>
      <point x="312.94354155744645" y="-22.0"/>
    </contour>
  </outline>
</glyph>
<glyph name="T" format="2">
  <advance width="1405.0113320159699"/>
  <unicode hex="0054"/>
  <anchor x="707.4102109126104" y="0.0" name="bottom"/>
  <anchor x="1104.4681211436869" y="0.0" name="bottomright"/>
  <anchor x="703.7732386982296" y="682.5022381739727" name="center"/>
  <anchor x="705.9351131185226" y="1486.0" name="top"/>
  <outline>
    <contour>
      <point x="545.3600838811146" y="89.63693188692179" type="line"/>
      <point x="303.27390410130255" y="58.954308988990604" type="line"/>
      <point x="303.27390410130255" y="0.0" type="line"/>
      <point x="1102.9875791426382" y="0.0" type="line"/>
      <point x="1102.9875791426382" y="58.954308988990604" type="line"/>
      <point x="859.2439407992902" y="89.63693188692179" type="line"/>
      <point x="859.2439407992902" y="1414.3809735048594" type="line"/>
      <point x="1083.6311247328308" y="1397.7270234302537" type="line"/>
      <point x="1221.2178489333387" y="937.0389966528209" type="line"/>
      <point x="1365.379239424124" y="937.0389966528209" type="line"/>
      <point x="1332.8267532362786" y="1486.0" type="line"/>
      <point x="72.60600072589425" y="1486.0" type="line"/>
      <point x="39.63209259184579" y="937.0389966528209" type="line"/>
      <point x="182.7263378634512" y="937.0389966528209" type="line"/>
      <point x="322.71557043190705" y="1397.7270234302537" type="line"/>
      <point x="545.3600838811146" y="1414.3809735048594" type="line"/>
    </contour>
  </outline>
</glyph>
<glyph name="U" format="2">
  <advance width="1352.5801104972377"/>
  <unicode hex="0055"/>
  <anchor x="761.4640883977901" y="0.0" name="bottom"/>
  <anchor x="828.5524861878454" y="20.0" name="ogonek"/>
  <anchor x="752.5027624309392" y="1486.0" name="top"/>
  <anchor x="1436.5690607734807" y="1486.0" name="topright"/>
  <outline>
    <contour>
      <point x="748.4364640883978" y="-17.104972375690608" type="curve" smooth="yes"/>
      <point x="992.9447513812154" y="-17.104972375690608"/>
      <point x="1200.5027624309391" y="137.36464088397787"/>
      <point x="1201.8839779005525" y="569.4696132596686" type="curve" smooth="yes"/>
      <point x="1204.646408839779" y="1414.486187845304" type="line"/>
      <point x="1336.1988950276245" y="1450.0" type="line"/>
      <point x="1336.1988950276245" y="1486.0" type="line"/>
      <point x="982.5690607734806" y="1486.0" type="line"/>
      <point x="982.5690607734806" y="1450.0" type="line"/>
      <point x="1129.950276243094" y="1413.9337016574584" type="line"/>
      <point x="1131.3314917127075" y="567.2596685082874" type="line" smooth="yes"/>
      <point x="1131.8839779005527" y="208.59116022099448"/>
      <point x="972.1988950276243" y="34.17127071823204"/>
      <point x="767.939226519337" y="34.17127071823204" type="curve" smooth="yes"/>
      <point x="591.8397790055247" y="34.17127071823204"/>
      <point x="481.37016574585635" y="139.47513812154696"/>
      <point x="481.37016574585635" y="473.91160220994476" type="curve" smooth="yes"/>
      <point x="481.37016574585635" y="1414.486187845304" type="line"/>
      <point x="633.1049723756905" y="1450.0" type="line"/>
      <point x="633.1049723756905" y="1486.0" type="line"/>
      <point x="20.552486187845304" y="1486.0" type="line"/>
      <point x="20.552486187845304" y="1450.0" type="line"/>
      <point x="158.24861878453038" y="1414.486187845304" type="line"/>
      <point x="158.24861878453038" y="536.4696132596684" type="line" smooth="yes"/>
      <point x="158.24861878453038" y="135.44751381215468"/>
      <point x="361.4475138121547" y="-17.104972375690608"/>
    </contour>
  </outline>
</glyph>
<glyph name="V" format="2">
  <advance width="1315.554946162842"/>
  <unicode hex="0056"/>
  <outline>
    <contour>
      <point x="-37.138605476468925" y="1428.2559987095215" type="line"/>
      <point x="76.95910795660765" y="1395.530951324757" type="line"/>
      <point x="566.3044319877404" y="-7.272653950074606" type="line"/>
      <point x="785.8803484292455" y="-7.272653950074606" type="line"/>
      <point x="1243.9301931685284" y="1395.530951324757" type="line"/>
      <point x="1375.7576319716095" y="1428.2559987095215" type="line"/>
      <point x="1375.7576319716095" y="1486.0" type="line"/>
      <point x="970.6393112070009" y="1486.0" type="line"/>
      <point x="970.6393112070009" y="1428.2559987095215" type="line"/>
      <point x="1115.7315401056578" y="1395.530951324757" type="line"/>
      <point x="809.7226277372263" y="368.4004113400814" type="line"/>
      <point x="774.1163447191192" y="228.4680001613098" type="line"/>
      <point x="737.2578941000928" y="370.05415977739244" type="line"/>
      <point x="418.803161672783" y="1395.7211356212447" type="line"/>
      <point x="574.3125781344518" y="1428.2559987095215" type="line"/>
      <point x="574.3125781344518" y="1486.0" type="line"/>
      <point x="-37.138605476468925" y="1486.0" type="line"/>
    </contour>
  </outline>
</glyph>
<glyph name="W" format="2">
  <advance width="1886.8044924789288"/>
  <unicode hex="0057"/>
  <anchor x="979.2238980521837" y="0.0" name="bottom"/>
  <anchor x="983.9908456668146" y="1486.0" name="top"/>
  <outline>
    <contour>
      <point x="-45.20631528007419" y="1428.4596523773037" type="line"/>
      <point x="74.8195749485825" y="1395.3992418437713" type="line"/>
      <point x="464.4639674154131" y="-5.886195910795662" type="line"/>
      <point x="702.7712626527403" y="-5.886195910795662" type="line"/>
      <point x="961.4116223736742" y="909.4804613461307" type="line"/>
      <point x="1202.4184780416986" y="-5.886195910795662" type="line"/>
      <point x="1443.7942089768922" y="-5.886195910795662" type="line"/>
      <point x="1812.1913941202567" y="1396.064523934347" type="line"/>
      <point x="1931.8206234625156" y="1428.052345041739" type="line"/>
      <point x="1931.8206234625156" y="1486.0" type="line"/>
      <point x="1534.6240271000524" y="1486.0" type="line"/>
      <point x="1534.6240271000524" y="1428.052345041739" type="line"/>
      <point x="1696.6321329193047" y="1396.064523934347" type="line"/>
      <point x="1456.82747913054" y="392.04794934871154" type="line"/>
      <point x="1418.1817155301044" y="195.07779166834698" type="line"/>
      <point x="1376.9312820099206" y="390.62237367423484" type="line"/>
      <point x="1140.6833084647337" y="1398.5083679477357" type="line"/>
      <point x="1286.2321248538133" y="1428.052345041739" type="line"/>
      <point x="1286.2321248538133" y="1486.0" type="line"/>
      <point x="707.3726257208533" y="1486.0" type="line"/>
      <point x="707.3726257208533" y="1428.052345041739" type="line"/>
      <point x="821.3708513126588" y="1398.5083679477357" type="line"/>
      <point x="909.5361132395049" y="1079.5925313545995" type="line"/>
      <point x="721.1038432068394" y="392.04794934871154" type="line"/>
      <point x="676.5323224583619" y="200.05307093600035" type="line"/>
      <point x="639.4283582691455" y="390.8260273420172" type="line"/>
      <point x="392.6174537242408" y="1396.2681776021295" type="line"/>
      <point x="528.6899221680043" y="1428.2559987095212" type="line"/>
      <point x="528.6899221680043" y="1486.0" type="line"/>
      <point x="-45.20631528007419" y="1486.2036536677824" type="line"/>
    </contour>
  </outline>
</glyph>
<glyph name="X" format="2">
  <advance width="1431.6950840827521"/>
  <unicode hex="0058"/>
  <anchor x="1417.82981812316" y="0.0" name="bottomright"/>
  <outline>
    <contour>
      <point x="208.98318344961086" y="87.15768036456022" type="line"/>
      <point x="20.830221397749725" y="58.954308988990604" type="line"/>
      <point x="21.237528733314512" y="0.0" type="line"/>
      <point x="543.56244707021" y="0.0" type="line"/>
      <point x="543.1551397346454" y="58.954308988990604" type="line"/>
      <point x="347.25172399887083" y="87.7686413679074" type="line"/>
      <point x="633.0563777876356" y="611.2741057385974" type="line"/>
      <point x="920.5035286526597" y="87.88143727063756" type="line"/>
      <point x="760.3054401742146" y="58.954308988990604" type="line"/>
      <point x="760.7127475097794" y="0.0" type="line"/>
      <point x="1412.4940920272616" y="0.0" type="line"/>
      <point x="1412.086784691697" y="58.954308988990604" type="line"/>
      <point x="1276.003629471307" y="88.49239827398475" type="line"/>
      <point x="844.6340283098762" y="816.4426341896198" type="line"/>
      <point x="1216.707182320442" y="1393.9533008025164" type="line"/>
      <point x="1390.871032786224" y="1426.7815461547768" type="line"/>
      <point x="1390.871032786224" y="1486.0" type="line"/>
      <point x="890.4407791265071" y="1486.0" type="line"/>
      <point x="890.4407791265071" y="1426.7815461547768" type="line"/>
      <point x="1081.56712505545" y="1394.2112755575274" type="line"/>
      <point x="798.5520022583376" y="885.173892003065" type="line"/>
      <point x="520.7232729765698" y="1393.229543896439" type="line"/>
      <point x="681.7459370085091" y="1426.7815461547768" type="line"/>
      <point x="681.7459370085091" y="1486.0" type="line"/>
      <point x="30.49929426946808" y="1486.0" type="line"/>
      <point x="30.49929426946808" y="1426.7815461547768" type="line"/>
      <point x="165.53595192966893" y="1393.3423397991696" type="line"/>
      <point x="585.5294188813162" y="685.524821550994" type="line"/>
    </contour>
  </outline>
</glyph>
<glyph name="Y" format="2">
  <advance width="1265.4686050731943"/>
  <unicode hex="0059"/>
  <anchor x="643.5066338670001" y="0.0" name="bottom"/>
  <anchor x="642.3807688026776" y="547.0" name="center"/>
  <anchor x="668.5716820583135" y="1486.0" name="top"/>
  <anchor x="25.010444811872404" y="1486.0" name="topleft"/>
  <outline>
    <contour>
      <point x="477.6055974513046" y="89.30701294511432" type="line"/>
      <point x="283.7549703593176" y="58.954308988990604" type="line"/>
      <point x="283.7549703593176" y="0.0" type="line"/>
      <point x="996.424043231036" y="0.0" type="line"/>
      <point x="996.424043231036" y="58.954308988990604" type="line"/>
      <point x="793.2103076985119" y="88.7284348913175" type="line"/>
      <point x="793.2103076985119" y="603.0883977900553" type="line"/>
      <point x="1167.6520950114932" y="1398.812920917853" type="line"/>
      <point x="1325.341250957777" y="1426.9851998225593" type="line"/>
      <point x="1325.341250957777" y="1486.0" type="line"/>
      <point x="844.9800379078114" y="1486.0" type="line"/>
      <point x="844.9800379078114" y="1426.9851998225593" type="line"/>
      <point x="1037.0938419970162" y="1395.510585957979" type="line"/>
      <point x="790.3293946848411" y="801.3431060208896" type="line"/>
      <point x="735.9439045045772" y="671.6080170988427" type="line"/>
      <point x="682.9213614550147" y="802.8460700891236" type="line"/>
      <point x="416.90756946404804" y="1395.510585957979" type="line"/>
      <point x="552.104488446183" y="1426.9851998225593" type="line"/>
      <point x="552.104488446183" y="1486.0" type="line"/>
      <point x="-36.783844819937904" y="1485.7963463322176" type="line"/>
      <point x="-36.783844819937904" y="1426.7815461547768" type="line"/>
      <point x="76.58539339436221" y="1396.0891640117757" type="line"/>
      <point x="477.6055974513046" y="582.9469290639997" type="line"/>
    </contour>
  </outline>
</glyph>
<glyph name="Z" format="2">
  <advance width="1280.0029439045045"/>
  <unicode hex="005A"/>
  <anchor x="637.3055208291327" y="0.0" name="bottom"/>
  <anchor x="663.896681050127" y="1486.0" name="top"/>
  <outline>
    <contour>
      <point x="767.922248659112" y="1259.3573416139047" type="line"/>
      <point x="34.87647699318466" y="52.051820784772346" type="line"/>
      <point x="64.71815138928096" y="0.0" type="line"/>
      <point x="1184.7777957010928" y="0.0" type="line"/>
      <point x="1236.7853772633787" y="436.93479049885065" type="line"/>
      <point x="1088.721861515506" y="466.3356051135218" type="line"/>
      <point x="953.6564100496026" y="118.91531233616969" type="line"/>
      <point x="375.69492277291613" y="74.20373432270033" type="line"/>
      <point x="501.1384038391741" y="235.4728797838448" type="line"/>
      <point x="1228.6833487921926" y="1436.4515062305923" type="line"/>
      <point x="1200.624712666855" y="1487.3864580392788" type="line"/>
      <point x="153.8424002903577" y="1487.3864580392788" type="line"/>
      <point x="122.78328023551238" y="1095.4852603137474" type="line"/>
      <point x="265.4093237085131" y="1074.6289067225873" type="line"/>
      <point x="373.63277815864825" y="1387.8778077993304" type="line"/>
      <point x="892.5999919345082" y="1414.7989272895913" type="line"/>
    </contour>
  </outline>
</glyph>
<glyph name="bracketleft" format="2">
  <advance width="853.9521313062063"/>
  <unicode hex="005B"/>
  <outline>
    <contour>
      <point x="181.60963019720128" y="1410.5269992337785" type="curve"/>
      <point x="181.60963019720128" y="-76.52699923377827" type="line" smooth="yes"/>
      <point x="181.60963019720128" y="-241.84921563092308"/>
      <point x="257.14767915473647" y="-274.0"/>
      <point x="399.51106988748637" y="-274.0" type="curve" smooth="yes"/>
      <point x="498.17953784732015" y="-274.0"/>
      <point x="585.85050610961" y="-255.82872928176795"/>
      <point x="665.7066177360165" y="-235.1049723756906" type="curve"/>
      <point x="665.7066177360165" y="-180.3541960721055" type="line"/>
      <point x="438.72182118804693" y="-180.3541960721055" type="line"/>
      <point x="438.72182118804693" y="1516.3541960721054" type="line"/>
      <point x="665.7066177360165" y="1516.3541960721054" type="line"/>
      <point x="665.7066177360165" y="1569.657458563536" type="line"/>
      <point x="587.1645763600435" y="1587.828729281768"/>
      <point x="500.5607533169335" y="1608.0"/>
      <point x="399.51106988748637" y="1608.0" type="curve" smooth="yes"/>
      <point x="257.14767915473647" y="1608.0"/>
      <point x="181.60963019720128" y="1575.8492156309233"/>
    </contour>
  </outline>
</glyph>
<glyph name="backslash" format="2">
  <advance width="741.2374480783966"/>
  <unicode hex="005C"/>
  <outline>
    <contour>
      <point x="678.7674718715973" y="-354.0" type="line"/>
      <point x="158.156752833004" y="1562.0" type="line"/>
      <point x="36.84381175142155" y="1562.0" type="line"/>
      <point x="556.0070169778603" y="-354.0" type="line"/>
    </contour>
  </outline>
</glyph>
<glyph name="bracketright" format="2">
  <advance width="839.4769931846594"/>
  <unicode hex="005D"/>
  <outline>
    <contour>
      <point x="657.8673629874581" y="1410.5269992337785" type="line"/>
      <point x="657.8673629874581" y="1575.8492156309233"/>
      <point x="596.80445215147" y="1608.0"/>
      <point x="454.4410614187199" y="1608.0" type="curve" smooth="yes"/>
      <point x="353.3913779892729" y="1608.0"/>
      <point x="266.78755494616286" y="1587.828729281768"/>
      <point x="188.24551357018993" y="1569.657458563536" type="curve"/>
      <point x="188.24551357018993" y="1516.3541960721054" type="line"/>
      <point x="415.2303101181595" y="1516.3541960721054" type="line"/>
      <point x="415.2303101181595" y="-180.3541960721055" type="line"/>
      <point x="188.24551357018993" y="-180.3541960721055" type="line"/>
      <point x="188.24551357018993" y="-235.1049723756906" type="line"/>
      <point x="268.1016251965964" y="-255.82872928176795"/>
      <point x="355.77259345888615" y="-274.0"/>
      <point x="454.4410614187199" y="-274.0" type="curve" smooth="yes"/>
      <point x="596.80445215147" y="-274.0"/>
      <point x="657.8673629874581" y="-241.84921563092308"/>
      <point x="657.8673629874581" y="-76.52699923377827" type="curve" smooth="yes"/>
    </contour>
  </outline>
</glyph>
<glyph name="asciicircum" format="2">
  <advance width="1242.6775013106424"/>
  <unicode hex="005E"/>
  <outline>
    <contour>
      <point x="676.9712061942977" y="1496.0" type="line"/>
      <point x="560.918619187805" y="1496.0" type="line"/>
      <point x="159.86954067024234" y="266.92741057385973" type="line"/>
      <point x="279.37540831552207" y="266.92741057385973" type="line"/>
      <point x="621.3467758196556" y="1312.7858208654272" type="line"/>
      <point x="953.6186635480099" y="266.92741057385973" type="line"/>
      <point x="1082.2554744525548" y="266.92741057385973" type="line"/>
    </contour>
  </outline>
</glyph>
<glyph name="a" format="2">
  <advance width="1000.7506956486669"/>
  <unicode hex="0061"/>
  <anchor x="476.5993063677057" y="0.0" name="bottom"/>
  <anchor x="799.4548130822276" y="20.0" name="ogonek"/>
  <anchor x="497.9972174053313" y="1110.1901842964876" name="top"/>
  <outline>
    <contour>
      <point x="23.70153647618664" y="271.0090333508085" type="curve" smooth="yes"/>
      <point x="23.70153647618664" y="86.89293059644314"/>
      <point x="150.1363471387668" y="-20.904343267330727"/>
      <point x="316.36298745816026" y="-20.904343267330727" type="curve" smooth="yes"/>
      <point x="471.7862644674759" y="-20.904343267330727"/>
      <point x="580.3450417389201" y="77.2377706980683"/>
      <point x="617.876114046054" y="151.38484494092026" type="curve"/>
      <point x="617.876114046054" y="71.59458805500667" type="line" smooth="yes"/>
      <point x="617.876114046054" y="-5.111142476912529"/>
      <point x="662.5426866153164" y="-19.26737105294995"/>
      <point x="748.1833286284631" y="-19.26737105294995" type="curve" smooth="yes"/>
      <point x="837.0126224946565" y="-19.26737105294995"/>
      <point x="934.783723837561" y="0.839980642819695"/>
      <point x="978.4133967818688" y="11.266201556639915" type="curve"/>
      <point x="978.4133967818688" y="66.53022543049563" type="line"/>
      <point x="889.2852361172723" y="77.20167762229303" type="line"/>
      <point x="889.2852361172723" y="694.0879945154655" type="line" smooth="yes"/>
      <point x="889.2852361172723" y="953.0098802274467"/>
      <point x="767.5510343993225" y="1061.426503206033"/>
      <point x="524.5975722869701" y="1061.426503206033" type="curve" smooth="yes"/>
      <point x="305.3758115901117" y="1061.426503206033"/>
      <point x="145.11723192321654" y="969.1075936605233"/>
      <point x="81.04399725773278" y="910.2135742226882" type="curve"/>
      <point x="116.388797031899" y="839.61983304432" type="line"/>
      <point x="179.2035326854055" y="868.476267290398"/>
      <point x="287.59349921361456" y="910.4315441384039"/>
      <point x="422.7879178932935" y="910.4315441384039" type="curve" smooth="yes"/>
      <point x="559.710569826995" y="910.4315441384039"/>
      <point x="610.8814775980966" y="829.6920998507883"/>
      <point x="610.8814775980966" y="715.6800016130983" type="curve" smooth="yes"/>
      <point x="610.8814775980965" y="618.0784772351493" type="line"/>
      <point x="336.6031778037666" y="617.0723877888454"/>
      <point x="23.70153647618664" y="524.1648586522562"/>
    </contour>
    <contour>
      <point x="453.1153365326451" y="123.87631568334878" type="curve" smooth="yes"/>
      <point x="371.7584385207888" y="123.87631568334878"/>
      <point x="312.4078719199903" y="196.28019518490137"/>
      <point x="312.4078719199903" y="308.3575432511998" type="curve" smooth="yes"/>
      <point x="312.4078719199903" y="447.70706133806516"/>
      <point x="409.7734806629835" y="544.3051175545429"/>
      <point x="610.8814775980965" y="545.1740533129007" type="curve"/>
      <point x="610.8814775980965" y="199.8466750010082" type="line"/>
      <point x="571.8648626850022" y="151.83054401742146"/>
      <point x="508.9396701213856" y="123.87631568334878"/>
    </contour>
  </outline>
</glyph>
<glyph name="b" format="2">
  <advance width="1130.979271686091"/>
  <unicode hex="0062"/>
  <anchor x="521.0584344880428" y="-2.1712707182320443" name="bottom"/>
  <anchor x="752.826390289148" y="1110.7237569060774" name="top"/>
  <outline>
    <contour>
      <point x="-8.953179820139532" y="1503.2206315280073" type="line"/>
      <point x="117.4618300600879" y="1467.8317135137315" type="line"/>
      <point x="117.4618300600879" y="54.0" type="line"/>
      <point x="146.94588055006656" y="38.36129370488365"/>
      <point x="295.86167681574386" y="-22.0"/>
      <point x="566.6470944065815" y="-22.0" type="curve" smooth="yes"/>
      <point x="852.0955357502924" y="-22.0"/>
      <point x="1081.6055571238455" y="205.1425172399887"/>
      <point x="1081.6055571238458" y="573.5216356817358" type="curve" smooth="yes"/>
      <point x="1081.6055571238458" y="891.6826228979312"/>
      <point x="934.3344759446707" y="1067.1897406944388"/>
      <point x="683.9963705286931" y="1067.1897406944388" type="curve" smooth="yes"/>
      <point x="542.751018268339" y="1067.1897406944388"/>
      <point x="428.324515062306" y="975.8317135137315"/>
      <point x="395.19086986328995" y="918.7927975158285" type="curve"/>
      <point x="395.19086986328995" y="1600.4815098600639" type="line"/>
      <point x="348.40642013146754" y="1636.055893858128" type="line"/>
      <point x="318.5261120296811" y="1636.055893858128" type="line"/>
      <point x="-8.953179820139532" y="1556.7714239625761" type="line"/>
    </contour>
    <contour>
      <point x="569.2449489857644" y="935.1769568899463" type="curve" smooth="yes"/>
      <point x="682.7934024277131" y="935.1769568899463"/>
      <point x="777.1394926805663" y="831.6423760938824"/>
      <point x="776.2059926604026" y="534.2222849538251" type="curve" smooth="yes"/>
      <point x="775.2724926402387" y="213.93587934024276"/>
      <point x="700.8257853772634" y="50.65044158567568"/>
      <point x="551.4440859781427" y="50.65044158567571" type="curve" smooth="yes"/>
      <point x="482.5120377465016" y="50.650441585675686"/>
      <point x="416.89934266241886" y="80.68609105940233"/>
      <point x="395.1908698632899" y="122.57285155462355" type="curve"/>
      <point x="395.19086986328995" y="845.5075613985562" type="line"/>
      <point x="421.0601282413195" y="875.2370851312659"/>
      <point x="474.10553696011624" y="935.1769568899463"/>
    </contour>
  </outline>
</glyph>
<glyph name="c" format="2">
  <advance width="894.8066298342541"/>
  <unicode hex="0063"/>
  <anchor x="477.17127071823205" y="0.0" name="bottom"/>
  <anchor x="551.2486187845304" y="1110.0" name="top"/>
  <outline>
    <contour>
      <point x="36.248618784530386" y="489.38121546961327" type="curve" smooth="yes"/>
      <point x="36.248618784530386" y="185.89502762430936"/>
      <point x="193.73480662983425" y="-22.0"/>
      <point x="496.06629834254153" y="-22.0" type="curve" smooth="yes"/>
      <point x="648.2928176795579" y="-22.0"/>
      <point x="804.5193370165746" y="57.05524861878453"/>
      <point x="860.6629834254143" y="119.71270718232043" type="curve"/>
      <point x="836.7679558011049" y="170.18784530386742" type="line"/>
      <point x="783.4917127071824" y="127.74033149171271"/>
      <point x="685.3480662983425" y="98.38674033149171"/>
      <point x="617.3259668508286" y="98.38674033149171" type="curve" smooth="yes"/>
      <point x="455.5138121546961" y="98.38674033149171"/>
      <point x="348.0662983425415" y="231.38121546961327"/>
      <point x="348.0662983425415" y="538.7127071823204" type="curve" smooth="yes"/>
      <point x="348.0662983425415" y="854.8066298342541"/>
      <point x="430.9668508287293" y="987.5524861878453"/>
      <point x="544.5027624309392" y="987.5524861878453" type="curve" smooth="yes"/>
      <point x="615.8121546961327" y="987.5524861878453"/>
      <point x="643.4696132596686" y="927.2099447513812"/>
      <point x="656.1546961325967" y="871.7458563535912" type="curve" smooth="yes"/>
      <point x="697.6022099447513" y="686.5359116022098" type="line"/>
      <point x="847.4254143646409" y="686.5359116022098" type="line"/>
      <point x="858.0441988950276" y="973.2099447513813" type="line"/>
      <point x="799.6077348066299" y="981.4861878453038"/>
      <point x="713.5580110497239" y="1041.171270718232"/>
      <point x="548.4861878453039" y="1041.171270718232" type="curve" smooth="yes"/>
      <point x="244.07734806629836" y="1041.171270718232"/>
      <point x="36.248618784530386" y="819.779005524862"/>
    </contour>
  </outline>
</glyph>
<glyph name="d" format="2">
  <advance width="1133.6666935516396"/>
  <unicode hex="0064"/>
  <anchor x="573.9519699963705" y="0.0" name="bottom"/>
  <anchor x="540.2595071984514" y="570.7445255474453" name="center"/>
  <anchor x="332.1853853288705" y="1158.0" name="top"/>
  <anchor x="1141.174940516998" y="1110.7237569060774" name="topright"/>
  <outline>
    <contour>
      <point x="446.7005686171715" y="-22.533572609589868" type="curve" smooth="yes"/>
      <point x="596.62568052587" y="-22.53357260958987"/>
      <point x="707.7232326491109" y="65.10319796749607"/>
      <point x="748.3638746622576" y="144.789813283865" type="curve"/>
      <point x="748.3638746622576" y="70.8762753558898" type="line" smooth="yes"/>
      <point x="748.3638746622576" y="-6.107069403556883"/>
      <point x="804.1872000645238" y="-19.26737105294995"/>
      <point x="881.3286284631204" y="-19.26737105294995" type="curve" smooth="yes"/>
      <point x="966.5999112795904" y="-19.26737105294995"/>
      <point x="1066.0758962777757" y="0.45961204984473825"/>
      <point x="1112.7586804855425" y="11.266201556639915" type="curve"/>
      <point x="1112.7586804855425" y="72.5366778239303" type="line"/>
      <point x="1017.9418074767108" y="72.5366778239303" type="line"/>
      <point x="1017.9418074767108" y="1608.5643424607815" type="line"/>
      <point x="988.2686615316369" y="1636.055893858128" type="line"/>
      <point x="945.8890188329233" y="1636.055893858128" type="line"/>
      <point x="583.6735895471227" y="1568.9643505262734" type="line"/>
      <point x="583.6735895471227" y="1518.6122514820345" type="line"/>
      <point x="738.421865548252" y="1493.3692382143" type="line"/>
      <point x="738.421865548252" y="1027.5244182764045" type="line"/>
      <point x="704.0713392749124" y="1048.289147880792"/>
      <point x="635.988990603702" y="1066.9372101463887"/>
      <point x="561.1548171149738" y="1066.9372101463887" type="curve" smooth="yes"/>
      <point x="272.07738839375725" y="1066.9372101463887"/>
      <point x="45.66278178811953" y="856.7157720692019"/>
      <point x="45.66278178811953" y="477.7573900068557" type="curve" smooth="yes"/>
      <point x="45.66278178811953" y="140.3187079082147"/>
      <point x="230.5641408234867" y="-22.53357260958987"/>
    </contour>
    <contour>
      <point x="563.9061580029843" y="107.98394967133122" type="curve" smooth="yes"/>
      <point x="450.20450054442074" y="107.98394967133122"/>
      <point x="356.6043069726177" y="212.73230632737835"/>
      <point x="357.2750332701537" y="517.0567407347663" type="curve" smooth="yes"/>
      <point x="358.1359438641771" y="836.1703028592168"/>
      <point x="435.52833003992407" y="989.6350768238092"/>
      <point x="592.0216155180063" y="989.6350768238092" type="curve" smooth="yes"/>
      <point x="661.0248820421824" y="989.6350768238092"/>
      <point x="715.6172924144049" y="959.2358349800378"/>
      <point x="738.4218655482517" y="918.238214300117" type="curve"/>
      <point x="738.4218655482517" y="198.60511352179697" type="line"/>
      <point x="710.4102915675284" y="157.43323789168045"/>
      <point x="648.8149776182602" y="107.98394967133122"/>
    </contour>
  </outline>
</glyph>
<glyph name="e" format="2">
  <advance width="981.9545106262852"/>
  <unicode hex="0065"/>
  <anchor x="495.21192079687063" y="0.0" name="bottom"/>
  <anchor x="610.268621204178" y="20.0" name="ogonek"/>
  <anchor x="540.9459208775255" y="1110.0" name="top"/>
  <outline>
    <contour>
      <point x="530.2760817840867" y="-23.06714521917974" type="curve" smooth="yes"/>
      <point x="695.3681090454489" y="-23.06714521917974"/>
      <point x="856.4946566116868" y="58.919022462394636"/>
      <point x="917.4320683953705" y="123.93684719925795" type="curve"/>
      <point x="886.3092712828164" y="190.34697745695044" type="line"/>
      <point x="828.5020365366779" y="146.27749324515065"/>
      <point x="716.0703714158972" y="111.78005403879504"/>
      <point x="626.3318143323788" y="111.78005403879504" type="curve" smooth="yes"/>
      <point x="437.9360809775376" y="111.78005403879504"/>
      <point x="346.1109408396178" y="246.84941726821793"/>
      <point x="338.11263459289427" y="503.4592087752552" type="curve"/>
      <point x="932.3115699479775" y="503.4592087752552" type="line"/>
      <point x="941.6871395733353" y="538.013146751623"/>
      <point x="947.1931282009921" y="596.4673549219663"/>
      <point x="946.9894745332095" y="689.8039682219624" type="curve"/>
      <point x="942.5674073476632" y="932.6925434528371"/>
      <point x="793.8338911965158" y="1066.122595475259"/>
      <point x="539.8041295317981" y="1066.122595475259" type="curve" smooth="yes"/>
      <point x="251.47937250473854" y="1066.122595475259"/>
      <point x="35.339516877041575" y="854.8023551236037"/>
      <point x="35.339516877041575" y="503.94729201113034" type="curve" smooth="yes"/>
      <point x="35.339516877041575" y="183.69375327660603"/>
      <point x="191.13110456910113" y="-23.06714521917974"/>
    </contour>
    <contour>
      <point x="337.0139533008025" y="569.6158002984232" type="line"/>
      <point x="335.19308787353305" y="867.7966286244305"/>
      <point x="413.2340202443845" y="992.2201072710409"/>
      <point x="521.541839738678" y="992.2201072710409" type="curve" smooth="yes"/>
      <point x="626.7232326491107" y="992.2201072710409"/>
      <point x="658.685324837682" y="888.0829939105537"/>
      <point x="658.8305036899625" y="699.2040569423721" type="curve" smooth="yes"/>
      <point x="658.8305036899625" y="672.5106666128967"/>
      <point x="657.2378110255272" y="613.4274710650484"/>
      <point x="655.7390006855668" y="584.4865911198934" type="curve"/>
    </contour>
  </outline>
</glyph>
<glyph name="f" format="2">
  <advance width="670.50429487438"/>
  <unicode hex="0066"/>
  <anchor x="351.77428721216273" y="1616.7226277372263" name="top"/>
  <outline>
    <contour>
      <point x="179.90809372101464" y="88.18397386780659" type="line"/>
      <point x="48.4008549421301" y="58.95430898899061" type="line"/>
      <point x="48.4008549421301" y="0.0" type="line"/>
      <point x="621.2627737226278" y="0.0" type="line"/>
      <point x="621.2627737226278" y="58.95430898899061" type="line"/>
      <point x="456.657418236077" y="87.4413033834738" type="line"/>
      <point x="456.6574182360769" y="927.3932733798443" type="line"/>
      <point x="650.663386700004" y="927.3932733798443" type="line"/>
      <point x="650.663386700004" y="1032.7814251724" type="line"/>
      <point x="456.6574182360769" y="1032.7814251724" type="line"/>
      <point x="456.6574182360769" y="1316.702705972497" type="line" smooth="yes"/>
      <point x="456.65741823607704" y="1456.2204298907125"/>
      <point x="497.4652578941001" y="1496.814171069081"/>
      <point x="596.8868814775981" y="1496.814171069081" type="curve" smooth="yes"/>
      <point x="667.1088438117515" y="1496.814171069081"/>
      <point x="749.2203895632537" y="1471.6663306045084"/>
      <point x="789.1671169899586" y="1445.0460136306813" type="curve"/>
      <point x="789.357301286446" y="1646.2081300157276" type="line"/>
      <point x="772.4466669355164" y="1654.83098761947"/>
      <point x="737.9228132435375" y="1663.1220712182924"/>
      <point x="672.3464128725249" y="1663.1220712182924" type="curve" smooth="yes"/>
      <point x="432.616163245554" y="1663.1220712182924"/>
      <point x="179.90809372101464" y="1428.1561882485785"/>
      <point x="179.90809372101464" y="1116.7588417953784" type="curve" smooth="yes"/>
      <point x="179.90809372101464" y="1031.1248134855023" type="line"/>
      <point x="46.79957252893495" y="984.4040408113884" type="line"/>
      <point x="46.79957252893495" y="927.3932733798443" type="line"/>
      <point x="179.90809372101464" y="927.3932733798443" type="line"/>
    </contour>
  </outline>
</glyph>
<glyph name="g" format="2">
  <advance width="1123.4469492277292"/>
  <unicode hex="0067"/>
  <anchor x="559.7219824978828" y="0.0" name="bottom"/>
  <anchor x="556.8201798604669" y="1110.1901842964874" name="top"/>
  <outline>
    <contour>
      <point x="501.66979876597986" y="-493.3225793442755" type="curve"/>
      <point x="835.7831592531354" y="-493.3225793442755"/>
      <point x="1105.4119853208051" y="-339.95317982013955"/>
      <point x="1105.4119853208051" y="-87.0802919708029" type="curve" smooth="yes"/>
      <point x="1105.4119853208051" y="76.56841553413722"/>
      <point x="980.1191676412469" y="176.86651611081984"/>
      <point x="745.6769367262169" y="176.86651611081984" type="curve" smooth="yes"/>
      <point x="516.3274186393515" y="176.86651611081984" type="line" smooth="yes"/>
      <point x="360.94878412711216" y="176.86651611081984"/>
      <point x="306.5166754042828" y="203.98697423075373"/>
      <point x="306.5166754042828" y="273.8507884018228" type="curve" smooth="yes"/>
      <point x="306.5166754042828" y="315.10303665766025"/>
      <point x="325.9683429447111" y="339.6407226680647"/>
      <point x="351.2543049562447" y="361.35121184014196" type="curve"/>
      <point x="395.042626124128" y="353.6078961164657"/>
      <point x="460.35113118522395" y="349.1951445739404"/>
      <point x="515.7447675121989" y="349.1951445739404" type="curve" smooth="yes"/>
      <point x="777.2353107230713" y="349.1951445739404"/>
      <point x="979.1265072387787" y="487.0879541880066"/>
      <point x="978.9363229422912" y="711.0141549380974" type="curve" smooth="yes"/>
      <point x="978.9363229422912" y="768.6762511594145"/>
      <point x="961.4101705851515" y="846.4539258781303"/>
      <point x="942.7245634552567" y="869.6295519619308" type="curve"/>
      <point x="1111.658910352059" y="869.8332056297132" type="line"/>
      <point x="1111.862564019841" y="1060.9570109287415" type="line"/>
      <point x="1060.1478001371133" y="1060.9570109287415" type="line" smooth="yes"/>
      <point x="978.6773400008067" y="1060.9570109287415"/>
      <point x="915.0575876114045" y="1013.1438883735937"/>
      <point x="889.021736500383" y="953.3711739323305" type="curve"/>
      <point x="816.1050530306085" y="1028.0208492962859"/>
      <point x="707.9368875267169" y="1059.670847279913"/>
      <point x="548.2661612291811" y="1059.670847279913" type="curve" smooth="yes"/>
      <point x="297.158043311691" y="1059.670847279913"/>
      <point x="82.79699157156108" y="927.4273500826713"/>
      <point x="82.79699157156108" y="702.8947856595556" type="curve" smooth="yes"/>
      <point x="82.79699157156108" y="562.2501109005121"/>
      <point x="143.73702464007744" y="442.12138565149013"/>
      <point x="294.17691656248735" y="379.59055530910996" type="curve"/>
      <point x="195.08049360809778" y="336.30741621970407"/>
      <point x="126.7779166834698" y="262.6487881598581"/>
      <point x="126.77791668346978" y="164.42896318102996" type="curve" smooth="yes"/>
      <point x="126.77791668346975" y="80.66358833729886"/>
      <point x="162.62769689881839" y="20.418921643747236"/>
      <point x="234.64390853732309" y="-21.4210186716135" type="curve"/>
      <point x="111.51139250715813" y="-45.58253014477558"/>
      <point x="22.783643182643065" y="-124.59906440295197"/>
      <point x="22.783643182643065" y="-232.7833608904303" type="curve" smooth="yes"/>
      <point x="22.783643182643065" y="-426.9779005524862"/>
      <point x="264.62664838488524" y="-493.3225793442755"/>
    </contour>
    <contour>
      <point x="532.3842803564947" y="-414.6736702020405" type="curve"/>
      <point x="382.8790579505586" y="-414.1400975924507"/>
      <point x="254.35625277251276" y="-340.88849457595677"/>
      <point x="254.35625277251276" y="-182.21950235915637" type="curve" smooth="yes"/>
      <point x="254.35625277251276" y="-107.89252732185345"/>
      <point x="277.4008549421301" y="-69.848126789531"/>
      <point x="302.37980400854946" y="-43.18300600879139" type="curve"/>
      <point x="347.7447271847401" y="-53.17139170060894"/>
      <point x="414.019397507763" y="-61.447997741662306"/>
      <point x="481.50368996249546" y="-61.447997741662306" type="curve" smooth="yes"/>
      <point x="660.8055813203209" y="-61.447997741662306" type="line" smooth="yes"/>
      <point x="800.2209138202201" y="-61.447997741662306"/>
      <point x="851.0767028269548" y="-107.92047425091745"/>
      <point x="851.0767028269548" y="-196.6575795459128" type="curve" smooth="yes"/>
      <point x="851.0767028269548" y="-343.0564181150946"/>
      <point x="723.6533451627213" y="-415.2072428116304"/>
    </contour>
    <contour>
      <point x="526.7432753962173" y="420.9793926684679" type="curve" smooth="yes"/>
      <point x="418.54216235834974" y="420.9793926684679"/>
      <point x="369.79683026172523" y="542.8999475743033"/>
      <point x="369.79683026172523" y="712.4800177440819" type="curve" smooth="yes"/>
      <point x="369.79683026172523" y="904.1427188772836"/>
      <point x="431.07125861999435" y="989.0277049643103"/>
      <point x="538.9995160704925" y="989.0277049643103" type="curve" smooth="yes"/>
      <point x="641.5470419808848" y="989.0277049643103"/>
      <point x="694.0689196273742" y="874.810460942856"/>
      <point x="694.0689196273742" y="707.0105657942494" type="curve" smooth="yes"/>
      <point x="694.0689196273742" y="512.0360527483164"/>
      <point x="638.2020002419647" y="420.9793926684679"/>
    </contour>
  </outline>
</glyph>
<glyph name="h" format="2">
  <advance width="1193.917490018954"/>
  <unicode hex="0068"/>
  <anchor x="611.3299995967254" y="0.0" name="bottom"/>
  <anchor x="254.19978223172157" y="1287.2872928176796" name="center"/>
  <anchor x="244.29051901439695" y="1597.657458563536" name="top"/>
  <outline>
    <contour>
      <point x="136.47025849901195" y="87.84861071903859" type="line"/>
      <point x="22.1680445215147" y="58.95430898899061" type="line"/>
      <point x="22.1680445215147" y="0.0" type="line"/>
      <point x="534.9301931685285" y="0.0" type="line"/>
      <point x="534.9301931685285" y="58.95430898899061" type="line"/>
      <point x="420.21651812719284" y="88.18397386780659" type="line"/>
      <point x="420.21651812719284" y="825.0331894987297" type="line"/>
      <point x="474.3515747872727" y="867.0268177602129"/>
      <point x="549.0332701536477" y="903.449570512562"/>
      <point x="638.7951365084484" y="903.449570512562" type="curve" smooth="yes"/>
      <point x="754.0930354478365" y="903.449570512562"/>
      <point x="781.2957615840627" y="819.5471226358028"/>
      <point x="781.2957615840627" y="659.5337339194258" type="curve" smooth="yes"/>
      <point x="781.2957615840627" y="88.11138444166632" type="line"/>
      <point x="684.2076057587612" y="58.95430898899061" type="line"/>
      <point x="684.2076057587612" y="0.0" type="line"/>
      <point x="1178.2382546275758" y="0.0" type="line"/>
      <point x="1178.2382546275758" y="58.95430898899061" type="line"/>
      <point x="1065.235633342743" y="88.11138444166632" type="line"/>
      <point x="1065.235633342743" y="661.0043150381096" type="line" smooth="yes"/>
      <point x="1065.235633342743" y="937.7346856474574"/>
      <point x="988.4310198814375" y="1061.8550227850144"/>
      <point x="769.9983465741823" y="1061.8550227850144" type="curve" smooth="yes"/>
      <point x="611.2799935476066" y="1061.8550227850144"/>
      <point x="484.73270960196794" y="965.1497761826027"/>
      <point x="412.1279186998428" y="879.8428842198653" type="curve"/>
      <point x="418.69504375529294" y="1037.2785014316248" type="line"/>
      <point x="418.50485945880547" y="1600.0561358228817" type="line"/>
      <point x="368.4477557769085" y="1636.055893858128" type="line"/>
      <point x="338.91083598822433" y="1636.055893858128" type="line"/>
      <point x="9.429527765455498" y="1556.7714239625761" type="line"/>
      <point x="9.429527765455498" y="1502.079525749083" type="line"/>
      <point x="136.47025849901195" y="1466.6906077348065" type="line"/>
    </contour>
  </outline>
</glyph>
<glyph name="k" format="2">
  <advance width="1149.3508892204702"/>
  <unicode hex="006B"/>
  <anchor x="651.77517441626" y="0.0" name="bottom"/>
  <anchor x="625.3124974795339" y="1601.0802919708028" name="top"/>
  <outline>
    <contour>
      <point x="134.83300399241844" y="87.65040125821672" type="line"/>
      <point x="19.39512844295682" y="58.420736379400736" type="line"/>
      <point x="19.39512844295682" y="0.0" type="line"/>
      <point x="532.8099366858895" y="0.0" type="line"/>
      <point x="532.8099366858895" y="57.88716376981086" type="line"/>
      <point x="416.7224260999314" y="87.65040125821672" type="line"/>
      <point x="416.7224260999314" y="243.56934306569343" type="line"/>
      <point x="410.38290922288985" y="361.6719764487639" type="line"/>
      <point x="558.2743073758922" y="519.5163527846111" type="line"/>
      <point x="779.5241359841917" y="87.65040125821672" type="line"/>
      <point x="671.8912368431664" y="58.954308988990604" type="line"/>
      <point x="675.6262451102956" y="0.0" type="line"/>
      <point x="1207.0092349881033" y="0.0" type="line"/>
      <point x="1207.0092349881033" y="59.3616163245554" type="line"/>
      <point x="1102.4715489776988" y="87.31503810944872" type="line"/>
      <point x="749.1975238940194" y="712.7716255998708" type="line"/>
      <point x="964.3095132475703" y="944.2377303706094" type="line"/>
      <point x="1101.8718796628625" y="974.0690406097511" type="line"/>
      <point x="1101.8718796628625" y="1032.5912408759125" type="line"/>
      <point x="673.9560833971854" y="1032.5912408759125" type="line"/>
      <point x="673.9560833971854" y="974.0690406097511" type="line"/>
      <point x="826.8122756785096" y="944.2612412791871" type="line"/>
      <point x="411.1705851514296" y="467.9785054643707" type="line"/>
      <point x="416.91261039641887" y="643.9779005524862" type="line"/>
      <point x="416.91261039641887" y="1599.522563213292" type="line"/>
      <point x="367.72444247287984" y="1636.055893858128" type="line"/>
      <point x="338.3327015364762" y="1636.055893858128" type="line"/>
      <point x="9.963100375045366" y="1556.7714239625761" type="line"/>
      <point x="9.963100375045366" y="1502.0795257490827" type="line"/>
      <point x="134.83300399241844" y="1466.6906077348065" type="line"/>
    </contour>
  </outline>
</glyph>
<glyph name="l" format="2">
  <advance width="560.2032503931928"/>
  <unicode hex="006C"/>
  <anchor x="294.97003669798767" y="0.0" name="bottom"/>
  <anchor x="280.53280638786947" y="1634.0" name="top"/>
  <anchor x="594.1813525829738" y="1110.7237569060774" name="topright"/>
  <outline>
    <contour>
      <point x="144.84014195265553" y="88.71754647739645" type="line"/>
      <point x="22.78501431624793" y="58.42073637940074" type="line"/>
      <point x="22.78501431624793" y="0.0" type="line"/>
      <point x="546.5725692624109" y="0.0" type="line"/>
      <point x="546.5725692624109" y="58.42073637940074" type="line"/>
      <point x="422.9945557930395" y="87.84861071903858" type="line"/>
      <point x="422.9945557930395" y="1600.056135822882" type="line"/>
      <point x="376.8176392305521" y="1636.055893858128" type="line"/>
      <point x="347.95947090373835" y="1636.055893858128" type="line"/>
      <point x="18.964148888978507" y="1556.7714239625761" type="line"/>
      <point x="18.964148888978507" y="1502.079525749083" type="line"/>
      <point x="144.84014195265553" y="1466.6906077348065" type="line"/>
    </contour>
  </outline>
</glyph>
<glyph name="m" format="2">
  <advance width="1834.722708392144"/>
  <unicode hex="006D"/>
  <anchor x="932.5390974714683" y="0.0" name="bottom"/>
  <anchor x="932.4480380691211" y="1110.7237569060774" name="top"/>
  <outline>
    <contour>
      <point x="35.4470298826471" y="0.0" type="line"/>
      <point x="546.2109126103965" y="0.0" type="line"/>
      <point x="546.2109126103965" y="58.95430898899059" type="line"/>
      <point x="433.58007016977865" y="88.1839738678066" type="line"/>
      <point x="433.58007016977865" y="825.0331894987297" type="line"/>
      <point x="486.58406258821617" y="866.6014437230309"/>
      <point x="560.4552970117354" y="902.6349558414324"/>
      <point x="650.5470823083438" y="902.6349558414324" type="curve" smooth="yes"/>
      <point x="763.8799451546557" y="902.6349558414324"/>
      <point x="790.8781707464613" y="819.9186191878051"/>
      <point x="790.8781707464613" y="659.5337339194258" type="curve" smooth="yes"/>
      <point x="790.8781707464613" y="88.1839738678066" type="line"/>
      <point x="694.585595031657" y="58.95430898899059" type="line"/>
      <point x="694.585595031657" y="0.0" type="line"/>
      <point x="1187.3952897527925" y="0.0" type="line"/>
      <point x="1187.3952897527925" y="58.95430898899059" type="line"/>
      <point x="1075.9456789127714" y="88.18397386780659" type="line"/>
      <point x="1076.1493325805538" y="679.6793563737549" type="line" smooth="yes"/>
      <point x="1076.1493325805538" y="732.0030648868816"/>
      <point x="1071.6118885349033" y="792.9698350606928"/>
      <point x="1064.3193128200994" y="828.2029277735211" type="curve"/>
      <point x="1114.677823930314" y="870.3675444610236"/>
      <point x="1189.2362785820865" y="902.780134693713"/>
      <point x="1277.1808686534664" y="902.780134693713" type="curve" smooth="yes"/>
      <point x="1391.837117393233" y="902.780134693713"/>
      <point x="1421.326773400008" y="819.1027140379886"/>
      <point x="1421.326773400008" y="657.9120861394523" type="curve" smooth="yes"/>
      <point x="1421.326773400008" y="87.65040125821672" type="line"/>
      <point x="1327.136387466226" y="58.954308988990604" type="line"/>
      <point x="1327.136387466226" y="0.0" type="line"/>
      <point x="1819.0434730007662" y="0.0" type="line"/>
      <point x="1819.0434730007662" y="58.954308988990604" type="line"/>
      <point x="1706.0723877888456" y="87.65040125821672" type="line"/>
      <point x="1706.0723877888456" y="661.484857039158" type="line" smooth="yes"/>
      <point x="1706.0723877888456" y="938.6767350889219"/>
      <point x="1624.5401056579421" y="1061.040408113885"/>
      <point x="1408.7026656450378" y="1061.040408113885" type="curve" smooth="yes"/>
      <point x="1255.6168891398154" y="1061.040408113885"/>
      <point x="1125.883493971045" y="971.7054482397064"/>
      <point x="1050.981852643465" y="879.96955276848" type="curve"/>
      <point x="1012.2767270234301" y="1000.8698632899141"/>
      <point x="932.2477719078921" y="1061.040408113885"/>
      <point x="782.2656772996733" y="1061.040408113885" type="curve" smooth="yes"/>
      <point x="634.7730773883937" y="1061.040408113885"/>
      <point x="500.0081461467112" y="968.763277815865"/>
      <point x="422.84094850183493" y="878.269669718111" type="curve"/>
      <point x="423.1763116506029" y="1009.6902447876762" type="line"/>
      <point x="383.97064160987213" y="1054.3611323950481" type="line"/>
      <point x="345.93716981892965" y="1056.683994031536" type="line"/>
      <point x="30.525224825583734" y="974.2323668185668" type="line"/>
      <point x="30.525224825583734" y="911.5324031132798" type="line"/>
      <point x="149.03266524176314" y="869.8217526313667" type="line"/>
      <point x="149.03266524176314" y="88.1839738678066" type="line"/>
      <point x="35.4470298826471" y="58.95430898899059" type="line"/>
    </contour>
  </outline>
</glyph>
<glyph name="n" format="2">
  <advance width="1209.1929265636973"/>
  <unicode hex="006E"/>
  <anchor x="618.3118925676495" y="0.0" name="bottom"/>
  <anchor x="591.3781909101908" y="1110.7237569060774" name="top"/>
  <outline>
    <contour>
      <point x="149.03266524176314" y="88.18397386780659" type="line"/>
      <point x="34.06057184336815" y="58.95430898899061" type="line"/>
      <point x="34.06057184336815" y="0.0" type="line"/>
      <point x="546.3480662983427" y="0.0" type="line"/>
      <point x="546.3480662983427" y="58.95430898899061" type="line"/>
      <point x="433.58007016977865" y="88.18397386780659" type="line"/>
      <point x="433.58007016977865" y="824.6978263499617" type="line"/>
      <point x="486.3938782917287" y="865.5053433883131"/>
      <point x="549.6803645602291" y="903.449570512562"/>
      <point x="651.5531717546477" y="903.449570512562" type="curve" smooth="yes"/>
      <point x="764.8860346009598" y="903.449570512562"/>
      <point x="797.1417510182685" y="820.7332338589346"/>
      <point x="797.1417510182685" y="660.3483485905554" type="curve" smooth="yes"/>
      <point x="797.1417510182683" y="87.84861071903862" type="line"/>
      <point x="701.7652538613544" y="58.95430898899061" type="line"/>
      <point x="701.7652538613544" y="0.0" type="line"/>
      <point x="1193.5136911723193" y="0.0" type="line"/>
      <point x="1193.5136911723193" y="59.144493285478084" type="line"/>
      <point x="1082.4129128523614" y="87.84861071903862" type="line"/>
      <point x="1082.4129128523614" y="663.3404040811389" type="line" smooth="yes"/>
      <point x="1082.4129128523614" y="941.5282090575474"/>
      <point x="999.0070169778603" y="1061.8550227850144"/>
      <point x="783.752308747026" y="1061.8550227850144" type="curve" smooth="yes"/>
      <point x="627.5063515747873" y="1061.8550227850144"/>
      <point x="498.8670403677865" y="966.86143485099"/>
      <point x="422.8409485018349" y="877.5828930919064" type="curve"/>
      <point x="425.5007863854499" y="944.2007097632778" type="line"/>
      <point x="425.5007863854499" y="1020.4523531072308" type="line"/>
      <point x="380.0576682663226" y="1056.683994031536" type="line"/>
      <point x="345.93716981892976" y="1056.683994031536" type="line"/>
      <point x="30.525224825583734" y="974.2323668185669" type="line"/>
      <point x="30.525224825583734" y="911.5324031132798" type="line"/>
      <point x="149.03266524176314" y="869.8217526313666" type="line"/>
    </contour>
  </outline>
</glyph>
<glyph name="o" format="2">
  <advance width="1102.6027745291772"/>
  <unicode hex="006F"/>
  <anchor x="552.3175787393636" y="0.0" name="bottom"/>
  <anchor x="551.9687462193007" y="520.1978061862321" name="center"/>
  <anchor x="604.1910311731259" y="16.65645037706174" name="ogonek"/>
  <anchor x="553.8390531112635" y="1110.1901842964874" name="top"/>
  <anchor x="757.6118078799856" y="1032.7814251723998" name="topright"/>
  <outline>
    <contour>
      <point x="40.38766786304795" y="506.18131225551485" type="curve" smooth="yes"/>
      <point x="40.38766786304795" y="175.10715005847482"/>
      <point x="218.82179295882565" y="-23.06714521917974"/>
      <point x="532.5295398636932" y="-23.06714521917974" type="curve" smooth="yes"/>
      <point x="805.4974795338145" y="-23.06714521917974"/>
      <point x="1062.2151066661288" y="155.2801951849014"/>
      <point x="1062.2151066661288" y="535.6318506270919" type="curve" smooth="yes"/>
      <point x="1062.2151066661288" y="865.1052949953622"/>
      <point x="890.4514255756744" y="1065.5401459854015"/>
      <point x="570.4940113723433" y="1065.5401459854015" type="curve" smooth="yes"/>
      <point x="298.2498286082994" y="1065.5401459854015"/>
      <point x="40.38766786304795" y="885.3044319877405"/>
    </contour>
    <contour>
      <point x="554.1265475662378" y="50.98052183731903" type="curve" smooth="yes"/>
      <point x="403.85554704198097" y="50.98052183731903"/>
      <point x="357.3335080856555" y="256.8247368633302"/>
      <point x="357.3335080856555" y="534.2386579021656" type="curve" smooth="yes"/>
      <point x="357.3335080856555" y="851.2838649836674"/>
      <point x="420.56035004234394" y="991.4924789289026"/>
      <point x="554.2616848812357" y="991.4924789289026" type="curve" smooth="yes"/>
      <point x="701.1330402871314" y="991.4924789289026"/>
      <point x="745.9560430697263" y="785.293987175868"/>
      <point x="745.9560430697263" y="506.50735976126145" type="curve" smooth="yes"/>
      <point x="745.9560430697263" y="193.54599346695167"/>
      <point x="683.0068153405655" y="50.98052183731903"/>
    </contour>
  </outline>
</glyph>
<glyph name="p" format="2">
  <advance width="1156.5338952292614"/>
  <unicode hex="0070"/>
  <anchor x="626.3310077831994" y="1111.4475138121547" name="top"/>
  <outline>
    <contour>
      <point x="1107.160180667016" y="565.7420655724484" type="curve" smooth="yes"/>
      <point x="1107.1601806670162" y="891.4789692301489"/>
      <point x="958.7929991531232" y="1067.3933943622212"/>
      <point x="708.586603218131" y="1067.3933943622212" type="curve" smooth="yes"/>
      <point x="563.848005807154" y="1067.3933943622212"/>
      <point x="446.5316368915595" y="971.2739041013026"/>
      <point x="414.321974432391" y="911.4768318748235" type="curve"/>
      <point x="416.9898374803404" y="1020.2486994394483" type="line"/>
      <point x="371.29806024922374" y="1056.683994031536" type="line"/>
      <point x="339.33233858934545" y="1056.683994031536" type="line"/>
      <point x="24.11517522280922" y="974.0421825220793" type="line"/>
      <point x="24.11517522280922" y="911.5324031132798" type="line"/>
      <point x="143.35181675202648" y="870.0119369278542" type="line"/>
      <point x="143.88538936161635" y="-377.41291285236116" type="line"/>
      <point x="24.82243819816913" y="-408.2642255111506" type="line"/>
      <point x="24.82243819816913" y="-465.84223898052187" type="line"/>
      <point x="564.5088115497844" y="-465.84223898052187" type="line"/>
      <point x="564.5088115497844" y="-408.2642255111506" type="line"/>
      <point x="421.1258619994354" y="-377.6165665201435" type="line"/>
      <point x="421.1258619994354" y="-163.09868129209178" type="line"/>
      <point x="418.87978384481994" y="2.944146469330965" type="line"/>
      <point x="448.7451707867887" y="-9.410977134330764"/>
      <point x="521.1101342904384" y="-22.0"/>
      <point x="593.2078073960558" y="-22.0" type="curve" smooth="yes"/>
      <point x="882.055934185587" y="-22.0"/>
      <point x="1107.1601806670162" y="209.1679235391378"/>
    </contour>
    <contour>
      <point x="595.1799411219098" y="937.6628221155784" type="curve" smooth="yes"/>
      <point x="708.7553333064483" y="937.6628221155784"/>
      <point x="802.095979352341" y="832.5617615034076"/>
      <point x="802.095979352341" y="528.6829051901441" type="curve" smooth="yes"/>
      <point x="802.0959793523409" y="207.2663628664758"/>
      <point x="723.5073194338026" y="51.591200548453465"/>
      <point x="576.8085252248256" y="51.591200548453465" type="curve" smooth="yes"/>
      <point x="507.7211356212445" y="51.591200548453465"/>
      <point x="443.9754405774893" y="82.87829172883816"/>
      <point x="421.12586199943536" y="122.9880630721458" type="curve"/>
      <point x="421.1258619994355" y="849.2313989595516" type="line"/>
      <point x="446.4245674880026" y="878.9609226922612"/>
      <point x="500.58757107714655" y="937.6628221155784"/>
    </contour>
  </outline>
</glyph>
<glyph name="q" format="2">
  <advance width="1122.1754244465058"/>
  <unicode hex="0071"/>
  <outline>
    <contour>
      <point x="566.1905472436183" y="-465.84223898052187" type="line"/>
      <point x="1130.9901601000122" y="-465.84223898052187" type="line"/>
      <point x="1130.9901601000122" y="-408.1527200871073" type="line"/>
      <point x="1017.3908940597654" y="-378.22881800217766" type="line"/>
      <point x="1017.3908940597654" y="1027.7472274871961" type="line"/>
      <point x="972.8155825301448" y="1058.0002016372948" type="line"/>
      <point x="946.9616082590637" y="1058.0002016372948" type="line"/>
      <point x="817.7392426503206" y="1011.5814413033836" type="line"/>
      <point x="762.5632132919305" y="1032.5015122797113"/>
      <point x="685.2661612291809" y="1066.3262491430417"/>
      <point x="570.3533895229261" y="1066.3262491430417" type="curve" smooth="yes"/>
      <point x="272.54861475178444" y="1066.3262491430417"/>
      <point x="46.4773964592491" y="855.825059483002"/>
      <point x="46.4773964592491" y="478.9536637496471" type="curve" smooth="yes"/>
      <point x="46.4773964592491" y="145.8076380207283"/>
      <point x="232.38484494092026" y="-22.53357260958987"/>
      <point x="448.27132314392867" y="-22.53357260958987" type="curve" smooth="yes"/>
      <point x="597.2396257611807" y="-22.53357260958987"/>
      <point x="701.6360446828245" y="61.960075815622865"/>
      <point x="742.8392144210992" y="126.69359196677017" type="curve"/>
      <point x="740.1954268661532" y="-46.0" type="line"/>
      <point x="740.1954268661532" y="-378.0386337056902" type="line"/>
      <point x="566.1905472436183" y="-408.1527200871073" type="line"/>
    </contour>
    <contour>
      <point x="566.3504456184216" y="106.68750252046621" type="curve" smooth="yes"/>
      <point x="451.978061862322" y="106.68750252046621"/>
      <point x="357.98947453320966" y="215.24107754970356"/>
      <point x="358.6602008307456" y="514.1376376174536" type="curve" smooth="yes"/>
      <point x="359.14074283179417" y="834.606283018107"/>
      <point x="437.25688591361865" y="990.4657418236078"/>
      <point x="592.5008670403677" y="990.4657418236078" type="curve" smooth="yes"/>
      <point x="662.161390490785" y="990.4657418236078"/>
      <point x="716.2122030890832" y="959.5316368915594"/>
      <point x="739.6618542565633" y="919.2047425091745" type="curve"/>
      <point x="739.6618542565633" y="196.19695930959392" type="line"/>
      <point x="710.9265233697624" y="156.13679074081543"/>
      <point x="650.9470903738354" y="106.68750252046621"/>
    </contour>
  </outline>
</glyph>
<glyph name="r" format="2">
  <advance width="818.1921603419769"/>
  <unicode hex="0072"/>
  <anchor x="297.0355688188087" y="0.0" name="bottom"/>
  <anchor x="436.7215388958341" y="1110.1901842964876" name="top"/>
  <outline>
    <contour>
      <point x="28.825745049804407" y="0.0" type="line"/>
      <point x="599.4057748921241" y="0.0" type="line"/>
      <point x="599.4057748921241" y="58.4737669879421" type="line"/>
      <point x="431.183489938299" y="88.23700447634795" type="line"/>
      <point x="430.6499173287091" y="727.0077428721218" type="line"/>
      <point x="478.8245755534944" y="785.6360850102836"/>
      <point x="553.6154373512924" y="812.9516877041577"/>
      <point x="648.6110416582651" y="812.9516877041577" type="curve" smooth="yes"/>
      <point x="706.1540912207122" y="812.9516877041577"/>
      <point x="745.3279025688591" y="793.5236520546838"/>
      <point x="763.3054401742146" y="778.9682622897931" type="curve"/>
      <point x="763.3054401742146" y="1044.6636286647579" type="line"/>
      <point x="750.6031778037666" y="1050.8348993829898"/>
      <point x="731.8458684518288" y="1055.7353712142597"/>
      <point x="701.6893575835786" y="1055.7353712142597" type="curve" smooth="yes"/>
      <point x="543.049885066742" y="1055.7353712142597"/>
      <point x="431.7316207605759" y="860.9579787877567"/>
      <point x="416.9571319111183" y="792.5132475702707" type="curve"/>
      <point x="410.98951486066863" y="788.4401742146227" type="line"/>
      <point x="416.29729402750326" y="967.7567044400532" type="line"/>
      <point x="416.5009476952856" y="1021.5194983264106" type="line"/>
      <point x="369.4336008388111" y="1056.683994031536" type="line"/>
      <point x="334.6436665725692" y="1056.683994031536" type="line"/>
      <point x="29.803322982618866" y="974.2323668185668" type="line"/>
      <point x="29.803322982618866" y="910.99883050369" type="line"/>
      <point x="147.9673750856959" y="869.8217526313667" type="line"/>
      <point x="147.9673750856959" y="87.36806871799007" type="line"/>
      <point x="28.825745049804407" y="58.61894584022261" type="line"/>
    </contour>
  </outline>
</glyph>
<glyph name="s" format="2">
  <advance width="888.9945154655805"/>
  <unicode hex="0073"/>
  <anchor x="432.3785135298625" y="-6.513812154696133" name="bottom"/>
  <anchor x="463.8021534863088" y="1110.7237569060774" name="top"/>
  <outline>
    <contour>
      <point x="191.77791668346978" y="307.4054119449933" type="line"/>
      <point x="62.03528652659596" y="307.4054119449933" type="line"/>
      <point x="57.23313304028713" y="48.60866233818608" type="line"/>
      <point x="121.99044239222486" y="41.559301528410685"/>
      <point x="264.3656490704521" y="-23.193410493204823"/>
      <point x="428.85478082026054" y="-23.193410493204823" type="curve" smooth="yes"/>
      <point x="713.2274468685729" y="-23.193410493204823"/>
      <point x="838.6772190184297" y="114.11557849739891"/>
      <point x="838.6772190184297" y="307.7637214179135" type="curve" smooth="yes"/>
      <point x="838.6772190184297" y="479.4458603863371"/>
      <point x="686.3224986893575" y="562.1609065612777"/>
      <point x="525.4100092753156" y="636.1011412670888" type="curve" smooth="yes"/>
      <point x="397.44110174617896" y="695.8226801629229"/>
      <point x="278.8807113763761" y="742.6994797757793"/>
      <point x="278.8807113763761" y="854.4623946445136" type="curve" smooth="yes"/>
      <point x="278.8807113763761" y="944.0055651893374"/>
      <point x="361.14239625761184" y="995.9508811549784"/>
      <point x="453.67830785982176" y="995.8782917288381" type="curve" smooth="yes"/>
      <point x="549.6570552889461" y="995.8057023026979"/>
      <point x="605.6591926442716" y="949.9108359882243"/>
      <point x="627.9720530709359" y="875.3889986691939" type="curve"/>
      <point x="666.8818405452272" y="749.2458361898617" type="line"/>
      <point x="780.5515183288302" y="749.2458361898617" type="line"/>
      <point x="786.4208170343187" y="1005.3162882606766" type="line"/>
      <point x="728.2070815017947" y="1013.5805540992861"/>
      <point x="637.2992700729927" y="1064.330402871315"/>
      <point x="462.10291567528327" y="1064.330402871315" type="curve" smooth="yes"/>
      <point x="209.23809331774004" y="1064.330402871315"/>
      <point x="62.413316126950825" y="941.5472436181798"/>
      <point x="62.413316126950825" y="763.3728273581482" type="curve" smooth="yes"/>
      <point x="62.413316126950825" y="578.9919748356656"/>
      <point x="189.67125055450256" y="480.27551719966124"/>
      <point x="350.6021696172925" y="409.32217606968584" type="curve" smooth="yes"/>
      <point x="526.2330927128281" y="330.63467354921966"/>
      <point x="627.2732185345001" y="281.2987054885672"/>
      <point x="627.2732185345001" y="189.38270758559506" type="curve" smooth="yes"/>
      <point x="627.2732185345001" y="110.44263418961967"/>
      <point x="568.8899060370208" y="47.79227325886196"/>
      <point x="440.66024115820466" y="47.79227325886196" type="curve" smooth="yes"/>
      <point x="340.83772230511755" y="47.79227325886196"/>
      <point x="258.41254990523043" y="103.17897326289471"/>
      <point x="231.97915070371417" y="174.15884986087028" type="curve"/>
    </contour>
  </outline>
</glyph>
<glyph name="t" format="2">
  <advance width="640.5082872928176"/>
  <unicode hex="0074"/>
  <anchor x="335.43646408839777" y="0.0" name="bottom"/>
  <anchor x="269.6629834254144" y="556.0" name="center"/>
  <anchor x="322.4806629834255" y="1378.9502762430939" name="top"/>
  <anchor x="592.585635359116" y="1110.7237569060774" name="topright"/>
  <outline>
    <contour>
      <point x="343.0552486187845" y="-22.685082872928177" type="curve" smooth="yes"/>
      <point x="494.64088397790056" y="-22.685082872928177"/>
      <point x="587.5745856353592" y="31.066298342541437"/>
      <point x="643.9834254143647" y="82.92265193370164" type="curve"/>
      <point x="616.8508287292817" y="138.56906077348066" type="line"/>
      <point x="582.1270718232043" y="118.01657458563537"/>
      <point x="530.2486187845304" y="97.292817679558"/>
      <point x="492.2486187845304" y="97.292817679558" type="curve" smooth="yes"/>
      <point x="437.8784530386741" y="97.292817679558"/>
      <point x="414.2209944751381" y="114.95027624309392"/>
      <point x="414.2209944751381" y="242.09944751381212" type="curve" smooth="yes"/>
      <point x="414.2209944751381" y="924.182320441989" type="line"/>
      <point x="596.0331491712708" y="924.182320441989" type="line"/>
      <point x="596.0331491712708" y="1005.0" type="line"/>
      <point x="412.32596685082865" y="1005.0" type="line"/>
      <point x="413.04972375690613" y="1327.0939226519338" type="line"/>
      <point x="289.42541436464086" y="1327.0939226519338" type="line"/>
      <point x="265.63535911602213" y="1263.0441988950276"/>
      <point x="230.46408839779005" y="1164.8342541436464"/>
      <point x="208.67403314917127" y="1125.624309392265" type="curve" smooth="yes"/>
      <point x="185.0939226519337" y="1084.6629834254143"/>
      <point x="160.34254143646407" y="1028.5801104972377"/>
      <point x="123.65745856353593" y="1008.6187845303867" type="curve" smooth="yes"/>
      <point x="93.07734806629834" y="991.9337016574586"/>
      <point x="35.248618784530386" y="975.5911602209944"/>
      <point x="-1.740331491712709" y="962.6298342541436" type="curve"/>
      <point x="-1.740331491712709" y="924.182320441989" type="line"/>
      <point x="124.57458563535911" y="924.182320441989" type="line"/>
      <point x="124.57458563535911" y="196.35911602209944" type="line" smooth="yes"/>
      <point x="124.57458563535911" y="36.475138121546955"/>
      <point x="192.7458563535912" y="-22.685082872928177"/>
    </contour>
  </outline>
</glyph>
<glyph name="u" format="2">
  <advance width="1146.5786183812556"/>
  <unicode hex="0075"/>
  <anchor x="594.8701859095858" y="0.0" name="bottom"/>
  <anchor x="936.6758882122836" y="20.0" name="ogonek"/>
  <anchor x="570.8011452998347" y="1111.4475138121547" name="top"/>
  <anchor x="914.6228576037423" y="1033.844698955519" name="topright"/>
  <outline>
    <contour>
      <point x="889.8321974432392" y="-18.50663386700004" type="curve" smooth="yes"/>
      <point x="987.9139815300236" y="-18.50663386700004"/>
      <point x="1063.627858208654" y="0.0"/>
      <point x="1111.5630923095537" y="10.95979352341009" type="curve"/>
      <point x="1111.708271161834" y="68.88365528088076" type="line"/>
      <point x="1021.0686776626206" y="78.48796225349841" type="line"/>
      <point x="1021.0686776626206" y="1023.8488526837924" type="line"/>
      <point x="973.8614751784492" y="1056.303625438561" type="line"/>
      <point x="944.7642456748799" y="1056.303625438561" type="line"/>
      <point x="624.359801588902" y="978.0542404323104" type="line"/>
      <point x="624.359801588902" y="921.7246441101746" type="line"/>
      <point x="740.9916522159939" y="881.3452837036738" type="line"/>
      <point x="740.9916522159939" y="211.72214380771865" type="line"/>
      <point x="697.9321692140178" y="175.31632858813566"/>
      <point x="630.7645279670928" y="134.36689922168003"/>
      <point x="537.0950114933258" y="134.36689922168003" type="curve" smooth="yes"/>
      <point x="436.2306327378311" y="134.36689922168003"/>
      <point x="403.79852401500176" y="198.8466346735492"/>
      <point x="403.79852401500176" y="353.09464854619506" type="curve" smooth="yes"/>
      <point x="403.79852401500176" y="1023.8488526837924" type="line"/>
      <point x="360.7458160261322" y="1056.303625438561" type="line"/>
      <point x="333.602734201718" y="1056.303625438561" type="line"/>
      <point x="20.21857482760012" y="978.0542404323104" type="line"/>
      <point x="20.21857482760012" y="920.9639069242247" type="line"/>
      <point x="122.27398475622053" y="881.3452837036738" type="line"/>
      <point x="122.47763842400292" y="355.9206355607533" type="line" smooth="yes"/>
      <point x="122.47763842400292" y="95.12372464411018"/>
      <point x="208.92970923902087" y="-20.525547445255473"/>
      <point x="423.6325765213534" y="-20.525547445255473" type="curve" smooth="yes"/>
      <point x="568.9971367504133" y="-20.525547445255473"/>
      <point x="690.081501794572" y="64.38520788805096"/>
      <point x="756.6653627454934" y="164.83941605839416" type="curve"/>
      <point x="756.6653627454934" y="75.51449772149857" type="line" smooth="yes"/>
      <point x="756.6653627454934" y="-0.3543977094003292"/>
      <point x="805.3179013590354" y="-18.50663386700004"/>
    </contour>
  </outline>
</glyph>
<glyph name="v" format="2">
  <advance width="970.0718232044201"/>
  <unicode hex="0076"/>
  <outline>
    <contour>
      <point x="-41.77900552486188" y="967.8287292817679" type="line"/>
      <point x="47.01104972375691" y="927.0773480662983" type="line"/>
      <point x="352.9834254143646" y="0.0" type="line"/>
      <point x="628.011049723757" y="0.0" type="line"/>
      <point x="926.5856353591159" y="927.0773480662983" type="line"/>
      <point x="1029.5745856353592" y="967.8287292817679" type="line"/>
      <point x="1029.5745856353592" y="1005.0" type="line"/>
      <point x="692.3591160220993" y="1005.0" type="line"/>
      <point x="692.3591160220993" y="967.1049723756906" type="line"/>
      <point x="816.3480662983426" y="927.0773480662983" type="line"/>
      <point x="655.7237569060773" y="288.9447513812155" type="line"/>
      <point x="603.4585635359117" y="102.04419889502765" type="line"/>
      <point x="549.3646408839778" y="303.1436464088398" type="line"/>
      <point x="372.5027624309392" y="927.0773480662983" type="line"/>
      <point x="480.26519337016566" y="967.8287292817679" type="line"/>
      <point x="480.26519337016566" y="1005.0" type="line"/>
      <point x="-41.77900552486188" y="1005.0" type="line"/>
    </contour>
  </outline>
</glyph>
<glyph name="w" format="2">
  <advance width="1597.283098761947"/>
  <unicode hex="0077"/>
  <anchor x="807.6084607008912" y="0.0" name="bottom"/>
  <anchor x="840.2757994918741" y="1110.7237569060774" name="top"/>
  <outline>
    <contour>
      <point x="-19.21631648989797" y="975.2720490381901" type="line"/>
      <point x="66.42831794168649" y="939.4930435133283" type="line"/>
      <point x="348.21038835342983" y="-4.204379562043796" type="line"/>
      <point x="591.580755736581" y="-4.204379562043796" type="line"/>
      <point x="756.1523168125177" y="624.9614872766867" type="line"/>
      <point x="802.4955438157841" y="840.4850990039116" type="line"/>
      <point x="848.7004476347946" y="625.4950598862766" type="line"/>
      <point x="1012.0308908335685" y="-4.204379562043796" type="line"/>
      <point x="1265.973303222164" y="-4.204379562043796" type="line"/>
      <point x="1560.801871194096" y="939.1576803645603" type="line"/>
      <point x="1669.0955357502924" y="975.2720490381901" type="line"/>
      <point x="1669.0955357502924" y="1032.9716094688874" type="line"/>
      <point x="1313.4638464330365" y="1032.9716094688874" type="line"/>
      <point x="1313.4638464330365" y="975.80562164778" type="line"/>
      <point x="1439.9680606524985" y="938.5871274750978" type="line"/>
      <point x="1285.1942573698432" y="346.11678832116786" type="line"/>
      <point x="1239.431181191273" y="143.47348469572933" type="line"/>
      <point x="1196.6432229705206" y="339.9352341008993" type="line"/>
      <point x="1032.3942815663186" y="1032.9716094688874" type="line"/>
      <point x="759.41803443965" y="1032.9716094688874" type="line"/>
      <point x="597.7879985482116" y="345.918578860346" type="line"/>
      <point x="556.171391700609" y="143.61866354800986" type="line"/>
      <point x="514.4310198814374" y="339.5998709521313" type="line"/>
      <point x="364.891841755051" y="939.1126749203532" type="line"/>
      <point x="473.7390006855669" y="975.80562164778" type="line"/>
      <point x="473.7390006855669" y="1032.9716094688874" type="line"/>
      <point x="-19.21631648989797" y="1032.9716094688874" type="line"/>
    </contour>
  </outline>
</glyph>
<glyph name="x" format="2">
  <advance width="1092.6147517844902"/>
  <unicode hex="0078"/>
  <outline>
    <contour>
      <point x="106.22534984070656" y="88.4650159293463" type="line"/>
      <point x="-4.068113078194942" y="58.632415211517525" type="line"/>
      <point x="-4.068113078194942" y="0.0" type="line"/>
      <point x="389.754567084728" y="0.0" type="line"/>
      <point x="389.754567084728" y="58.632415211517525" type="line"/>
      <point x="246.33141105778927" y="88.4650159293463" type="line"/>
      <point x="400.806871799008" y="328.7921119490261" type="line"/>
      <point x="458.71210227043605" y="426.86199943541556" type="line"/>
      <point x="525.9212404726379" y="316.28233254022666" type="line"/>
      <point x="665.9945557930395" y="88.4650159293463" type="line"/>
      <point x="553.222405936202" y="58.632415211517525" type="line"/>
      <point x="553.222405936202" y="0.0" type="line"/>
      <point x="1098.7194015405087" y="0.0" type="line"/>
      <point x="1098.7194015405087" y="58.632415211517525" type="line"/>
      <point x="997.3405653909746" y="88.12965278057828" type="line"/>
      <point x="679.3637940073397" y="558.803202000242" type="line"/>
      <point x="974.1050127031497" y="945.1571157801346" type="line"/>
      <point x="1080.4636044682823" y="974.7384764286003" type="line"/>
      <point x="1080.4636044682823" y="1032.7814251724" type="line"/>
      <point x="705.7890067346857" y="1032.7814251724" type="line"/>
      <point x="705.7890067346857" y="974.7384764286003" type="line"/>
      <point x="837.3312497479534" y="944.6235431705447" type="line"/>
      <point x="684.1238859539461" y="706.1627616243901" type="line"/>
      <point x="631.7615840625881" y="613.6608863975481" type="line"/>
      <point x="570.2298261886519" y="716.6914546114449" type="line"/>
      <point x="428.6589910069767" y="945.1571157801346" type="line"/>
      <point x="545.4023470581118" y="974.7384764286003" type="line"/>
      <point x="545.4023470581118" y="1032.7814251724" type="line"/>
      <point x="0.11993386296728925" y="1032.7814251724" type="line"/>
      <point x="0.11993386296728925" y="974.7384764286003" type="line"/>
      <point x="97.7283139089406" y="945.1571157801346" type="line"/>
      <point x="409.43807718675646" y="482.87179900794445" type="line"/>
    </contour>
  </outline>
</glyph>
<glyph name="y" format="2">
  <advance width="970.6243093922651"/>
  <unicode hex="0079"/>
  <anchor x="841.4309392265193" y="0.0" name="bottom"/>
  <anchor x="526.5580110497236" y="1110.7237569060774" name="top"/>
  <outline>
    <contour>
      <point x="224.11049723756906" y="-502.38121546961327" type="curve" smooth="yes"/>
      <point x="404.8784530386741" y="-502.38121546961327"/>
      <point x="505.94475138121544" y="-344.49723756906076"/>
      <point x="619.9447513812156" y="-28.314917127071823" type="curve"/>
      <point x="639.8121546961327" y="22.773480662983424"/>
      <point x="805.6795580110498" y="549.6298342541437"/>
      <point x="934.3756906077347" y="927.0773480662983" type="curve"/>
      <point x="1038.193370165746" y="967.8287292817679" type="line"/>
      <point x="1038.193370165746" y="1005.0" type="line"/>
      <point x="706.5027624309392" y="1005.0" type="line"/>
      <point x="706.5027624309392" y="967.1049723756905" type="line"/>
      <point x="826.9005524861877" y="927.0773480662983" type="line"/>
      <point x="658.7624309392264" y="288.6685082872928" type="line"/>
      <point x="606.4972375690606" y="101.76795580110496" type="line"/>
      <point x="552.6795580110498" y="303.6961325966851" type="line"/>
      <point x="365.81767955801104" y="927.0773480662983" type="line"/>
      <point x="468.05524861878445" y="967.5524861878453" type="line"/>
      <point x="468.05524861878445" y="1005.0" type="line"/>
      <point x="-47.50276243093923" y="1005.7237569060774" type="line"/>
      <point x="-47.50276243093923" y="968.5524861878453" type="line"/>
      <point x="42.392265193370164" y="927.8011049723757" type="line"/>
      <point x="356.40331491712715" y="0.0" type="line"/>
      <point x="552.1270718232043" y="0.0" type="line"/>
      <point x="495.75690607734805" y="-158.84530386740335"/>
      <point x="373.69060773480663" y="-292.950276243094"/>
      <point x="225.41436464088397" y="-292.950276243094" type="curve" smooth="yes"/>
      <point x="189.6243093922652" y="-292.950276243094"/>
      <point x="153.1767955801105" y="-286.7790055248619"/>
      <point x="129.93922651933704" y="-278.77900552486193" type="curve"/>
      <point x="129.93922651933704" y="-486.2099447513812" type="line"/>
      <point x="146.66298342541438" y="-496.38121546961327"/>
      <point x="181.28176795580112" y="-502.38121546961327"/>
    </contour>
  </outline>
</glyph>
<glyph name="z" format="2">
  <advance width="999.1644150502076"/>
  <unicode hex="007A"/>
  <anchor x="507.453199983869" y="0.0" name="bottom"/>
  <anchor x="517.3397991692544" y="1110.7237569060774" name="top"/>
  <outline>
    <contour>
      <point x="665.8726458845828" y="959.9422107513005" type="line"/>
      <point x="561.3071742549503" y="849.6747590434327" type="line"/>
      <point x="29.30285921684075" y="68.52949953623423" type="line"/>
      <point x="73.42400290357706" y="0.0" type="line"/>
      <point x="924.3973464531999" y="0.0" type="line"/>
      <point x="969.6893575835788" y="358.816590716619" type="line"/>
      <point x="836.8619994354156" y="379.96128563939186" type="line"/>
      <point x="718.3564544098075" y="96.97221438077187" type="line"/>
      <point x="343.03314917127074" y="71.4501754244465" type="line"/>
      <point x="460.47828366334636" y="207.15852724119858" type="line"/>
      <point x="972.7249264023873" y="964.1276767350889" type="line"/>
      <point x="930.9841513086262" y="1032.7814251724" type="line"/>
      <point x="95.5445820058878" y="1031.1807073436305" type="line"/>
      <point x="86.47384764286002" y="692.6116465701496" type="line"/>
      <point x="228.79602371254586" y="694.2123643989191" type="line"/>
      <point x="295.6786304794935" y="939.98048150986" type="line"/>
    </contour>
  </outline>
</glyph>
<glyph name="braceleft" format="2">
  <advance width="1012.1951445739405"/>
  <unicode hex="007B"/>
  <outline>
    <contour>
      <point x="598.2745090131871" y="-279.23756906077347" type="curve" smooth="yes"/>
      <point x="694.9626567729969" y="-279.23756906077347"/>
      <point x="779.9772553131427" y="-259.60071782876963"/>
      <point x="858.2978989393879" y="-238.0" type="curve"/>
      <point x="858.2978989393879" y="-176.6551598983748" type="line"/>
      <point x="824.7564624752995" y="-178.48388918014277"/>
      <point x="771.9212808000967" y="-180.31261846191072"/>
      <point x="738.1518328830101" y="-180.31261846191072" type="curve" smooth="yes"/>
      <point x="636.7156914142842" y="-180.31261846191072"/>
      <point x="543.9612049844741" y="-141.50058474815503"/>
      <point x="543.9612049844741" y="-3.5778924869943936" type="curve" smooth="yes"/>
      <point x="543.9612049844741" y="112.67072629753599"/>
      <point x="609.6660079848368" y="290.75525265153044"/>
      <point x="609.6660079848368" y="426.7939266846796" type="curve" smooth="yes"/>
      <point x="609.6660079848368" y="588.9576561680848"/>
      <point x="458.20022583377016" y="651.1049723756906"/>
      <point x="292.5356696374561" y="672.0" type="curve"/>
      <point x="458.20022583377016" y="694.171270718232"/>
      <point x="609.6660079848368" y="746.2277291607857"/>
      <point x="609.6660079848368" y="909.2060733153204" type="curve" smooth="yes"/>
      <point x="609.6660079848368" y="1046.6922611606244"/>
      <point x="543.9612049844741" y="1228.9480582328508"/>
      <point x="543.9612049844741" y="1344.472920111304" type="curve" smooth="yes"/>
      <point x="543.9612049844741" y="1479.8431261846192"/>
      <point x="633.5331693350004" y="1520.6551598983747"/>
      <point x="734.4168246158811" y="1520.6551598983747" type="curve" smooth="yes"/>
      <point x="767.9582610799694" y="1520.6551598983747"/>
      <point x="824.7564624752995" y="1519.5691011009394"/>
      <point x="858.2978989393879" y="1517.7403718191715" type="curve"/>
      <point x="858.2978989393879" y="1576.0" type="line"/>
      <point x="773.0122998749848" y="1599.2014356575392"/>
      <point x="699.9480985603096" y="1616.6850828729282"/>
      <point x="602.4453361293705" y="1616.6850828729282" type="curve" smooth="yes"/>
      <point x="365.57531152962054" y="1616.6850828729282"/>
      <point x="256.5622051054563" y="1519.828729281768"/>
      <point x="256.5622051054563" y="1353.486187845304" type="curve" smooth="yes"/>
      <point x="256.5622051054563" y="1169.657458563536"/>
      <point x="373.13368552647495" y="1024.7482760011292"/>
      <point x="373.13368552647495" y="875.9180142759205" type="curve" smooth="yes"/>
      <point x="373.13368552647495" y="777.0314957454532"/>
      <point x="324.01201758277205" y="718.2965681332419"/>
      <point x="115.59152316812519" y="718.8490543210872" type="curve"/>
      <point x="115.59152316812519" y="636.743638343348" type="line"/>
      <point x="324.01201758277205" y="637.2961245311934"/>
      <point x="373.13368552647495" y="560.832197443239"/>
      <point x="373.13368552647495" y="459.87373472597494" type="curve" smooth="yes"/>
      <point x="373.13368552647495" y="311.5770456103561"/>
      <point x="256.5622051054563" y="166.8950276243094"/>
      <point x="256.5622051054563" y="-16.76243093922652" type="curve" smooth="yes"/>
      <point x="256.5622051054563" y="-181.82872928176795"/>
      <point x="364.2556357623907" y="-279.23756906077347"/>
    </contour>
  </outline>
</glyph>
<glyph name="bar" format="2">
  <advance width="720.060773480663"/>
  <unicode hex="007C"/>
  <outline>
    <contour>
      <point x="409.01104972375686" y="1738.0" type="line"/>
      <point x="311.0497237569061" y="1738.0" type="line"/>
      <point x="311.0497237569061" y="-182.0" type="line"/>
      <point x="409.01104972375686" y="-182.0" type="line"/>
    </contour>
  </outline>
</glyph>
<glyph name="braceright" format="2">
  <advance width="1012.1951445739405"/>
  <unicode hex="007D"/>
  <outline>
    <contour>
      <point x="411.7863451223938" y="-279.23756906077347" type="curve" smooth="yes"/>
      <point x="645.8052183731903" y="-279.23756906077347"/>
      <point x="755.6329394684841" y="-181.82872928176795"/>
      <point x="755.6329394684841" y="-16.228858329636648" type="curve" smooth="yes"/>
      <point x="755.6329394684841" y="167.96217284348913"/>
      <point x="639.0614590474655" y="312.110618219946"/>
      <point x="639.0614590474655" y="460.9408799451547" type="curve" smooth="yes"/>
      <point x="639.0614590474655" y="560.832197443239"/>
      <point x="688.1831269911683" y="627.6918175585757"/>
      <point x="896.6036214058151" y="627.1393313707304" type="curve"/>
      <point x="896.6036214058151" y="709.2447473484696" type="line"/>
      <point x="688.1831269911683" y="708.6922611606242"/>
      <point x="639.0614590474655" y="777.0314957454532"/>
      <point x="639.0614590474655" y="876.9851594951003" type="curve" smooth="yes"/>
      <point x="639.0614590474655" y="1025.281848610719"/>
      <point x="755.6329394684841" y="1170.7246037827158"/>
      <point x="755.6329394684841" y="1354.0197604548937" type="curve" smooth="yes"/>
      <point x="755.6329394684841" y="1519.828729281768"/>
      <point x="648.7541234826795" y="1616.6850828729282"/>
      <point x="411.8840988829293" y="1616.6850828729282" type="curve" smooth="yes"/>
      <point x="314.38133645199014" y="1616.6850828729282"/>
      <point x="233.84711860305683" y="1597.6007178287696"/>
      <point x="153.89724563455258" y="1576.0" type="curve"/>
      <point x="153.89724563455258" y="1515.606081380812" type="line"/>
      <point x="187.43868209864098" y="1517.4348106625798"/>
      <point x="241.56902044602168" y="1518.520869460015"/>
      <point x="274.0433116909303" y="1518.520869460015" type="curve" smooth="yes"/>
      <point x="374.9269669718111" y="1518.520869460015"/>
      <point x="468.23393958946656" y="1478.7759809654394"/>
      <point x="468.23393958946656" y="1342.3386296729443" type="curve" smooth="yes"/>
      <point x="468.23393958946656" y="1226.2801951849015"/>
      <point x="402.5291365891036" y="1046.6922611606244"/>
      <point x="402.5291365891036" y="910.2732185345001" type="curve" smooth="yes"/>
      <point x="402.5291365891036" y="747.2948743799654"/>
      <point x="553.9949187401702" y="690.4362624511028"/>
      <point x="719.6594749364843" y="668.7985643424607" type="curve"/>
      <point x="553.9949187401702" y="647.3699641085616"/>
      <point x="402.5291365891036" y="590.0248013872645"/>
      <point x="402.5291365891036" y="427.86107190385934" type="curve" smooth="yes"/>
      <point x="402.5291365891036" y="290.75525265153044"/>
      <point x="468.23393958946656" y="110.00286324958664"/>
      <point x="468.23393958946656" y="-5.712182925353872" type="curve" smooth="yes"/>
      <point x="468.23393958946656" y="-142.56772996733477"/>
      <point x="379.21446142678553" y="-182.4469089002702"/>
      <point x="277.77831995805946" y="-182.4469089002702" type="curve" smooth="yes"/>
      <point x="242.9417268217929" y="-182.4469089002702"/>
      <point x="187.43868209864098" y="-180.61817961850224"/>
      <point x="153.89724563455258" y="-178.78945033673426" type="curve"/>
      <point x="153.89724563455258" y="-238.0" type="line"/>
      <point x="237.55361535669638" y="-261.20143565753926"/>
      <point x="315.09819736258413" y="-279.23756906077347"/>
    </contour>
  </outline>
</glyph>
<glyph name="asciitilde" format="2">
  <advance width="1227.55543009235"/>
  <unicode hex="007E"/>
  <outline>
    <contour>
      <point x="160.83211678832117" y="546.4427954994555" type="curve"/>
      <point x="210.5660362140581" y="477.4132757994918" type="line"/>
      <point x="259.79513650844865" y="544.0913013671009"/>
      <point x="333.10089930233505" y="595.5329273702464"/>
      <point x="416.6897205307094" y="595.5329273702464" type="curve" smooth="yes"/>
      <point x="569.6654030729524" y="595.5329273702464"/>
      <point x="603.1937734403357" y="414.5061902649514"/>
      <point x="788.3206839537041" y="414.5061902649514" type="curve" smooth="yes"/>
      <point x="908.9094648546195" y="414.5061902649514"/>
      <point x="1014.8920030648871" y="491.8005403879501"/>
      <point x="1066.7233133040288" y="582.1512682985846" type="curve"/>
      <point x="1011.6386256401985" y="656.3863773843609" type="line"/>
      <point x="963.1702625317577" y="588.7574303343147"/>
      <point x="888.2939065209503" y="532.6807678348188"/>
      <point x="801.8543372182119" y="532.6807678348188" type="curve" smooth="yes"/>
      <point x="656.0882768076783" y="532.6807678348188"/>
      <point x="612.9484211799814" y="713.1369520506513"/>
      <point x="435.5036093075775" y="713.1369520506513" type="curve" smooth="yes"/>
      <point x="316.64596523773037" y="713.1369520506513"/>
      <point x="207.85768439730612" y="631.0818647417025"/>
    </contour>
  </outline>
</glyph>
<glyph name="exclamdown" format="2">
  <advance width="496.36810904544905"/>
  <unicode hex="00A1"/>
  <outline>
    <contour>
      <point x="92.1681655038916" y="-319.6047505746663" type="line"/>
      <point x="408.60466991974835" y="-319.6047505746663" type="line"/>
      <point x="294.27192805581313" y="992.9292253095133" type="line"/>
      <point x="203.56720571036817" y="992.9292253095133" type="line"/>
    </contour>
    <contour>
      <point x="261.79804008549416" y="1458.5336935919668" type="curve" smooth="yes"/>
      <point x="164.21784893333873" y="1458.5336935919668"/>
      <point x="93.54921966366899" y="1401.4219462031697"/>
      <point x="93.54921966366899" y="1305.0334717909427" type="curve" smooth="yes"/>
      <point x="93.54921966366899" y="1233.4672339395893"/>
      <point x="143.0207283139089" y="1165.8425212727343"/>
      <point x="236.44223091503005" y="1165.8425212727343" type="curve" smooth="yes"/>
      <point x="326.3627858208653" y="1165.8425212727343"/>
      <point x="400.9540266967777" y="1228.9084163406865"/>
      <point x="400.9540266967777" y="1319.5329273702464" type="curve" smooth="yes"/>
      <point x="400.9540266967777" y="1401.7959833850869"/>
      <point x="335.0289147880792" y="1458.5336935919668"/>
    </contour>
  </outline>
</glyph>
<glyph name="cent" format="2">
  <advance width="1070.9566883090697"/>
  <unicode hex="00A2"/>
  <outline>
    <contour>
      <point x="122.58236883493974" y="504.34915513973465" type="curve" smooth="yes"/>
      <point x="123.10791628019516" y="221.68488123563333"/>
      <point x="254.63721417913462" y="16.11884502157519"/>
      <point x="517.9417268217929" y="-16.917369036577007" type="curve"/>
      <point x="495.28797838448196" y="-252.0" type="line"/>
      <point x="599.1338871637698" y="-252.0" type="line"/>
      <point x="621.0638786950034" y="-21.072589426140258" type="line"/>
      <point x="770.4907045207082" y="-12.003427834012179"/>
      <point x="916.1083598822438" y="64.09638262693066"/>
      <point x="968.3743194741301" y="122.26059603984352" type="curve"/>
      <point x="938.1654635641409" y="186.70484332782192" type="line"/>
      <point x="882.8872040972699" y="145.13566157196433"/>
      <point x="785.5217163366536" y="112.63894825987015"/>
      <point x="703.1254587248458" y="112.63894825987015" type="curve" smooth="yes"/>
      <point x="540.6425777311771" y="112.63894825987015"/>
      <point x="431.3222567246038" y="250.21236439891928"/>
      <point x="431.8478041698592" y="556.4390450457716" type="curve" smooth="yes"/>
      <point x="432.1831673186273" y="865.4656611686896"/>
      <point x="519.0020970278663" y="988.0660160503287"/>
      <point x="639.0028229221275" y="988.0660160503287" type="curve" smooth="yes"/>
      <point x="706.0846070089124" y="988.0660160503287"/>
      <point x="741.0300439569303" y="945.7623502843086"/>
      <point x="752.8193733112877" y="894.541839738678" type="curve" smooth="yes"/>
      <point x="796.3139089405977" y="700.1304593297576" type="line"/>
      <point x="952.2534984070654" y="700.1304593297576" type="line"/>
      <point x="963.8507884018228" y="1001.2715651086825" type="line"/>
      <point x="910.941686494334" y="1009.0835181675202"/>
      <point x="835.606283018107" y="1055.6374561438884"/>
      <point x="701.4959874178328" y="1065.4842521272735" type="curve"/>
      <point x="725.1901439690286" y="1320.9075291365891" type="line"/>
      <point x="624.5653103197968" y="1320.9075291365891" type="line"/>
      <point x="600.6998830503688" y="1065.1173529055934" type="line"/>
      <point x="311.3005605516796" y="1043.3927894503367"/>
      <point x="122.62737427914666" y="821.2511190869864"/>
    </contour>
  </outline>
</glyph>
<glyph name="sterling" format="2">
  <advance width="1482.1795378473205"/>
  <unicode hex="00A3"/>
  <outline>
    <contour>
      <point x="934.8896640722668" y="-14.0" type="curve" smooth="yes"/>
      <point x="1188.7050449651167" y="-14.0"/>
      <point x="1395.3575432511996" y="142.33076581844577"/>
      <point x="1395.3575432511996" y="359.0798080412953" type="curve" smooth="yes"/>
      <point x="1395.3575432511996" y="436.87200064523927"/>
      <point x="1368.7717869097069" y="495.4108964794128"/>
      <point x="1342.5410331894986" y="522.7790055248619" type="curve"/>
      <point x="1056.205065128846" y="522.7790055248619" type="line"/>
      <point x="1091.0198411098118" y="482.6235028430859"/>
      <point x="1116.121546961326" y="398.5835383312497"/>
      <point x="1116.121546961326" y="325.72105496632656" type="curve" smooth="yes"/>
      <point x="1116.121546961326" y="160.6036214058152"/>
      <point x="1056.2400693632296" y="74.76339879824172"/>
      <point x="912.1913134653387" y="74.76339879824172" type="curve" smooth="yes"/>
      <point x="755.8812356333427" y="74.76339879824172"/>
      <point x="653.0776303585111" y="148.27563818203814"/>
      <point x="498.1312658789369" y="189.6995201032383" type="curve"/>
      <point x="576.9010767431544" y="267.33621002540633"/>
      <point x="628.2491027140379" y="380.4326733072549"/>
      <point x="628.2491027140381" y="590.3944025486954" type="curve" smooth="yes"/>
      <point x="628.2491027140381" y="766.4021050933579" type="line"/>
      <point x="918.7242811630439" y="766.4021050933579" type="line"/>
      <point x="918.7242811630439" y="856.7948945436949" type="line"/>
      <point x="628.2491027140381" y="856.7948945436949" type="line"/>
      <point x="628.2491027140381" y="1109.3530265757956" type="line" smooth="yes"/>
      <point x="628.2491027140381" y="1351.614832439408"/>
      <point x="711.0111707061337" y="1425.1525991047304"/>
      <point x="820.0043150381094" y="1425.1525991047304" type="curve" smooth="yes"/>
      <point x="937.9120054845345" y="1425.1525991047304"/>
      <point x="1056.022986651611" y="1314.43364116627"/>
      <point x="1101.883252006291" y="1212.2862846312055" type="curve"/>
      <point x="1233.3660926725008" y="1385.559261200952" type="line"/>
      <point x="1147.7303706093478" y="1454.1222325281283"/>
      <point x="1012.0368592974958" y="1504.171270718232"/>
      <point x="856.7897729564061" y="1504.171270718232" type="curve" smooth="yes"/>
      <point x="567.4195668830909" y="1504.171270718232"/>
      <point x="331.81033996047915" y="1304.0"/>
      <point x="331.81033996047915" y="998.7237569060774" type="curve" smooth="yes"/>
      <point x="331.81033996047915" y="856.7948945436949" type="line"/>
      <point x="145.7021817155301" y="856.7948945436949" type="line"/>
      <point x="145.7021817155301" y="766.4021050933579" type="line"/>
      <point x="331.81033996047915" y="766.4021050933579" type="line"/>
      <point x="331.81033996047915" y="417.4967939670122" type="line" smooth="yes"/>
      <point x="331.81033996047915" y="328.532161148526"/>
      <point x="320.0713392749123" y="254.25402266403194"/>
      <point x="303.5327660604105" y="223.27378311892568" type="curve"/>
      <point x="201.15288139694317" y="219.17473887970317"/>
      <point x="76.26366092672501" y="164.0562971327177"/>
      <point x="76.26366092672501" y="84.47917086744363" type="curve" smooth="yes"/>
      <point x="76.26366092672501" y="31.09109972980602"/>
      <point x="123.12860426664517" y="0.0"/>
      <point x="188.03113279832237" y="0.0" type="curve" smooth="yes"/>
      <point x="269.08654272694275" y="0.0"/>
      <point x="328.58007016977865" y="33.916280195184896"/>
      <point x="397.8996249546316" y="103.5609952816873" type="curve"/>
      <point x="531.6325361938945" y="102.24777190789209"/>
      <point x="684.3561317901359" y="-14.0"/>
    </contour>
  </outline>
</glyph>
